<svg xmlns="http://www.w3.org/2000/svg" xmlns:xlink="http://www.w3.org/1999/xlink" width="1602pt" height="188pt" viewBox="0.00 0.00 1601.94 188.00">
<g id="graph0" class="graph" transform="scale(1 1) rotate(0) translate(4 184)">
<polygon fill="white" stroke="none" points="-4,4 -4,-184 1597.94,-184 1597.94,4 -4,4"/>
<!-- create_function_job_a30133cc7a07a2e64b505497250df84d -->
<g id="node1" class="node">
<title>create_function_job_a30133cc7a07a2e64b505497250df84d</title>
<ellipse fill="none" stroke="black" cx="796.71" cy="-18" rx="488.41" ry="18"/>
<text text-anchor="middle" x="796.71" y="-13.32" font-family="Times,serif" font-size="14.00">create_function_job=&lt;pyiron_base.project.delayed.DelayedObject object at 0x746386902750&gt;</text>
</g>
<!-- x_03371e8bbb210fff8c1beb07977c6fca -->
<g id="node2" class="node">
<title>x_03371e8bbb210fff8c1beb07977c6fca</title>
<ellipse fill="none" stroke="black" cx="393.71" cy="-90" rx="393.71" ry="18"/>
<text text-anchor="middle" x="393.71" y="-85.33" font-family="Times,serif" font-size="14.00">x=&lt;pyiron_base.project.delayed.DelayedObject object at 0x746386a3b5f0&gt;</text>
</g>
<!-- x_03371e8bbb210fff8c1beb07977c6fca&#45;&gt;create_function_job_a30133cc7a07a2e64b505497250df84d -->
<g id="edge1" class="edge">
<title>x_03371e8bbb210fff8c1beb07977c6fca-&gt;create_function_job_a30133cc7a07a2e64b505497250df84d</title>
<path fill="none" stroke="black" d="M491,-72.1C550.1,-61.83 625.69,-48.7 686.92,-38.07"/>
<polygon fill="black" stroke="black" points="687.44,-41.53 696.69,-36.37 686.24,-34.64 687.44,-41.53"/>
</g>
<!-- x_1d847da32ecaabf6731c38f798c3d4ce -->
<g id="node3" class="node">
<title>x_1d847da32ecaabf6731c38f798c3d4ce</title>
<ellipse fill="none" stroke="black" cx="755.71" cy="-162" rx="31.74" ry="18"/>
<text text-anchor="middle" x="755.71" y="-157.32" font-family="Times,serif" font-size="14.00">x=1</text>
</g>
<!-- x_1d847da32ecaabf6731c38f798c3d4ce&#45;&gt;x_03371e8bbb210fff8c1beb07977c6fca -->
<g id="edge2" class="edge">
<title>x_1d847da32ecaabf6731c38f798c3d4ce-&gt;x_03371e8bbb210fff8c1beb07977c6fca</title>
<path fill="none" stroke="black" d="M725.77,-155.21C675.22,-145.44 570.76,-125.24 492.43,-110.09"/>
<polygon fill="black" stroke="black" points="493.52,-106.74 483.04,-108.27 492.19,-113.61 493.52,-106.74"/>
</g>
<!-- y_69de87ef8d8a066b8926b02e01e9f7f8 -->
<g id="node4" class="node">
<title>y_69de87ef8d8a066b8926b02e01e9f7f8</title>
<ellipse fill="none" stroke="black" cx="1199.71" cy="-90" rx="394.23" ry="18"/>
<text text-anchor="middle" x="1199.71" y="-85.33" font-family="Times,serif" font-size="14.00">y=&lt;pyiron_base.project.delayed.DelayedObject object at 0x7463869023f0&gt;</text>
</g>
<!-- x_1d847da32ecaabf6731c38f798c3d4ce&#45;&gt;y_69de87ef8d8a066b8926b02e01e9f7f8 -->
<g id="edge3" class="edge">
<title>x_1d847da32ecaabf6731c38f798c3d4ce-&gt;y_69de87ef8d8a066b8926b02e01e9f7f8</title>
<path fill="none" stroke="black" d="M786.22,-156.19C846.21,-146.73 982.34,-125.27 1082.07,-109.55"/>
<polygon fill="black" stroke="black" points="1082.61,-113 1091.94,-107.99 1081.52,-106.09 1082.61,-113"/>
</g>
<!-- y_69de87ef8d8a066b8926b02e01e9f7f8&#45;&gt;create_function_job_a30133cc7a07a2e64b505497250df84d -->
<g id="edge6" class="edge">
<title>y_69de87ef8d8a066b8926b02e01e9f7f8-&gt;create_function_job_a30133cc7a07a2e64b505497250df84d</title>
<path fill="none" stroke="black" d="M1102.41,-72.1C1043.31,-61.83 967.72,-48.7 906.49,-38.07"/>
<polygon fill="black" stroke="black" points="907.17,-34.64 896.72,-36.37 905.98,-41.53 907.17,-34.64"/>
</g>
<!-- y_a9ec4f5f33f0d64e74ed5d9900bceac6 -->
<g id="node5" class="node">
<title>y_a9ec4f5f33f0d64e74ed5d9900bceac6</title>
<ellipse fill="none" stroke="black" cx="1017.71" cy="-162" rx="31.74" ry="18"/>
<text text-anchor="middle" x="1017.71" y="-157.32" font-family="Times,serif" font-size="14.00">y=2</text>
</g>
<!-- y_a9ec4f5f33f0d64e74ed5d9900bceac6&#45;&gt;x_03371e8bbb210fff8c1beb07977c6fca -->
<g id="edge4" class="edge">
<title>y_a9ec4f5f33f0d64e74ed5d9900bceac6-&gt;x_03371e8bbb210fff8c1beb07977c6fca</title>
<path fill="none" stroke="black" d="M986.76,-157.53C908.33,-148.73 697.48,-125.08 549.62,-108.49"/>
<polygon fill="black" stroke="black" points="550.03,-105.01 539.7,-107.38 549.25,-111.97 550.03,-105.01"/>
</g>
<!-- y_a9ec4f5f33f0d64e74ed5d9900bceac6&#45;&gt;y_69de87ef8d8a066b8926b02e01e9f7f8 -->
<g id="edge5" class="edge">
<title>y_a9ec4f5f33f0d64e74ed5d9900bceac6-&gt;y_69de87ef8d8a066b8926b02e01e9f7f8</title>
<path fill="none" stroke="black" d="M1043.4,-151.12C1069.48,-141.09 1110.69,-125.24 1144.25,-112.33"/>
<polygon fill="black" stroke="black" points="1145.36,-115.65 1153.44,-108.8 1142.85,-109.12 1145.36,-115.65"/>
</g>
</g>
</svg>