<svg xmlns="http://www.w3.org/2000/svg" xmlns:xlink="http://www.w3.org/1999/xlink" width="2943pt" height="476pt" viewBox="0.00 0.00 2943.11 476.00">
<g id="graph0" class="graph" transform="scale(1 1) rotate(0) translate(4 472)">
<polygon fill="white" stroke="none" points="-4,4 -4,-472 2939.11,-472 2939.11,4 -4,4"/>
<!-- create_function_job_69b38eef29d5c9aba4c6de512da1bb24 -->
<g id="node1" class="node">
<title>create_function_job_69b38eef29d5c9aba4c6de512da1bb24</title>
<ellipse fill="none" stroke="black" cx="1549.35" cy="-18" rx="487.88" ry="18"/>
<text text-anchor="middle" x="1549.35" y="-13.32" font-family="Times,serif" font-size="14.00">create_function_job=&lt;pyiron_base.project.delayed.DelayedObject object at 0x79d1151abb90&gt;</text>
</g>
<!-- macros_tex_c5f640fc7b11414962941f82a40a8b04 -->
<g id="node2" class="node">
<title>macros_tex_c5f640fc7b11414962941f82a40a8b04</title>
<ellipse fill="none" stroke="black" cx="2015.35" cy="-90" rx="447.37" ry="18"/>
<text text-anchor="middle" x="2015.35" y="-85.33" font-family="Times,serif" font-size="14.00">macros_tex=&lt;pyiron_base.project.delayed.DelayedObject object at 0x79d1151ab920&gt;</text>
</g>
<!-- macros_tex_c5f640fc7b11414962941f82a40a8b04&#45;&gt;create_function_job_69b38eef29d5c9aba4c6de512da1bb24 -->
<g id="edge1" class="edge">
<title>macros_tex_c5f640fc7b11414962941f82a40a8b04-&gt;create_function_job_69b38eef29d5c9aba4c6de512da1bb24</title>
<path fill="none" stroke="black" d="M1902.84,-72.1C1833.68,-61.71 1744.99,-48.39 1673.74,-37.69"/>
<polygon fill="black" stroke="black" points="1674.37,-34.24 1663.96,-36.22 1673.33,-41.16 1674.37,-34.24"/>
</g>
<!-- pvbatch_output_file_5f8f87a5c4f1bd1a4b6cca85a1fc2b78 -->
<g id="node3" class="node">
<title>pvbatch_output_file_5f8f87a5c4f1bd1a4b6cca85a1fc2b78</title>
<ellipse fill="none" stroke="black" cx="1650.35" cy="-162" rx="485.77" ry="18"/>
<text text-anchor="middle" x="1650.35" y="-157.32" font-family="Times,serif" font-size="14.00">pvbatch_output_file=&lt;pyiron_base.project.delayed.DelayedObject object at 0x79d1151ab5f0&gt;</text>
</g>
<!-- pvbatch_output_file_5f8f87a5c4f1bd1a4b6cca85a1fc2b78&#45;&gt;macros_tex_c5f640fc7b11414962941f82a40a8b04 -->
<g id="edge2" class="edge">
<title>pvbatch_output_file_5f8f87a5c4f1bd1a4b6cca85a1fc2b78-&gt;macros_tex_c5f640fc7b11414962941f82a40a8b04</title>
<path fill="none" stroke="black" d="M1739.63,-143.88C1792.75,-133.69 1860.26,-120.74 1915.18,-110.21"/>
<polygon fill="black" stroke="black" points="1915.7,-113.67 1924.86,-108.35 1914.38,-106.8 1915.7,-113.67"/>
</g>
<!-- poisson_output_pvd_file_08c5d21e2c998fd513709b7a059c6649 -->
<g id="node4" class="node">
<title>poisson_output_pvd_file_08c5d21e2c998fd513709b7a059c6649</title>
<ellipse fill="none" stroke="black" cx="1542.35" cy="-234" rx="509.45" ry="18"/>
<text text-anchor="middle" x="1542.35" y="-229.32" font-family="Times,serif" font-size="14.00">poisson_output_pvd_file=&lt;pyiron_base.project.delayed.DelayedObject object at 0x79d1151ab290&gt;</text>
</g>
<!-- poisson_output_pvd_file_08c5d21e2c998fd513709b7a059c6649&#45;&gt;pvbatch_output_file_5f8f87a5c4f1bd1a4b6cca85a1fc2b78 -->
<g id="edge3" class="edge">
<title>poisson_output_pvd_file_08c5d21e2c998fd513709b7a059c6649-&gt;pvbatch_output_file_5f8f87a5c4f1bd1a4b6cca85a1fc2b78</title>
<path fill="none" stroke="black" d="M1569.04,-215.7C1582.67,-206.86 1599.45,-195.99 1614.22,-186.41"/>
<polygon fill="black" stroke="black" points="1615.82,-189.55 1622.31,-181.17 1612.02,-183.67 1615.82,-189.55"/>
</g>
<!-- plot_file_5f8f87a5c4f1bd1a4b6cca85a1fc2b78 -->
<g id="node5" class="node">
<title>plot_file_5f8f87a5c4f1bd1a4b6cca85a1fc2b78</title>
<ellipse fill="none" stroke="black" cx="719.35" cy="-162" rx="427.38" ry="18"/>
<text text-anchor="middle" x="719.35" y="-157.32" font-family="Times,serif" font-size="14.00">plot_file=&lt;pyiron_base.project.delayed.DelayedObject object at 0x79d1151ab5f0&gt;</text>
</g>
<!-- poisson_output_pvd_file_08c5d21e2c998fd513709b7a059c6649&#45;&gt;plot_file_5f8f87a5c4f1bd1a4b6cca85a1fc2b78 -->
<g id="edge4" class="edge">
<title>poisson_output_pvd_file_08c5d21e2c998fd513709b7a059c6649-&gt;plot_file_5f8f87a5c4f1bd1a4b6cca85a1fc2b78</title>
<path fill="none" stroke="black" d="M1352.5,-216.85C1221.38,-205.7 1047.48,-190.91 915.1,-179.65"/>
<polygon fill="black" stroke="black" points="915.4,-176.16 905.14,-178.8 914.81,-183.14 915.4,-176.16"/>
</g>
<!-- plot_file_5f8f87a5c4f1bd1a4b6cca85a1fc2b78&#45;&gt;create_function_job_69b38eef29d5c9aba4c6de512da1bb24 -->
<g id="edge18" class="edge">
<title>plot_file_5f8f87a5c4f1bd1a4b6cca85a1fc2b78-&gt;create_function_job_69b38eef29d5c9aba4c6de512da1bb24</title>
<path fill="none" stroke="black" d="M818.64,-144.01C974.59,-117.33 1275.88,-65.78 1438.62,-37.94"/>
<polygon fill="black" stroke="black" points="1438.86,-41.45 1448.12,-36.32 1437.68,-34.55 1438.86,-41.45"/>
</g>
<!-- meshio_output_xdmf_fc75e768124c1b73ca0efc70a5765dea -->
<g id="node6" class="node">
<title>meshio_output_xdmf_fc75e768124c1b73ca0efc70a5765dea</title>
<ellipse fill="none" stroke="black" cx="1440.35" cy="-306" rx="491.04" ry="18"/>
<text text-anchor="middle" x="1440.35" y="-301.32" font-family="Times,serif" font-size="14.00">meshio_output_xdmf=&lt;pyiron_base.project.delayed.DelayedObject object at 0x79d1151aaf60&gt;</text>
</g>
<!-- meshio_output_xdmf_fc75e768124c1b73ca0efc70a5765dea&#45;&gt;poisson_output_pvd_file_08c5d21e2c998fd513709b7a059c6649 -->
<g id="edge5" class="edge">
<title>meshio_output_xdmf_fc75e768124c1b73ca0efc70a5765dea-&gt;poisson_output_pvd_file_08c5d21e2c998fd513709b7a059c6649</title>
<path fill="none" stroke="black" d="M1465.56,-287.7C1478.31,-278.95 1493.98,-268.19 1507.83,-258.69"/>
<polygon fill="black" stroke="black" points="1509.56,-261.75 1515.82,-253.2 1505.59,-255.98 1509.56,-261.75"/>
</g>
<!-- poisson_output_vtu_file_62144723b416cb6b52989d18b3dec55b -->
<g id="node7" class="node">
<title>poisson_output_vtu_file_62144723b416cb6b52989d18b3dec55b</title>
<ellipse fill="none" stroke="black" cx="507.35" cy="-234" rx="507.35" ry="18"/>
<text text-anchor="middle" x="507.35" y="-229.32" font-family="Times,serif" font-size="14.00">poisson_output_vtu_file=&lt;pyiron_base.project.delayed.DelayedObject object at 0x79d1151ab260&gt;</text>
</g>
<!-- meshio_output_xdmf_fc75e768124c1b73ca0efc70a5765dea&#45;&gt;poisson_output_vtu_file_62144723b416cb6b52989d18b3dec55b -->
<g id="edge6" class="edge">
<title>meshio_output_xdmf_fc75e768124c1b73ca0efc70a5765dea-&gt;poisson_output_vtu_file_62144723b416cb6b52989d18b3dec55b</title>
<path fill="none" stroke="black" d="M1230.67,-289.27C1081.41,-278.07 881.18,-263.05 729.23,-251.65"/>
<polygon fill="black" stroke="black" points="729.66,-248.17 719.43,-250.91 729.14,-255.15 729.66,-248.17"/>
</g>
<!-- ndofs_c3811e53ce75b5460d97029d314439b5 -->
<g id="node8" class="node">
<title>ndofs_c3811e53ce75b5460d97029d314439b5</title>
<ellipse fill="none" stroke="black" cx="2487.35" cy="-234" rx="417.91" ry="18"/>
<text text-anchor="middle" x="2487.35" y="-229.32" font-family="Times,serif" font-size="14.00">ndofs=&lt;pyiron_base.project.delayed.DelayedObject object at 0x79d1151ab680&gt;</text>
</g>
<!-- meshio_output_xdmf_fc75e768124c1b73ca0efc70a5765dea&#45;&gt;ndofs_c3811e53ce75b5460d97029d314439b5 -->
<g id="edge7" class="edge">
<title>meshio_output_xdmf_fc75e768124c1b73ca0efc70a5765dea-&gt;ndofs_c3811e53ce75b5460d97029d314439b5</title>
<path fill="none" stroke="black" d="M1669.79,-289.66C1843.68,-278.03 2081.64,-262.12 2256,-250.47"/>
<polygon fill="black" stroke="black" points="2256.13,-253.97 2265.88,-249.81 2255.67,-246.98 2256.13,-253.97"/>
</g>
<!-- poisson_output_vtu_file_62144723b416cb6b52989d18b3dec55b&#45;&gt;pvbatch_output_file_5f8f87a5c4f1bd1a4b6cca85a1fc2b78 -->
<g id="edge15" class="edge">
<title>poisson_output_vtu_file_62144723b416cb6b52989d18b3dec55b-&gt;pvbatch_output_file_5f8f87a5c4f1bd1a4b6cca85a1fc2b78</title>
<path fill="none" stroke="black" d="M754.66,-217.85C943.71,-206.28 1203.5,-190.37 1394.62,-178.66"/>
<polygon fill="black" stroke="black" points="1394.68,-182.16 1404.44,-178.06 1394.25,-175.18 1394.68,-182.16"/>
</g>
<!-- poisson_output_vtu_file_62144723b416cb6b52989d18b3dec55b&#45;&gt;plot_file_5f8f87a5c4f1bd1a4b6cca85a1fc2b78 -->
<g id="edge16" class="edge">
<title>poisson_output_vtu_file_62144723b416cb6b52989d18b3dec55b-&gt;plot_file_5f8f87a5c4f1bd1a4b6cca85a1fc2b78</title>
<path fill="none" stroke="black" d="M560.02,-215.61C589.2,-205.97 625.67,-193.93 656.35,-183.8"/>
<polygon fill="black" stroke="black" points="657.1,-187.24 665.5,-180.78 654.91,-180.59 657.1,-187.24"/>
</g>
<!-- ndofs_c3811e53ce75b5460d97029d314439b5&#45;&gt;macros_tex_c5f640fc7b11414962941f82a40a8b04 -->
<g id="edge17" class="edge">
<title>ndofs_c3811e53ce75b5460d97029d314439b5-&gt;macros_tex_c5f640fc7b11414962941f82a40a8b04</title>
<path fill="none" stroke="black" d="M2429.94,-215.73C2342.71,-189.49 2177.07,-139.66 2083.73,-111.57"/>
<polygon fill="black" stroke="black" points="2084.75,-108.23 2074.17,-108.7 2082.74,-114.93 2084.75,-108.23"/>
</g>
<!-- gmsh_output_file_950b49ac6562a70cf11f14756f9831ea -->
<g id="node9" class="node">
<title>gmsh_output_file_950b49ac6562a70cf11f14756f9831ea</title>
<ellipse fill="none" stroke="black" cx="2427.35" cy="-378" rx="475.25" ry="18"/>
<text text-anchor="middle" x="2427.35" y="-373.32" font-family="Times,serif" font-size="14.00">gmsh_output_file=&lt;pyiron_base.project.delayed.DelayedObject object at 0x79d1151aad20&gt;</text>
</g>
<!-- gmsh_output_file_950b49ac6562a70cf11f14756f9831ea&#45;&gt;meshio_output_xdmf_fc75e768124c1b73ca0efc70a5765dea -->
<g id="edge8" class="edge">
<title>gmsh_output_file_950b49ac6562a70cf11f14756f9831ea-&gt;meshio_output_xdmf_fc75e768124c1b73ca0efc70a5765dea</title>
<path fill="none" stroke="black" d="M2209.83,-361.57C2050.02,-350.24 1833.3,-334.87 1670.58,-323.33"/>
<polygon fill="black" stroke="black" points="1671.18,-319.86 1660.96,-322.65 1670.69,-326.85 1671.18,-319.86"/>
</g>
<!-- meshio_output_h5_efe999f964b5fb7603bd642abcd8905d -->
<g id="node10" class="node">
<title>meshio_output_h5_efe999f964b5fb7603bd642abcd8905d</title>
<ellipse fill="none" stroke="black" cx="2427.35" cy="-306" rx="478.41" ry="18"/>
<text text-anchor="middle" x="2427.35" y="-301.32" font-family="Times,serif" font-size="14.00">meshio_output_h5=&lt;pyiron_base.project.delayed.DelayedObject object at 0x79d1151aaf30&gt;</text>
</g>
<!-- gmsh_output_file_950b49ac6562a70cf11f14756f9831ea&#45;&gt;meshio_output_h5_efe999f964b5fb7603bd642abcd8905d -->
<g id="edge9" class="edge">
<title>gmsh_output_file_950b49ac6562a70cf11f14756f9831ea-&gt;meshio_output_h5_efe999f964b5fb7603bd642abcd8905d</title>
<path fill="none" stroke="black" d="M2427.35,-359.7C2427.35,-352.41 2427.35,-343.73 2427.35,-335.54"/>
<polygon fill="black" stroke="black" points="2430.85,-335.62 2427.35,-325.62 2423.85,-335.62 2430.85,-335.62"/>
</g>
<!-- meshio_output_h5_efe999f964b5fb7603bd642abcd8905d&#45;&gt;poisson_output_pvd_file_08c5d21e2c998fd513709b7a059c6649 -->
<g id="edge12" class="edge">
<title>meshio_output_h5_efe999f964b5fb7603bd642abcd8905d-&gt;poisson_output_pvd_file_08c5d21e2c998fd513709b7a059c6649</title>
<path fill="none" stroke="black" d="M2227.63,-289.2C2087.02,-278.08 1899.03,-263.21 1755.52,-251.86"/>
<polygon fill="black" stroke="black" points="1756.15,-248.4 1745.91,-251.1 1755.6,-255.38 1756.15,-248.4"/>
</g>
<!-- meshio_output_h5_efe999f964b5fb7603bd642abcd8905d&#45;&gt;poisson_output_vtu_file_62144723b416cb6b52989d18b3dec55b -->
<g id="edge13" class="edge">
<title>meshio_output_h5_efe999f964b5fb7603bd642abcd8905d-&gt;poisson_output_vtu_file_62144723b416cb6b52989d18b3dec55b</title>
<path fill="none" stroke="black" d="M2092.36,-292.79C1748.44,-280.25 1215.21,-260.81 863.69,-247.99"/>
<polygon fill="black" stroke="black" points="863.94,-244.5 853.82,-247.63 863.68,-251.49 863.94,-244.5"/>
</g>
<!-- meshio_output_h5_efe999f964b5fb7603bd642abcd8905d&#45;&gt;ndofs_c3811e53ce75b5460d97029d314439b5 -->
<g id="edge14" class="edge">
<title>meshio_output_h5_efe999f964b5fb7603bd642abcd8905d-&gt;ndofs_c3811e53ce75b5460d97029d314439b5</title>
<path fill="none" stroke="black" d="M2442.18,-287.7C2449.15,-279.56 2457.61,-269.69 2465.32,-260.7"/>
<polygon fill="black" stroke="black" points="2467.85,-263.12 2471.7,-253.25 2462.53,-258.57 2467.85,-263.12"/>
</g>
<!-- domain_size_f12a7f1986b9dd058dfc666dbe230b20 -->
<g id="node11" class="node">
<title>domain_size_f12a7f1986b9dd058dfc666dbe230b20</title>
<ellipse fill="none" stroke="black" cx="2680.35" cy="-450" rx="96.45" ry="18"/>
<text text-anchor="middle" x="2680.35" y="-445.32" font-family="Times,serif" font-size="14.00">domain_size=2.0</text>
</g>
<!-- domain_size_f12a7f1986b9dd058dfc666dbe230b20&#45;&gt;macros_tex_c5f640fc7b11414962941f82a40a8b04 -->
<g id="edge10" class="edge">
<title>domain_size_f12a7f1986b9dd058dfc666dbe230b20-&gt;macros_tex_c5f640fc7b11414962941f82a40a8b04</title>
<path fill="none" stroke="black" d="M2760.38,-439.63C2818.3,-431.24 2890,-416.99 2911.35,-396 2940.4,-367.43 2933.35,-347.75 2933.35,-307 2933.35,-307 2933.35,-307 2933.35,-233 2933.35,-165.79 2544.14,-125.9 2272.58,-106.25"/>
<polygon fill="black" stroke="black" points="2273.09,-102.78 2262.86,-105.55 2272.59,-109.76 2273.09,-102.78"/>
</g>
<!-- domain_size_f12a7f1986b9dd058dfc666dbe230b20&#45;&gt;gmsh_output_file_950b49ac6562a70cf11f14756f9831ea -->
<g id="edge11" class="edge">
<title>domain_size_f12a7f1986b9dd058dfc666dbe230b20-&gt;gmsh_output_file_950b49ac6562a70cf11f14756f9831ea</title>
<path fill="none" stroke="black" d="M2627.92,-434.5C2591.2,-424.33 2541.61,-410.62 2500.93,-399.36"/>
<polygon fill="black" stroke="black" points="2502.01,-396.03 2491.44,-396.73 2500.15,-402.77 2502.01,-396.03"/>
</g>
</g>
</svg>