<svg xmlns="http://www.w3.org/2000/svg" xmlns:xlink="http://www.w3.org/1999/xlink" width="1602pt" height="188pt" viewBox="0.00 0.00 1601.94 188.00">
<g id="graph0" class="graph" transform="scale(1 1) rotate(0) translate(4 184)">
<polygon fill="white" stroke="none" points="-4,4 -4,-184 1597.94,-184 1597.94,4 -4,4"/>
<!-- create_function_job_a30133cc7a07a2e64b505497250df84d -->
<g id="node1" class="node">
<title>create_function_job_a30133cc7a07a2e64b505497250df84d</title>
<ellipse fill="none" stroke="black" cx="794.6" cy="-18" rx="487.88" ry="18"/>
<text text-anchor="middle" x="794.6" y="-13.32" font-family="Times,serif" font-size="14.00">create_function_job=&lt;pyiron_base.project.delayed.DelayedObject object at 0x72b84012a420&gt;</text>
</g>
<!-- x_03371e8bbb210fff8c1beb07977c6fca -->
<g id="node2" class="node">
<title>x_03371e8bbb210fff8c1beb07977c6fca</title>
<ellipse fill="none" stroke="black" cx="391.6" cy="-90" rx="391.6" ry="18"/>
<text text-anchor="middle" x="391.6" y="-85.33" font-family="Times,serif" font-size="14.00">x=&lt;pyiron_base.project.delayed.DelayedObject object at 0x72b8402f8fb0&gt;</text>
</g>
<!-- x_03371e8bbb210fff8c1beb07977c6fca&#45;&gt;create_function_job_a30133cc7a07a2e64b505497250df84d -->
<g id="edge1" class="edge">
<title>x_03371e8bbb210fff8c1beb07977c6fca-&gt;create_function_job_a30133cc7a07a2e64b505497250df84d</title>
<path fill="none" stroke="black" d="M488.9,-72.1C547.99,-61.83 623.59,-48.7 684.82,-38.07"/>
<polygon fill="black" stroke="black" points="685.33,-41.53 694.58,-36.37 684.13,-34.64 685.33,-41.53"/>
</g>
<!-- x_1d847da32ecaabf6731c38f798c3d4ce -->
<g id="node3" class="node">
<title>x_1d847da32ecaabf6731c38f798c3d4ce</title>
<ellipse fill="none" stroke="black" cx="753.6" cy="-162" rx="31.74" ry="18"/>
<text text-anchor="middle" x="753.6" y="-157.32" font-family="Times,serif" font-size="14.00">x=1</text>
</g>
<!-- x_1d847da32ecaabf6731c38f798c3d4ce&#45;&gt;x_03371e8bbb210fff8c1beb07977c6fca -->
<g id="edge2" class="edge">
<title>x_1d847da32ecaabf6731c38f798c3d4ce-&gt;x_03371e8bbb210fff8c1beb07977c6fca</title>
<path fill="none" stroke="black" d="M723.67,-155.21C673.11,-145.44 568.66,-125.24 490.32,-110.09"/>
<polygon fill="black" stroke="black" points="491.42,-106.74 480.94,-108.27 490.09,-113.61 491.42,-106.74"/>
</g>
<!-- y_69de87ef8d8a066b8926b02e01e9f7f8 -->
<g id="node4" class="node">
<title>y_69de87ef8d8a066b8926b02e01e9f7f8</title>
<ellipse fill="none" stroke="black" cx="1197.6" cy="-90" rx="396.34" ry="18"/>
<text text-anchor="middle" x="1197.6" y="-85.33" font-family="Times,serif" font-size="14.00">y=&lt;pyiron_base.project.delayed.DelayedObject object at 0x72b84012a150&gt;</text>
</g>
<!-- x_1d847da32ecaabf6731c38f798c3d4ce&#45;&gt;y_69de87ef8d8a066b8926b02e01e9f7f8 -->
<g id="edge3" class="edge">
<title>x_1d847da32ecaabf6731c38f798c3d4ce-&gt;y_69de87ef8d8a066b8926b02e01e9f7f8</title>
<path fill="none" stroke="black" d="M784.12,-156.19C844.11,-146.73 980.23,-125.27 1079.97,-109.55"/>
<polygon fill="black" stroke="black" points="1080.5,-113 1089.84,-107.99 1079.41,-106.09 1080.5,-113"/>
</g>
<!-- y_69de87ef8d8a066b8926b02e01e9f7f8&#45;&gt;create_function_job_a30133cc7a07a2e64b505497250df84d -->
<g id="edge6" class="edge">
<title>y_69de87ef8d8a066b8926b02e01e9f7f8-&gt;create_function_job_a30133cc7a07a2e64b505497250df84d</title>
<path fill="none" stroke="black" d="M1100.3,-72.1C1041.21,-61.83 965.61,-48.7 904.39,-38.07"/>
<polygon fill="black" stroke="black" points="905.07,-34.64 894.62,-36.37 903.87,-41.53 905.07,-34.64"/>
</g>
<!-- y_a9ec4f5f33f0d64e74ed5d9900bceac6 -->
<g id="node5" class="node">
<title>y_a9ec4f5f33f0d64e74ed5d9900bceac6</title>
<ellipse fill="none" stroke="black" cx="1015.6" cy="-162" rx="31.74" ry="18"/>
<text text-anchor="middle" x="1015.6" y="-157.32" font-family="Times,serif" font-size="14.00">y=2</text>
</g>
<!-- y_a9ec4f5f33f0d64e74ed5d9900bceac6&#45;&gt;x_03371e8bbb210fff8c1beb07977c6fca -->
<g id="edge4" class="edge">
<title>y_a9ec4f5f33f0d64e74ed5d9900bceac6-&gt;x_03371e8bbb210fff8c1beb07977c6fca</title>
<path fill="none" stroke="black" d="M984.66,-157.53C906.16,-148.72 695.05,-125.04 547.18,-108.45"/>
<polygon fill="black" stroke="black" points="547.59,-104.98 537.26,-107.34 546.81,-111.93 547.59,-104.98"/>
</g>
<!-- y_a9ec4f5f33f0d64e74ed5d9900bceac6&#45;&gt;y_69de87ef8d8a066b8926b02e01e9f7f8 -->
<g id="edge5" class="edge">
<title>y_a9ec4f5f33f0d64e74ed5d9900bceac6-&gt;y_69de87ef8d8a066b8926b02e01e9f7f8</title>
<path fill="none" stroke="black" d="M1041.29,-151.12C1067.37,-141.09 1108.59,-125.24 1142.15,-112.33"/>
<polygon fill="black" stroke="black" points="1143.25,-115.65 1151.33,-108.8 1140.74,-109.12 1143.25,-115.65"/>
</g>
</g>
</svg>