<svg xmlns="http://www.w3.org/2000/svg" xmlns:xlink="http://www.w3.org/1999/xlink" width="1582pt" height="188pt" viewBox="0.00 0.00 1581.94 188.00">
<g id="graph0" class="graph" transform="scale(1 1) rotate(0) translate(4 184)">
<polygon fill="white" stroke="none" points="-4,4 -4,-184 1577.94,-184 1577.94,4 -4,4"/>
<!-- create_function_job_65c7f45cff3952fa90203cdbc4f68274 -->
<g id="node1" class="node">
<title>create_function_job_65c7f45cff3952fa90203cdbc4f68274</title>
<ellipse fill="none" stroke="black" cx="786.97" cy="-18" rx="479.46" ry="18"/>
<text text-anchor="middle" x="786.97" y="-13.32" font-family="Times,serif" font-size="14.00">create_function_job=&lt;pyiron_base.project.delayed.DelayedObject object at 0x7f47fd2f3c50&gt;</text>
</g>
<!-- x_497c5ebc48033cf60f366c0fd3763723 -->
<g id="node2" class="node">
<title>x_497c5ebc48033cf60f366c0fd3763723</title>
<ellipse fill="none" stroke="black" cx="388.97" cy="-90" rx="388.97" ry="18"/>
<text text-anchor="middle" x="388.97" y="-85.33" font-family="Times,serif" font-size="14.00">x=&lt;pyiron_base.project.delayed.DelayedObject object at 0x7f47fd2f3980&gt;</text>
</g>
<!-- x_497c5ebc48033cf60f366c0fd3763723&#45;&gt;create_function_job_65c7f45cff3952fa90203cdbc4f68274 -->
<g id="edge1" class="edge">
<title>x_497c5ebc48033cf60f366c0fd3763723-&gt;create_function_job_65c7f45cff3952fa90203cdbc4f68274</title>
<path fill="none" stroke="black" d="M485.06,-72.1C543.42,-61.83 618.08,-48.7 678.55,-38.07"/>
<polygon fill="black" stroke="black" points="678.93,-41.56 688.18,-36.38 677.72,-34.66 678.93,-41.56"/>
</g>
<!-- x_1d847da32ecaabf6731c38f798c3d4ce -->
<g id="node3" class="node">
<title>x_1d847da32ecaabf6731c38f798c3d4ce</title>
<ellipse fill="none" stroke="black" cx="745.97" cy="-162" rx="31.74" ry="18"/>
<text text-anchor="middle" x="745.97" y="-157.32" font-family="Times,serif" font-size="14.00">x=1</text>
</g>
<!-- x_1d847da32ecaabf6731c38f798c3d4ce&#45;&gt;x_497c5ebc48033cf60f366c0fd3763723 -->
<g id="edge2" class="edge">
<title>x_1d847da32ecaabf6731c38f798c3d4ce-&gt;x_497c5ebc48033cf60f366c0fd3763723</title>
<path fill="none" stroke="black" d="M716.15,-155.15C666.31,-145.38 564,-125.32 486.97,-110.22"/>
<polygon fill="black" stroke="black" points="487.78,-106.81 477.29,-108.32 486.43,-113.68 487.78,-106.81"/>
</g>
<!-- y_2aeb6a5422726bc4dfbbbadc099f1760 -->
<g id="node4" class="node">
<title>y_2aeb6a5422726bc4dfbbbadc099f1760</title>
<ellipse fill="none" stroke="black" cx="1184.97" cy="-90" rx="388.97" ry="18"/>
<text text-anchor="middle" x="1184.97" y="-85.33" font-family="Times,serif" font-size="14.00">y=&lt;pyiron_base.project.delayed.DelayedObject object at 0x7f47fd2f3950&gt;</text>
</g>
<!-- x_1d847da32ecaabf6731c38f798c3d4ce&#45;&gt;y_2aeb6a5422726bc4dfbbbadc099f1760 -->
<g id="edge3" class="edge">
<title>x_1d847da32ecaabf6731c38f798c3d4ce-&gt;y_2aeb6a5422726bc4dfbbbadc099f1760</title>
<path fill="none" stroke="black" d="M776.49,-156.13C835.94,-146.65 970.03,-125.27 1068.43,-109.58"/>
<polygon fill="black" stroke="black" points="1068.82,-113.06 1078.15,-108.03 1067.72,-106.15 1068.82,-113.06"/>
</g>
<!-- y_2aeb6a5422726bc4dfbbbadc099f1760&#45;&gt;create_function_job_65c7f45cff3952fa90203cdbc4f68274 -->
<g id="edge6" class="edge">
<title>y_2aeb6a5422726bc4dfbbbadc099f1760-&gt;create_function_job_65c7f45cff3952fa90203cdbc4f68274</title>
<path fill="none" stroke="black" d="M1088.88,-72.1C1030.52,-61.83 955.86,-48.7 895.39,-38.07"/>
<polygon fill="black" stroke="black" points="896.22,-34.66 885.76,-36.38 895.01,-41.56 896.22,-34.66"/>
</g>
<!-- y_a9ec4f5f33f0d64e74ed5d9900bceac6 -->
<g id="node5" class="node">
<title>y_a9ec4f5f33f0d64e74ed5d9900bceac6</title>
<ellipse fill="none" stroke="black" cx="1005.97" cy="-162" rx="31.74" ry="18"/>
<text text-anchor="middle" x="1005.97" y="-157.32" font-family="Times,serif" font-size="14.00">y=2</text>
</g>
<!-- y_a9ec4f5f33f0d64e74ed5d9900bceac6&#45;&gt;x_497c5ebc48033cf60f366c0fd3763723 -->
<g id="edge4" class="edge">
<title>y_a9ec4f5f33f0d64e74ed5d9900bceac6-&gt;x_497c5ebc48033cf60f366c0fd3763723</title>
<path fill="none" stroke="black" d="M974.95,-157.48C897.01,-148.64 688.79,-125.01 542.84,-108.46"/>
<polygon fill="black" stroke="black" points="543.4,-105 533.07,-107.35 542.61,-111.95 543.4,-105"/>
</g>
<!-- y_a9ec4f5f33f0d64e74ed5d9900bceac6&#45;&gt;y_2aeb6a5422726bc4dfbbbadc099f1760 -->
<g id="edge5" class="edge">
<title>y_a9ec4f5f33f0d64e74ed5d9900bceac6-&gt;y_2aeb6a5422726bc4dfbbbadc099f1760</title>
<path fill="none" stroke="black" d="M1031.62,-150.97C1057.26,-140.94 1097.5,-125.21 1130.33,-112.37"/>
<polygon fill="black" stroke="black" points="1131.25,-115.77 1139.29,-108.86 1128.7,-109.25 1131.25,-115.77"/>
</g>
</g>
</svg>