<svg xmlns="http://www.w3.org/2000/svg" xmlns:xlink="http://www.w3.org/1999/xlink" width="1604pt" height="188pt" viewBox="0.00 0.00 1603.99 188.00">
<g id="graph0" class="graph" transform="scale(1 1) rotate(0) translate(4 184)">
<polygon fill="white" stroke="none" points="-4,4 -4,-184 1599.99,-184 1599.99,4 -4,4"/>
<!-- create_function_job_92b349b68e1d28facd2c0cc67fea0894 -->
<g id="node1" class="node">
<title>create_function_job_92b349b68e1d28facd2c0cc67fea0894</title>
<ellipse fill="none" stroke="black" cx="797.76" cy="-18" rx="487.35" ry="18"/>
<text text-anchor="middle" x="797.76" y="-13.32" font-family="Times,serif" font-size="14.00">create_function_job=&lt;pyiron_base.project.delayed.DelayedObject object at 0x7407d4c7d100&gt;</text>
</g>
<!-- x_c8e04d7c4ce41e51517caabdd70267c4 -->
<g id="node2" class="node">
<title>x_c8e04d7c4ce41e51517caabdd70267c4</title>
<ellipse fill="none" stroke="black" cx="394.76" cy="-90" rx="394.76" ry="18"/>
<text text-anchor="middle" x="394.76" y="-85.33" font-family="Times,serif" font-size="14.00">x=&lt;pyiron_base.project.delayed.DelayedObject object at 0x7407ca519a90&gt;</text>
</g>
<!-- x_c8e04d7c4ce41e51517caabdd70267c4&#45;&gt;create_function_job_92b349b68e1d28facd2c0cc67fea0894 -->
<g id="edge1" class="edge">
<title>x_c8e04d7c4ce41e51517caabdd70267c4-&gt;create_function_job_92b349b68e1d28facd2c0cc67fea0894</title>
<path fill="none" stroke="black" d="M492.06,-72.1C551.15,-61.83 626.74,-48.7 687.97,-38.07"/>
<polygon fill="black" stroke="black" points="688.49,-41.53 697.74,-36.37 687.29,-34.64 688.49,-41.53"/>
</g>
<!-- x_974924ff998969b91bfc8b2db5f854a1 -->
<g id="node3" class="node">
<title>x_974924ff998969b91bfc8b2db5f854a1</title>
<ellipse fill="none" stroke="black" cx="747.76" cy="-162" rx="41.21" ry="18"/>
<text text-anchor="middle" x="747.76" y="-157.32" font-family="Times,serif" font-size="14.00">x=1.0</text>
</g>
<!-- x_974924ff998969b91bfc8b2db5f854a1&#45;&gt;x_c8e04d7c4ce41e51517caabdd70267c4 -->
<g id="edge2" class="edge">
<title>x_974924ff998969b91bfc8b2db5f854a1-&gt;x_c8e04d7c4ce41e51517caabdd70267c4</title>
<path fill="none" stroke="black" d="M710.65,-153.64C659.13,-143.42 564.1,-124.58 491.68,-110.22"/>
<polygon fill="black" stroke="black" points="492.69,-106.85 482.2,-108.34 491.33,-113.72 492.69,-106.85"/>
</g>
<!-- y_6c83c1caef87634071eb9102b68e73cf -->
<g id="node4" class="node">
<title>y_6c83c1caef87634071eb9102b68e73cf</title>
<ellipse fill="none" stroke="black" cx="1201.76" cy="-90" rx="394.23" ry="18"/>
<text text-anchor="middle" x="1201.76" y="-85.33" font-family="Times,serif" font-size="14.00">y=&lt;pyiron_base.project.delayed.DelayedObject object at 0x7407bf835610&gt;</text>
</g>
<!-- x_974924ff998969b91bfc8b2db5f854a1&#45;&gt;y_6c83c1caef87634071eb9102b68e73cf -->
<g id="edge3" class="edge">
<title>x_974924ff998969b91bfc8b2db5f854a1-&gt;y_6c83c1caef87634071eb9102b68e73cf</title>
<path fill="none" stroke="black" d="M786.07,-155.09C850.61,-145.14 983.54,-124.65 1081.79,-109.5"/>
<polygon fill="black" stroke="black" points="1082.14,-112.99 1091.49,-108 1081.07,-106.07 1082.14,-112.99"/>
</g>
<!-- y_6c83c1caef87634071eb9102b68e73cf&#45;&gt;create_function_job_92b349b68e1d28facd2c0cc67fea0894 -->
<g id="edge6" class="edge">
<title>y_6c83c1caef87634071eb9102b68e73cf-&gt;create_function_job_92b349b68e1d28facd2c0cc67fea0894</title>
<path fill="none" stroke="black" d="M1104.22,-72.1C1044.98,-61.83 969.2,-48.7 907.81,-38.07"/>
<polygon fill="black" stroke="black" points="908.47,-34.63 898.02,-36.37 907.27,-41.53 908.47,-34.63"/>
</g>
<!-- y_f12a7f1986b9dd058dfc666dbe230b20 -->
<g id="node5" class="node">
<title>y_f12a7f1986b9dd058dfc666dbe230b20</title>
<ellipse fill="none" stroke="black" cx="1024.76" cy="-162" rx="41.21" ry="18"/>
<text text-anchor="middle" x="1024.76" y="-157.32" font-family="Times,serif" font-size="14.00">y=2.0</text>
</g>
<!-- y_f12a7f1986b9dd058dfc666dbe230b20&#45;&gt;x_c8e04d7c4ce41e51517caabdd70267c4 -->
<g id="edge4" class="edge">
<title>y_f12a7f1986b9dd058dfc666dbe230b20-&gt;x_c8e04d7c4ce41e51517caabdd70267c4</title>
<path fill="none" stroke="black" d="M985.35,-156.62C900.35,-147.18 695.82,-124.45 551.36,-108.4"/>
<polygon fill="black" stroke="black" points="552.03,-104.95 541.7,-107.33 551.25,-111.91 552.03,-104.95"/>
</g>
<!-- y_f12a7f1986b9dd058dfc666dbe230b20&#45;&gt;y_6c83c1caef87634071eb9102b68e73cf -->
<g id="edge5" class="edge">
<title>y_f12a7f1986b9dd058dfc666dbe230b20-&gt;y_6c83c1caef87634071eb9102b68e73cf</title>
<path fill="none" stroke="black" d="M1054.38,-149.28C1079.74,-139.26 1116.89,-124.56 1147.55,-112.44"/>
<polygon fill="black" stroke="black" points="1148.67,-115.76 1156.68,-108.83 1146.1,-109.25 1148.67,-115.76"/>
</g>
</g>
</svg>