<svg xmlns="http://www.w3.org/2000/svg" xmlns:xlink="http://www.w3.org/1999/xlink" width="1590pt" height="188pt" viewBox="0.00 0.00 1590.15 188.00">
<g id="graph0" class="graph" transform="scale(1 1) rotate(0) translate(4 184)">
<polygon fill="white" stroke="none" points="-4,4 -4,-184 1586.15,-184 1586.15,4 -4,4"/>
<!-- create_function_job_49bb83dafd980a4392dc5ef2b4889708 -->
<g id="node1" class="node">
<title>create_function_job_49bb83dafd980a4392dc5ef2b4889708</title>
<ellipse fill="none" stroke="black" cx="791.08" cy="-18" rx="482.62" ry="18"/>
<text text-anchor="middle" x="791.08" y="-13.32" font-family="Times,serif" font-size="14.00">create_function_job=&lt;pyiron_base.project.delayed.DelayedObject object at 0x7f7bf3a1b290&gt;</text>
</g>
<!-- x_1055d41eef3ab4f2f8b82d781b5af899 -->
<g id="node2" class="node">
<title>x_1055d41eef3ab4f2f8b82d781b5af899</title>
<ellipse fill="none" stroke="black" cx="391.08" cy="-90" rx="391.08" ry="18"/>
<text text-anchor="middle" x="391.08" y="-85.33" font-family="Times,serif" font-size="14.00">x=&lt;pyiron_base.project.delayed.DelayedObject object at 0x7f7bf3a1b230&gt;</text>
</g>
<!-- x_1055d41eef3ab4f2f8b82d781b5af899&#45;&gt;create_function_job_49bb83dafd980a4392dc5ef2b4889708 -->
<g id="edge1" class="edge">
<title>x_1055d41eef3ab4f2f8b82d781b5af899-&gt;create_function_job_49bb83dafd980a4392dc5ef2b4889708</title>
<path fill="none" stroke="black" d="M487.65,-72.1C546.3,-61.83 621.33,-48.7 682.11,-38.07"/>
<polygon fill="black" stroke="black" points="682.54,-41.55 691.79,-36.37 681.34,-34.65 682.54,-41.55"/>
</g>
<!-- x_974924ff998969b91bfc8b2db5f854a1 -->
<g id="node3" class="node">
<title>x_974924ff998969b91bfc8b2db5f854a1</title>
<ellipse fill="none" stroke="black" cx="566.08" cy="-162" rx="41.21" ry="18"/>
<text text-anchor="middle" x="566.08" y="-157.32" font-family="Times,serif" font-size="14.00">x=1.0</text>
</g>
<!-- x_974924ff998969b91bfc8b2db5f854a1&#45;&gt;x_1055d41eef3ab4f2f8b82d781b5af899 -->
<g id="edge2" class="edge">
<title>x_974924ff998969b91bfc8b2db5f854a1-&gt;x_1055d41eef3ab4f2f8b82d781b5af899</title>
<path fill="none" stroke="black" d="M536.39,-149.13C511.35,-139.11 474.89,-124.53 444.75,-112.47"/>
<polygon fill="black" stroke="black" points="446.37,-109.35 435.79,-108.89 443.77,-115.85 446.37,-109.35"/>
</g>
<!-- y_051e02d66e881687a217d6dc1733b4f6 -->
<g id="node4" class="node">
<title>y_051e02d66e881687a217d6dc1733b4f6</title>
<ellipse fill="none" stroke="black" cx="1191.08" cy="-90" rx="391.08" ry="18"/>
<text text-anchor="middle" x="1191.08" y="-85.33" font-family="Times,serif" font-size="14.00">y=&lt;pyiron_base.project.delayed.DelayedObject object at 0x7f7bf3a1b200&gt;</text>
</g>
<!-- x_974924ff998969b91bfc8b2db5f854a1&#45;&gt;y_051e02d66e881687a217d6dc1733b4f6 -->
<g id="edge3" class="edge">
<title>x_974924ff998969b91bfc8b2db5f854a1-&gt;y_051e02d66e881687a217d6dc1733b4f6</title>
<path fill="none" stroke="black" d="M605.65,-156.57C690.25,-147.09 892.65,-124.42 1035.69,-108.4"/>
<polygon fill="black" stroke="black" points="1035.69,-111.92 1045.24,-107.33 1034.92,-104.97 1035.69,-111.92"/>
</g>
<!-- y_051e02d66e881687a217d6dc1733b4f6&#45;&gt;create_function_job_49bb83dafd980a4392dc5ef2b4889708 -->
<g id="edge6" class="edge">
<title>y_051e02d66e881687a217d6dc1733b4f6-&gt;create_function_job_49bb83dafd980a4392dc5ef2b4889708</title>
<path fill="none" stroke="black" d="M1094.5,-72.1C1035.85,-61.83 960.82,-48.7 900.04,-38.07"/>
<polygon fill="black" stroke="black" points="900.81,-34.65 890.36,-36.37 899.61,-41.55 900.81,-34.65"/>
</g>
<!-- y_f12a7f1986b9dd058dfc666dbe230b20 -->
<g id="node5" class="node">
<title>y_f12a7f1986b9dd058dfc666dbe230b20</title>
<ellipse fill="none" stroke="black" cx="1016.08" cy="-162" rx="41.21" ry="18"/>
<text text-anchor="middle" x="1016.08" y="-157.32" font-family="Times,serif" font-size="14.00">y=2.0</text>
</g>
<!-- y_f12a7f1986b9dd058dfc666dbe230b20&#45;&gt;x_1055d41eef3ab4f2f8b82d781b5af899 -->
<g id="edge4" class="edge">
<title>y_f12a7f1986b9dd058dfc666dbe230b20-&gt;x_1055d41eef3ab4f2f8b82d781b5af899</title>
<path fill="none" stroke="black" d="M976.5,-156.57C891.9,-147.09 689.5,-124.42 546.46,-108.4"/>
<polygon fill="black" stroke="black" points="547.23,-104.97 536.91,-107.33 546.46,-111.92 547.23,-104.97"/>
</g>
<!-- y_f12a7f1986b9dd058dfc666dbe230b20&#45;&gt;y_051e02d66e881687a217d6dc1733b4f6 -->
<g id="edge5" class="edge">
<title>y_f12a7f1986b9dd058dfc666dbe230b20-&gt;y_051e02d66e881687a217d6dc1733b4f6</title>
<path fill="none" stroke="black" d="M1045.76,-149.13C1070.8,-139.11 1107.26,-124.53 1137.4,-112.47"/>
<polygon fill="black" stroke="black" points="1138.38,-115.85 1146.36,-108.89 1135.78,-109.35 1138.38,-115.85"/>
</g>
</g>
</svg>