<svg xmlns="http://www.w3.org/2000/svg" xmlns:xlink="http://www.w3.org/1999/xlink" width="1794pt" height="188pt" viewBox="0.00 0.00 1793.78 188.00">
<g id="graph0" class="graph" transform="scale(1 1) rotate(0) translate(4 184)">
<polygon fill="white" stroke="none" points="-4,4 -4,-184 1789.78,-184 1789.78,4 -4,4"/>
<!-- create_function_job_64c8e93072cd8858b5acc14f0b6a1345 -->
<g id="node1" class="node">
<title>create_function_job_64c8e93072cd8858b5acc14f0b6a1345</title>
<ellipse fill="none" stroke="black" cx="893.9" cy="-18" rx="359.46" ry="18"/>
<text text-anchor="middle" x="893.9" y="-12.95" font-family="Times,serif" font-size="14.00">create_function_job=&lt;pyiron_base.project.delayed.DelayedObject object at 0x7f6346efa3f0&gt;</text>
</g>
<!-- x_66de6656099aebbaa5cdc840b1bf9733 -->
<g id="node2" class="node">
<title>x_66de6656099aebbaa5cdc840b1bf9733</title>
<ellipse fill="none" stroke="black" cx="291.9" cy="-90" rx="291.9" ry="18"/>
<text text-anchor="middle" x="291.9" y="-84.95" font-family="Times,serif" font-size="14.00">x=&lt;pyiron_base.project.delayed.DelayedObject object at 0x7f6346efa030&gt;</text>
</g>
<!-- x_66de6656099aebbaa5cdc840b1bf9733&#45;&gt;create_function_job_64c8e93072cd8858b5acc14f0b6a1345 -->
<g id="edge1" class="edge">
<title>x_66de6656099aebbaa5cdc840b1bf9733-&gt;create_function_job_64c8e93072cd8858b5acc14f0b6a1345</title>
<path fill="none" stroke="black" d="M424.76,-73.55C519.28,-62.56 646.37,-47.78 744.43,-36.38"/>
<polygon fill="black" stroke="black" points="744.6,-39.88 754.13,-35.25 743.8,-32.93 744.6,-39.88"/>
</g>
<!-- x_1d847da32ecaabf6731c38f798c3d4ce -->
<g id="node3" class="node">
<title>x_1d847da32ecaabf6731c38f798c3d4ce</title>
<ellipse fill="none" stroke="black" cx="857.9" cy="-162" rx="27" ry="18"/>
<text text-anchor="middle" x="857.9" y="-156.95" font-family="Times,serif" font-size="14.00">x=1</text>
</g>
<!-- x_1d847da32ecaabf6731c38f798c3d4ce&#45;&gt;x_66de6656099aebbaa5cdc840b1bf9733 -->
<g id="edge2" class="edge">
<title>x_1d847da32ecaabf6731c38f798c3d4ce-&gt;x_66de6656099aebbaa5cdc840b1bf9733</title>
<path fill="none" stroke="black" d="M831.36,-157.72C760.84,-149 564.94,-124.77 429.7,-108.04"/>
<polygon fill="black" stroke="black" points="430.3,-104.59 419.95,-106.84 429.44,-111.54 430.3,-104.59"/>
</g>
<!-- y_12cc51ee4250f1b82f9bc22e047ad944 -->
<g id="node4" class="node">
<title>y_12cc51ee4250f1b82f9bc22e047ad944</title>
<ellipse fill="none" stroke="black" cx="893.9" cy="-90" rx="291.9" ry="18"/>
<text text-anchor="middle" x="893.9" y="-84.95" font-family="Times,serif" font-size="14.00">y=&lt;pyiron_base.project.delayed.DelayedObject object at 0x7f6346efa000&gt;</text>
</g>
<!-- x_1d847da32ecaabf6731c38f798c3d4ce&#45;&gt;y_12cc51ee4250f1b82f9bc22e047ad944 -->
<g id="edge3" class="edge">
<title>x_1d847da32ecaabf6731c38f798c3d4ce-&gt;y_12cc51ee4250f1b82f9bc22e047ad944</title>
<path fill="none" stroke="black" d="M866.25,-144.76C870.31,-136.87 875.3,-127.16 879.92,-118.18"/>
<polygon fill="black" stroke="black" points="882.94,-119.96 884.4,-109.47 876.72,-116.76 882.94,-119.96"/>
</g>
<!-- z_91b561a78a57aad1d943f498a3c737ed -->
<g id="node5" class="node">
<title>z_91b561a78a57aad1d943f498a3c737ed</title>
<ellipse fill="none" stroke="black" cx="1494.9" cy="-90" rx="290.88" ry="18"/>
<text text-anchor="middle" x="1494.9" y="-84.95" font-family="Times,serif" font-size="14.00">z=&lt;pyiron_base.project.delayed.DelayedObject object at 0x7f6346ef9ee0&gt;</text>
</g>
<!-- x_1d847da32ecaabf6731c38f798c3d4ce&#45;&gt;z_91b561a78a57aad1d943f498a3c737ed -->
<g id="edge4" class="edge">
<title>x_1d847da32ecaabf6731c38f798c3d4ce-&gt;z_91b561a78a57aad1d943f498a3c737ed</title>
<path fill="none" stroke="black" d="M878.36,-149.82C883.32,-147.54 888.7,-145.41 893.9,-144 932.28,-133.6 1136.6,-116.89 1296.49,-105.01"/>
<polygon fill="black" stroke="black" points="1296.7,-108.51 1306.41,-104.28 1296.18,-101.53 1296.7,-108.51"/>
</g>
<!-- y_12cc51ee4250f1b82f9bc22e047ad944&#45;&gt;create_function_job_64c8e93072cd8858b5acc14f0b6a1345 -->
<g id="edge8" class="edge">
<title>y_12cc51ee4250f1b82f9bc22e047ad944-&gt;create_function_job_64c8e93072cd8858b5acc14f0b6a1345</title>
<path fill="none" stroke="black" d="M893.9,-71.7C893.9,-64.41 893.9,-55.73 893.9,-47.54"/>
<polygon fill="black" stroke="black" points="897.4,-47.62 893.9,-37.62 890.4,-47.62 897.4,-47.62"/>
</g>
<!-- z_91b561a78a57aad1d943f498a3c737ed&#45;&gt;create_function_job_64c8e93072cd8858b5acc14f0b6a1345 -->
<g id="edge9" class="edge">
<title>z_91b561a78a57aad1d943f498a3c737ed-&gt;create_function_job_64c8e93072cd8858b5acc14f0b6a1345</title>
<path fill="none" stroke="black" d="M1362.27,-73.55C1267.9,-62.56 1141.02,-47.78 1043.12,-36.38"/>
<polygon fill="black" stroke="black" points="1043.78,-32.93 1033.44,-35.25 1042.97,-39.89 1043.78,-32.93"/>
</g>
<!-- y_a9ec4f5f33f0d64e74ed5d9900bceac6 -->
<g id="node6" class="node">
<title>y_a9ec4f5f33f0d64e74ed5d9900bceac6</title>
<ellipse fill="none" stroke="black" cx="929.9" cy="-162" rx="27" ry="18"/>
<text text-anchor="middle" x="929.9" y="-156.95" font-family="Times,serif" font-size="14.00">y=2</text>
</g>
<!-- y_a9ec4f5f33f0d64e74ed5d9900bceac6&#45;&gt;x_66de6656099aebbaa5cdc840b1bf9733 -->
<g id="edge5" class="edge">
<title>y_a9ec4f5f33f0d64e74ed5d9900bceac6-&gt;x_66de6656099aebbaa5cdc840b1bf9733</title>
<path fill="none" stroke="black" d="M909.44,-149.82C904.48,-147.54 899.1,-145.41 893.9,-144 855.46,-133.59 650.8,-116.88 490.64,-105.01"/>
<polygon fill="black" stroke="black" points="490.93,-101.52 480.7,-104.27 490.41,-108.5 490.93,-101.52"/>
</g>
<!-- y_a9ec4f5f33f0d64e74ed5d9900bceac6&#45;&gt;y_12cc51ee4250f1b82f9bc22e047ad944 -->
<g id="edge6" class="edge">
<title>y_a9ec4f5f33f0d64e74ed5d9900bceac6-&gt;y_12cc51ee4250f1b82f9bc22e047ad944</title>
<path fill="none" stroke="black" d="M921.55,-144.76C917.49,-136.87 912.5,-127.16 907.88,-118.18"/>
<polygon fill="black" stroke="black" points="911.09,-116.76 903.4,-109.47 904.86,-119.96 911.09,-116.76"/>
</g>
<!-- y_a9ec4f5f33f0d64e74ed5d9900bceac6&#45;&gt;z_91b561a78a57aad1d943f498a3c737ed -->
<g id="edge7" class="edge">
<title>y_a9ec4f5f33f0d64e74ed5d9900bceac6-&gt;z_91b561a78a57aad1d943f498a3c737ed</title>
<path fill="none" stroke="black" d="M956.39,-157.72C1026.79,-149 1222.35,-124.77 1357.34,-108.04"/>
<polygon fill="black" stroke="black" points="1357.58,-111.54 1367.08,-106.84 1356.72,-104.59 1357.58,-111.54"/>
</g>
</g>
</svg>