<svg xmlns="http://www.w3.org/2000/svg" xmlns:xlink="http://www.w3.org/1999/xlink" width="1608pt" height="188pt" viewBox="0.00 0.00 1608.09 188.00">
<g id="graph0" class="graph" transform="scale(1 1) rotate(0) translate(4 184)">
<polygon fill="white" stroke="none" points="-4,4 -4,-184 1604.09,-184 1604.09,4 -4,4"/>
<!-- create_function_job_c942e1812492f8750b853ea68445d43f -->
<g id="node1" class="node">
<title>create_function_job_c942e1812492f8750b853ea68445d43f</title>
<ellipse fill="none" stroke="black" cx="799.28" cy="-18" rx="485.77" ry="18"/>
<text text-anchor="middle" x="799.28" y="-13.32" font-family="Times,serif" font-size="14.00">create_function_job=&lt;pyiron_base.project.delayed.DelayedObject object at 0x719ee1a6ee70&gt;</text>
</g>
<!-- x_5a41f1a01c281872a92d14b5bf806b3c -->
<g id="node2" class="node">
<title>x_5a41f1a01c281872a92d14b5bf806b3c</title>
<ellipse fill="none" stroke="black" cx="395.28" cy="-90" rx="395.28" ry="18"/>
<text text-anchor="middle" x="395.28" y="-85.33" font-family="Times,serif" font-size="14.00">x=&lt;pyiron_base.project.delayed.DelayedObject object at 0x719ee39de8d0&gt;</text>
</g>
<!-- x_5a41f1a01c281872a92d14b5bf806b3c&#45;&gt;create_function_job_c942e1812492f8750b853ea68445d43f -->
<g id="edge1" class="edge">
<title>x_5a41f1a01c281872a92d14b5bf806b3c-&gt;create_function_job_c942e1812492f8750b853ea68445d43f</title>
<path fill="none" stroke="black" d="M492.82,-72.1C552.07,-61.83 627.85,-48.7 689.23,-38.07"/>
<polygon fill="black" stroke="black" points="689.77,-41.53 699.02,-36.37 688.57,-34.63 689.77,-41.53"/>
</g>
<!-- x_1d847da32ecaabf6731c38f798c3d4ce -->
<g id="node3" class="node">
<title>x_1d847da32ecaabf6731c38f798c3d4ce</title>
<ellipse fill="none" stroke="black" cx="577.28" cy="-162" rx="31.74" ry="18"/>
<text text-anchor="middle" x="577.28" y="-157.32" font-family="Times,serif" font-size="14.00">x=1</text>
</g>
<!-- x_1d847da32ecaabf6731c38f798c3d4ce&#45;&gt;x_5a41f1a01c281872a92d14b5bf806b3c -->
<g id="edge2" class="edge">
<title>x_1d847da32ecaabf6731c38f798c3d4ce-&gt;x_5a41f1a01c281872a92d14b5bf806b3c</title>
<path fill="none" stroke="black" d="M551.59,-151.12C525.51,-141.09 484.3,-125.24 450.74,-112.33"/>
<polygon fill="black" stroke="black" points="452.14,-109.12 441.55,-108.8 449.63,-115.65 452.14,-109.12"/>
</g>
<!-- y_2f79d27085d95c7ddb45d9566ae33dfb -->
<g id="node4" class="node">
<title>y_2f79d27085d95c7ddb45d9566ae33dfb</title>
<ellipse fill="none" stroke="black" cx="1204.28" cy="-90" rx="395.81" ry="18"/>
<text text-anchor="middle" x="1204.28" y="-85.33" font-family="Times,serif" font-size="14.00">y=&lt;pyiron_base.project.delayed.DelayedObject object at 0x719ee1d5d940&gt;</text>
</g>
<!-- x_1d847da32ecaabf6731c38f798c3d4ce&#45;&gt;y_2f79d27085d95c7ddb45d9566ae33dfb -->
<g id="edge3" class="edge">
<title>x_1d847da32ecaabf6731c38f798c3d4ce-&gt;y_2f79d27085d95c7ddb45d9566ae33dfb</title>
<path fill="none" stroke="black" d="M608.38,-157.53C687.27,-148.72 899.47,-125.03 1048.06,-108.44"/>
<polygon fill="black" stroke="black" points="1048.04,-111.97 1057.59,-107.38 1047.26,-105.01 1048.04,-111.97"/>
</g>
<!-- y_2f79d27085d95c7ddb45d9566ae33dfb&#45;&gt;create_function_job_c942e1812492f8750b853ea68445d43f -->
<g id="edge6" class="edge">
<title>y_2f79d27085d95c7ddb45d9566ae33dfb-&gt;create_function_job_c942e1812492f8750b853ea68445d43f</title>
<path fill="none" stroke="black" d="M1106.5,-72.1C1047,-61.82 970.86,-48.66 909.27,-38.01"/>
<polygon fill="black" stroke="black" points="909.89,-34.56 899.44,-36.31 908.7,-41.46 909.89,-34.56"/>
</g>
<!-- y_a9ec4f5f33f0d64e74ed5d9900bceac6 -->
<g id="node5" class="node">
<title>y_a9ec4f5f33f0d64e74ed5d9900bceac6</title>
<ellipse fill="none" stroke="black" cx="1022.28" cy="-162" rx="31.74" ry="18"/>
<text text-anchor="middle" x="1022.28" y="-157.32" font-family="Times,serif" font-size="14.00">y=2</text>
</g>
<!-- y_a9ec4f5f33f0d64e74ed5d9900bceac6&#45;&gt;x_5a41f1a01c281872a92d14b5bf806b3c -->
<g id="edge4" class="edge">
<title>y_a9ec4f5f33f0d64e74ed5d9900bceac6-&gt;x_5a41f1a01c281872a92d14b5bf806b3c</title>
<path fill="none" stroke="black" d="M991.19,-157.53C912.3,-148.72 700.09,-125.03 551.51,-108.44"/>
<polygon fill="black" stroke="black" points="552.3,-105.01 541.98,-107.38 551.53,-111.97 552.3,-105.01"/>
</g>
<!-- y_a9ec4f5f33f0d64e74ed5d9900bceac6&#45;&gt;y_2f79d27085d95c7ddb45d9566ae33dfb -->
<g id="edge5" class="edge">
<title>y_a9ec4f5f33f0d64e74ed5d9900bceac6-&gt;y_2f79d27085d95c7ddb45d9566ae33dfb</title>
<path fill="none" stroke="black" d="M1047.97,-151.12C1074.06,-141.09 1115.27,-125.24 1148.83,-112.33"/>
<polygon fill="black" stroke="black" points="1149.94,-115.65 1158.01,-108.8 1147.42,-109.12 1149.94,-115.65"/>
</g>
</g>
</svg>