<svg xmlns="http://www.w3.org/2000/svg" xmlns:xlink="http://www.w3.org/1999/xlink" width="1606pt" height="260pt" viewBox="0.00 0.00 1606.04 260.00">
<g id="graph0" class="graph" transform="scale(1 1) rotate(0) translate(4 256)">
<polygon fill="white" stroke="none" points="-4,4 -4,-256 1602.04,-256 1602.04,4 -4,4"/>
<!-- create_function_job_25906340bd0c28c44fd73d69e7a3d8bc -->
<g id="node1" class="node">
<title>create_function_job_25906340bd0c28c44fd73d69e7a3d8bc</title>
<ellipse fill="none" stroke="black" cx="799.81" cy="-18" rx="487.88" ry="18"/>
<text text-anchor="middle" x="799.81" y="-13.32" font-family="Times,serif" font-size="14.00">create_function_job=&lt;pyiron_base.project.delayed.DelayedObject object at 0x749611736a50&gt;</text>
</g>
<!-- x_1a7fff02f6473a13e5e8742988186611 -->
<g id="node2" class="node">
<title>x_1a7fff02f6473a13e5e8742988186611</title>
<ellipse fill="none" stroke="black" cx="799.81" cy="-90" rx="396.34" ry="18"/>
<text text-anchor="middle" x="799.81" y="-85.33" font-family="Times,serif" font-size="14.00">x=&lt;pyiron_base.project.delayed.DelayedObject object at 0x7496117367e0&gt;</text>
</g>
<!-- x_1a7fff02f6473a13e5e8742988186611&#45;&gt;create_function_job_25906340bd0c28c44fd73d69e7a3d8bc -->
<g id="edge1" class="edge">
<title>x_1a7fff02f6473a13e5e8742988186611-&gt;create_function_job_25906340bd0c28c44fd73d69e7a3d8bc</title>
<path fill="none" stroke="black" d="M799.81,-71.7C799.81,-64.41 799.81,-55.73 799.81,-47.54"/>
<polygon fill="black" stroke="black" points="803.31,-47.62 799.81,-37.62 796.31,-47.62 803.31,-47.62"/>
</g>
<!-- x_e4655695917c433de56d1c64232473f9 -->
<g id="node3" class="node">
<title>x_e4655695917c433de56d1c64232473f9</title>
<ellipse fill="none" stroke="black" cx="395.81" cy="-162" rx="395.81" ry="18"/>
<text text-anchor="middle" x="395.81" y="-157.32" font-family="Times,serif" font-size="14.00">x=&lt;pyiron_base.project.delayed.DelayedObject object at 0x74961213ea50&gt;</text>
</g>
<!-- x_e4655695917c433de56d1c64232473f9&#45;&gt;x_1a7fff02f6473a13e5e8742988186611 -->
<g id="edge2" class="edge">
<title>x_e4655695917c433de56d1c64232473f9-&gt;x_1a7fff02f6473a13e5e8742988186611</title>
<path fill="none" stroke="black" d="M493.35,-144.1C553.03,-133.76 629.5,-120.51 691.12,-109.83"/>
<polygon fill="black" stroke="black" points="691.7,-113.28 700.95,-108.13 690.5,-106.39 691.7,-113.28"/>
</g>
<!-- x_1d847da32ecaabf6731c38f798c3d4ce -->
<g id="node4" class="node">
<title>x_1d847da32ecaabf6731c38f798c3d4ce</title>
<ellipse fill="none" stroke="black" cx="577.81" cy="-234" rx="31.74" ry="18"/>
<text text-anchor="middle" x="577.81" y="-229.32" font-family="Times,serif" font-size="14.00">x=1</text>
</g>
<!-- x_1d847da32ecaabf6731c38f798c3d4ce&#45;&gt;x_e4655695917c433de56d1c64232473f9 -->
<g id="edge3" class="edge">
<title>x_1d847da32ecaabf6731c38f798c3d4ce-&gt;x_e4655695917c433de56d1c64232473f9</title>
<path fill="none" stroke="black" d="M552.12,-223.12C526.04,-213.09 484.82,-197.24 451.26,-184.33"/>
<polygon fill="black" stroke="black" points="452.67,-181.12 442.08,-180.8 450.16,-187.65 452.67,-181.12"/>
</g>
<!-- y_3b83397feef07a74d9a046a1b7f57749 -->
<g id="node5" class="node">
<title>y_3b83397feef07a74d9a046a1b7f57749</title>
<ellipse fill="none" stroke="black" cx="1203.81" cy="-162" rx="394.23" ry="18"/>
<text text-anchor="middle" x="1203.81" y="-157.32" font-family="Times,serif" font-size="14.00">y=&lt;pyiron_base.project.delayed.DelayedObject object at 0x74961eca0a10&gt;</text>
</g>
<!-- x_1d847da32ecaabf6731c38f798c3d4ce&#45;&gt;y_3b83397feef07a74d9a046a1b7f57749 -->
<g id="edge4" class="edge">
<title>x_1d847da32ecaabf6731c38f798c3d4ce-&gt;y_3b83397feef07a74d9a046a1b7f57749</title>
<path fill="none" stroke="black" d="M608.85,-229.53C687.68,-220.71 899.81,-196.99 1048.18,-180.4"/>
<polygon fill="black" stroke="black" points="1048.14,-183.93 1057.69,-179.34 1047.36,-176.97 1048.14,-183.93"/>
</g>
<!-- y_3b83397feef07a74d9a046a1b7f57749&#45;&gt;x_1a7fff02f6473a13e5e8742988186611 -->
<g id="edge7" class="edge">
<title>y_3b83397feef07a74d9a046a1b7f57749-&gt;x_1a7fff02f6473a13e5e8742988186611</title>
<path fill="none" stroke="black" d="M1106.27,-144.1C1046.59,-133.76 970.12,-120.51 908.5,-109.83"/>
<polygon fill="black" stroke="black" points="909.12,-106.39 898.67,-108.13 907.92,-113.28 909.12,-106.39"/>
</g>
<!-- y_a9ec4f5f33f0d64e74ed5d9900bceac6 -->
<g id="node6" class="node">
<title>y_a9ec4f5f33f0d64e74ed5d9900bceac6</title>
<ellipse fill="none" stroke="black" cx="1021.81" cy="-234" rx="31.74" ry="18"/>
<text text-anchor="middle" x="1021.81" y="-229.32" font-family="Times,serif" font-size="14.00">y=2</text>
</g>
<!-- y_a9ec4f5f33f0d64e74ed5d9900bceac6&#45;&gt;x_e4655695917c433de56d1c64232473f9 -->
<g id="edge5" class="edge">
<title>y_a9ec4f5f33f0d64e74ed5d9900bceac6-&gt;x_e4655695917c433de56d1c64232473f9</title>
<path fill="none" stroke="black" d="M990.77,-229.53C912,-220.72 700.13,-197.03 551.78,-180.44"/>
<polygon fill="black" stroke="black" points="552.6,-177.01 542.27,-179.38 551.82,-183.97 552.6,-177.01"/>
</g>
<!-- y_a9ec4f5f33f0d64e74ed5d9900bceac6&#45;&gt;y_3b83397feef07a74d9a046a1b7f57749 -->
<g id="edge6" class="edge">
<title>y_a9ec4f5f33f0d64e74ed5d9900bceac6-&gt;y_3b83397feef07a74d9a046a1b7f57749</title>
<path fill="none" stroke="black" d="M1047.5,-223.12C1073.58,-213.09 1114.8,-197.24 1148.36,-184.33"/>
<polygon fill="black" stroke="black" points="1149.46,-187.65 1157.54,-180.8 1146.95,-181.12 1149.46,-187.65"/>
</g>
</g>
</svg>