<svg xmlns="http://www.w3.org/2000/svg" xmlns:xlink="http://www.w3.org/1999/xlink" width="300pt" height="369pt" viewBox="0.00 0.00 299.82 368.50">
<g id="graph0" class="graph" transform="scale(1 1) rotate(0) translate(4 364.5)">
<polygon fill="white" stroke="none" points="-4,4 -4,-364.5 295.82,-364.5 295.82,4 -4,4"/>
<!-- 0 -->
<g id="node1" class="node">
<title>0</title>
<ellipse fill="none" stroke="black" cx="145.91" cy="-253.25" rx="145.91" ry="18"/>
<text text-anchor="middle" x="145.91" y="-248.57" font-family="Times,serif" font-size="14.00">workflow.get_prod_and_div</text>
</g>
<!-- 1 -->
<g id="node2" class="node">
<title>1</title>
<ellipse fill="none" stroke="black" cx="145.91" cy="-180.25" rx="100.66" ry="18"/>
<text text-anchor="middle" x="145.91" y="-175.57" font-family="Times,serif" font-size="14.00">workflow.get_sum</text>
</g>
<!-- 0&#45;&gt;1 -->
<g id="edge1" class="edge">
<title>0-&gt;1</title>
<path fill="none" stroke="black" d="M145.91,-235.06C145.91,-227.48 145.91,-218.35 145.91,-209.79"/>
<polygon fill="black" stroke="black" points="149.41,-209.79 145.91,-199.79 142.41,-209.79 149.41,-209.79"/>
</g>
<!-- 2 -->
<g id="node3" class="node">
<title>2</title>
<ellipse fill="none" stroke="black" cx="145.91" cy="-91" rx="113.82" ry="18"/>
<text text-anchor="middle" x="145.91" y="-86.33" font-family="Times,serif" font-size="14.00">workflow.get_square</text>
</g>
<!-- 1&#45;&gt;2 -->
<g id="edge2" class="edge">
<title>1-&gt;2</title>
<path fill="none" stroke="black" d="M145.91,-162.01C145.91,-150.18 145.91,-134.2 145.91,-120.5"/>
<polygon fill="black" stroke="black" points="149.41,-120.72 145.91,-110.72 142.41,-120.72 149.41,-120.72"/>
<text text-anchor="middle" x="150.03" y="-130.95" font-family="Times,serif" font-size="14.00">x</text>
</g>
<!-- 5 -->
<g id="node4" class="node">
<title>5</title>
<ellipse fill="none" stroke="black" cx="145.91" cy="-18" rx="40.69" ry="18"/>
<text text-anchor="middle" x="145.91" y="-13.32" font-family="Times,serif" font-size="14.00">result</text>
</g>
<!-- 2&#45;&gt;5 -->
<g id="edge3" class="edge">
<title>2-&gt;5</title>
<path fill="none" stroke="black" d="M145.91,-72.81C145.91,-65.23 145.91,-56.1 145.91,-47.54"/>
<polygon fill="black" stroke="black" points="149.41,-47.54 145.91,-37.54 142.41,-47.54 149.41,-47.54"/>
</g>
<!-- 3 -->
<g id="node5" class="node">
<title>3</title>
<ellipse fill="none" stroke="black" cx="109.91" cy="-342.5" rx="27" ry="18"/>
<text text-anchor="middle" x="109.91" y="-337.82" font-family="Times,serif" font-size="14.00">1</text>
</g>
<!-- 3&#45;&gt;0 -->
<g id="edge4" class="edge">
<title>3-&gt;0</title>
<path fill="none" stroke="black" d="M116.85,-324.68C121.81,-312.64 128.61,-296.16 134.39,-282.17"/>
<polygon fill="black" stroke="black" points="137.59,-283.6 138.16,-273.02 131.11,-280.93 137.59,-283.6"/>
<text text-anchor="middle" x="135.26" y="-293.2" font-family="Times,serif" font-size="14.00">x</text>
</g>
<!-- 4 -->
<g id="node6" class="node">
<title>4</title>
<ellipse fill="none" stroke="black" cx="181.91" cy="-342.5" rx="27" ry="18"/>
<text text-anchor="middle" x="181.91" y="-337.82" font-family="Times,serif" font-size="14.00">2</text>
</g>
<!-- 4&#45;&gt;0 -->
<g id="edge5" class="edge">
<title>4-&gt;0</title>
<path fill="none" stroke="black" d="M174.97,-324.68C170,-312.64 163.2,-296.16 157.43,-282.17"/>
<polygon fill="black" stroke="black" points="160.7,-280.93 153.65,-273.02 154.23,-283.6 160.7,-280.93"/>
<text text-anchor="middle" x="171.26" y="-293.2" font-family="Times,serif" font-size="14.00">y</text>
</g>
</g>
</svg>