<svg xmlns="http://www.w3.org/2000/svg" xmlns:xlink="http://www.w3.org/1999/xlink" width="2920pt" height="476pt" viewBox="0.00 0.00 2920.38 476.00">
<g id="graph0" class="graph" transform="scale(1 1) rotate(0) translate(4 472)">
<polygon fill="white" stroke="none" points="-4,4 -4,-472 2916.38,-472 2916.38,4 -4,4"/>
<!-- create_function_job_dae750e8dda36ce20c8f461aa2b9d570 -->
<g id="node1" class="node">
<title>create_function_job_dae750e8dda36ce20c8f461aa2b9d570</title>
<ellipse fill="none" stroke="black" cx="1532.08" cy="-18" rx="485.25" ry="18"/>
<text text-anchor="middle" x="1532.08" y="-13.32" font-family="Times,serif" font-size="14.00">create_function_job=&lt;pyiron_base.project.delayed.DelayedObject object at 0x7f36eb2b5b20&gt;</text>
</g>
<!-- macros_tex_d7e91609122a5793f44a95d7162f82c5 -->
<g id="node2" class="node">
<title>macros_tex_d7e91609122a5793f44a95d7162f82c5</title>
<ellipse fill="none" stroke="black" cx="1998.08" cy="-90" rx="444.74" ry="18"/>
<text text-anchor="middle" x="1998.08" y="-85.33" font-family="Times,serif" font-size="14.00">macros_tex=&lt;pyiron_base.project.delayed.DelayedObject object at 0x7f36eb2b58b0&gt;</text>
</g>
<!-- macros_tex_d7e91609122a5793f44a95d7162f82c5&#45;&gt;create_function_job_dae750e8dda36ce20c8f461aa2b9d570 -->
<g id="edge1" class="edge">
<title>macros_tex_d7e91609122a5793f44a95d7162f82c5-&gt;create_function_job_dae750e8dda36ce20c8f461aa2b9d570</title>
<path fill="none" stroke="black" d="M1885.87,-72.14C1816.59,-61.74 1727.62,-48.37 1656.24,-37.65"/>
<polygon fill="black" stroke="black" points="1656.84,-34.2 1646.43,-36.18 1655.8,-41.12 1656.84,-34.2"/>
</g>
<!-- pvbatch_output_file_f6679ca13153e695cd36070d492d8182 -->
<g id="node3" class="node">
<title>pvbatch_output_file_f6679ca13153e695cd36070d492d8182</title>
<ellipse fill="none" stroke="black" cx="1635.08" cy="-162" rx="485.77" ry="18"/>
<text text-anchor="middle" x="1635.08" y="-157.32" font-family="Times,serif" font-size="14.00">pvbatch_output_file=&lt;pyiron_base.project.delayed.DelayedObject object at 0x7f36eb2b5580&gt;</text>
</g>
<!-- pvbatch_output_file_f6679ca13153e695cd36070d492d8182&#45;&gt;macros_tex_d7e91609122a5793f44a95d7162f82c5 -->
<g id="edge2" class="edge">
<title>pvbatch_output_file_f6679ca13153e695cd36070d492d8182-&gt;macros_tex_d7e91609122a5793f44a95d7162f82c5</title>
<path fill="none" stroke="black" d="M1723.88,-143.88C1776.71,-133.69 1843.85,-120.74 1898.47,-110.21"/>
<polygon fill="black" stroke="black" points="1898.93,-113.69 1908.09,-108.35 1897.6,-106.81 1898.93,-113.69"/>
</g>
<!-- poisson_output_pvd_file_41d40612f4bc22f2593e670f29125006 -->
<g id="node4" class="node">
<title>poisson_output_pvd_file_41d40612f4bc22f2593e670f29125006</title>
<ellipse fill="none" stroke="black" cx="1529.08" cy="-234" rx="506.82" ry="18"/>
<text text-anchor="middle" x="1529.08" y="-229.32" font-family="Times,serif" font-size="14.00">poisson_output_pvd_file=&lt;pyiron_base.project.delayed.DelayedObject object at 0x7f36eb2b5220&gt;</text>
</g>
<!-- poisson_output_pvd_file_41d40612f4bc22f2593e670f29125006&#45;&gt;pvbatch_output_file_f6679ca13153e695cd36070d492d8182 -->
<g id="edge3" class="edge">
<title>poisson_output_pvd_file_41d40612f4bc22f2593e670f29125006-&gt;pvbatch_output_file_f6679ca13153e695cd36070d492d8182</title>
<path fill="none" stroke="black" d="M1555.29,-215.7C1568.54,-206.95 1584.82,-196.19 1599.21,-186.69"/>
<polygon fill="black" stroke="black" points="1601.14,-189.61 1607.55,-181.18 1597.28,-183.77 1601.14,-189.61"/>
</g>
<!-- plot_file_f6679ca13153e695cd36070d492d8182 -->
<g id="node5" class="node">
<title>plot_file_f6679ca13153e695cd36070d492d8182</title>
<ellipse fill="none" stroke="black" cx="704.08" cy="-162" rx="427.38" ry="18"/>
<text text-anchor="middle" x="704.08" y="-157.32" font-family="Times,serif" font-size="14.00">plot_file=&lt;pyiron_base.project.delayed.DelayedObject object at 0x7f36eb2b5580&gt;</text>
</g>
<!-- poisson_output_pvd_file_41d40612f4bc22f2593e670f29125006&#45;&gt;plot_file_f6679ca13153e695cd36070d492d8182 -->
<g id="edge4" class="edge">
<title>poisson_output_pvd_file_41d40612f4bc22f2593e670f29125006-&gt;plot_file_f6679ca13153e695cd36070d492d8182</title>
<path fill="none" stroke="black" d="M1338.78,-216.85C1207.21,-205.69 1032.66,-190.88 899.92,-179.62"/>
<polygon fill="black" stroke="black" points="900.59,-176.16 890.33,-178.8 900,-183.14 900.59,-176.16"/>
</g>
<!-- plot_file_f6679ca13153e695cd36070d492d8182&#45;&gt;create_function_job_dae750e8dda36ce20c8f461aa2b9d570 -->
<g id="edge18" class="edge">
<title>plot_file_f6679ca13153e695cd36070d492d8182-&gt;create_function_job_dae750e8dda36ce20c8f461aa2b9d570</title>
<path fill="none" stroke="black" d="M803.14,-144.01C958.71,-117.33 1259.28,-65.78 1421.63,-37.94"/>
<polygon fill="black" stroke="black" points="1421.84,-41.46 1431.1,-36.32 1420.65,-34.56 1421.84,-41.46"/>
</g>
<!-- meshio_output_xdmf_e20be8f29bc4ca911e1e857f5d76741c -->
<g id="node6" class="node">
<title>meshio_output_xdmf_e20be8f29bc4ca911e1e857f5d76741c</title>
<ellipse fill="none" stroke="black" cx="1419.08" cy="-306" rx="491.04" ry="18"/>
<text text-anchor="middle" x="1419.08" y="-301.32" font-family="Times,serif" font-size="14.00">meshio_output_xdmf=&lt;pyiron_base.project.delayed.DelayedObject object at 0x7f36eb2b4e30&gt;</text>
</g>
<!-- meshio_output_xdmf_e20be8f29bc4ca911e1e857f5d76741c&#45;&gt;poisson_output_pvd_file_41d40612f4bc22f2593e670f29125006 -->
<g id="edge5" class="edge">
<title>meshio_output_xdmf_e20be8f29bc4ca911e1e857f5d76741c-&gt;poisson_output_pvd_file_41d40612f4bc22f2593e670f29125006</title>
<path fill="none" stroke="black" d="M1446.28,-287.7C1460.16,-278.86 1477.25,-267.99 1492.29,-258.41"/>
<polygon fill="black" stroke="black" points="1493.99,-261.48 1500.55,-253.16 1490.23,-255.58 1493.99,-261.48"/>
</g>
<!-- poisson_output_vtu_file_fba6f167ab9d57bbcafccf92fb371512 -->
<g id="node7" class="node">
<title>poisson_output_vtu_file_fba6f167ab9d57bbcafccf92fb371512</title>
<ellipse fill="none" stroke="black" cx="502.08" cy="-234" rx="502.08" ry="18"/>
<text text-anchor="middle" x="502.08" y="-229.32" font-family="Times,serif" font-size="14.00">poisson_output_vtu_file=&lt;pyiron_base.project.delayed.DelayedObject object at 0x7f36eb2b51f0&gt;</text>
</g>
<!-- meshio_output_xdmf_e20be8f29bc4ca911e1e857f5d76741c&#45;&gt;poisson_output_vtu_file_fba6f167ab9d57bbcafccf92fb371512 -->
<g id="edge6" class="edge">
<title>meshio_output_xdmf_e20be8f29bc4ca911e1e857f5d76741c-&gt;poisson_output_vtu_file_fba6f167ab9d57bbcafccf92fb371512</title>
<path fill="none" stroke="black" d="M1212.43,-289.23C1065.96,-278.04 869.77,-263.07 720.69,-251.69"/>
<polygon fill="black" stroke="black" points="721.33,-248.23 711.09,-250.95 720.8,-255.21 721.33,-248.23"/>
</g>
<!-- ndofs_c902b1da86c67e7079cdd6e960396773 -->
<g id="node8" class="node">
<title>ndofs_c902b1da86c67e7079cdd6e960396773</title>
<ellipse fill="none" stroke="black" cx="2469.08" cy="-234" rx="415.28" ry="18"/>
<text text-anchor="middle" x="2469.08" y="-229.32" font-family="Times,serif" font-size="14.00">ndofs=&lt;pyiron_base.project.delayed.DelayedObject object at 0x7f36eb2b5610&gt;</text>
</g>
<!-- meshio_output_xdmf_e20be8f29bc4ca911e1e857f5d76741c&#45;&gt;ndofs_c902b1da86c67e7079cdd6e960396773 -->
<g id="edge7" class="edge">
<title>meshio_output_xdmf_e20be8f29bc4ca911e1e857f5d76741c-&gt;ndofs_c902b1da86c67e7079cdd6e960396773</title>
<path fill="none" stroke="black" d="M1649.19,-289.66C1823.72,-278.02 2062.62,-262.1 2237.52,-250.44"/>
<polygon fill="black" stroke="black" points="2237.69,-253.93 2247.43,-249.78 2237.22,-246.95 2237.69,-253.93"/>
</g>
<!-- poisson_output_vtu_file_fba6f167ab9d57bbcafccf92fb371512&#45;&gt;pvbatch_output_file_f6679ca13153e695cd36070d492d8182 -->
<g id="edge15" class="edge">
<title>poisson_output_vtu_file_fba6f167ab9d57bbcafccf92fb371512-&gt;pvbatch_output_file_f6679ca13153e695cd36070d492d8182</title>
<path fill="none" stroke="black" d="M747.23,-217.85C934.48,-206.29 1191.71,-190.39 1381.11,-178.69"/>
<polygon fill="black" stroke="black" points="1381.07,-182.2 1390.83,-178.09 1380.64,-175.21 1381.07,-182.2"/>
</g>
<!-- poisson_output_vtu_file_fba6f167ab9d57bbcafccf92fb371512&#45;&gt;plot_file_f6679ca13153e695cd36070d492d8182 -->
<g id="edge16" class="edge">
<title>poisson_output_vtu_file_fba6f167ab9d57bbcafccf92fb371512-&gt;plot_file_f6679ca13153e695cd36070d492d8182</title>
<path fill="none" stroke="black" d="M552.28,-215.61C579.84,-206.06 614.22,-194.14 643.29,-184.07"/>
<polygon fill="black" stroke="black" points="644.42,-187.38 652.72,-180.8 642.13,-180.77 644.42,-187.38"/>
</g>
<!-- ndofs_c902b1da86c67e7079cdd6e960396773&#45;&gt;macros_tex_d7e91609122a5793f44a95d7162f82c5 -->
<g id="edge17" class="edge">
<title>ndofs_c902b1da86c67e7079cdd6e960396773-&gt;macros_tex_d7e91609122a5793f44a95d7162f82c5</title>
<path fill="none" stroke="black" d="M2411.8,-215.73C2324.75,-189.49 2159.47,-139.66 2066.33,-111.57"/>
<polygon fill="black" stroke="black" points="2067.37,-108.23 2056.79,-108.7 2065.35,-114.94 2067.37,-108.23"/>
</g>
<!-- gmsh_output_file_1cb82d5adda4ad37cdf5ce6e8136f5d3 -->
<g id="node9" class="node">
<title>gmsh_output_file_1cb82d5adda4ad37cdf5ce6e8136f5d3</title>
<ellipse fill="none" stroke="black" cx="2406.08" cy="-378" rx="472.1" ry="18"/>
<text text-anchor="middle" x="2406.08" y="-373.32" font-family="Times,serif" font-size="14.00">gmsh_output_file=&lt;pyiron_base.project.delayed.DelayedObject object at 0x7f36eb2b4bc0&gt;</text>
</g>
<!-- gmsh_output_file_1cb82d5adda4ad37cdf5ce6e8136f5d3&#45;&gt;meshio_output_xdmf_e20be8f29bc4ca911e1e857f5d76741c -->
<g id="edge8" class="edge">
<title>gmsh_output_file_1cb82d5adda4ad37cdf5ce6e8136f5d3-&gt;meshio_output_xdmf_e20be8f29bc4ca911e1e857f5d76741c</title>
<path fill="none" stroke="black" d="M2188.87,-361.59C2029.08,-350.26 1812.27,-334.89 1649.46,-323.34"/>
<polygon fill="black" stroke="black" points="1650.06,-319.87 1639.83,-322.66 1649.56,-326.85 1650.06,-319.87"/>
</g>
<!-- meshio_output_h5_70513360c325554f1fb9101a93e5febe -->
<g id="node10" class="node">
<title>meshio_output_h5_70513360c325554f1fb9101a93e5febe</title>
<ellipse fill="none" stroke="black" cx="2406.08" cy="-306" rx="478.41" ry="18"/>
<text text-anchor="middle" x="2406.08" y="-301.32" font-family="Times,serif" font-size="14.00">meshio_output_h5=&lt;pyiron_base.project.delayed.DelayedObject object at 0x7f36eb2b4e00&gt;</text>
</g>
<!-- gmsh_output_file_1cb82d5adda4ad37cdf5ce6e8136f5d3&#45;&gt;meshio_output_h5_70513360c325554f1fb9101a93e5febe -->
<g id="edge9" class="edge">
<title>gmsh_output_file_1cb82d5adda4ad37cdf5ce6e8136f5d3-&gt;meshio_output_h5_70513360c325554f1fb9101a93e5febe</title>
<path fill="none" stroke="black" d="M2406.08,-359.7C2406.08,-352.41 2406.08,-343.73 2406.08,-335.54"/>
<polygon fill="black" stroke="black" points="2409.58,-335.62 2406.08,-325.62 2402.58,-335.62 2409.58,-335.62"/>
</g>
<!-- meshio_output_h5_70513360c325554f1fb9101a93e5febe&#45;&gt;poisson_output_pvd_file_41d40612f4bc22f2593e670f29125006 -->
<g id="edge12" class="edge">
<title>meshio_output_h5_70513360c325554f1fb9101a93e5febe-&gt;poisson_output_pvd_file_41d40612f4bc22f2593e670f29125006</title>
<path fill="none" stroke="black" d="M2207.9,-289.18C2068.69,-278.07 1882.72,-263.23 1740.63,-251.89"/>
<polygon fill="black" stroke="black" points="1740.94,-248.4 1730.69,-251.09 1740.38,-255.38 1740.94,-248.4"/>
</g>
<!-- meshio_output_h5_70513360c325554f1fb9101a93e5febe&#45;&gt;poisson_output_vtu_file_fba6f167ab9d57bbcafccf92fb371512 -->
<g id="edge13" class="edge">
<title>meshio_output_h5_70513360c325554f1fb9101a93e5febe-&gt;poisson_output_vtu_file_fba6f167ab9d57bbcafccf92fb371512</title>
<path fill="none" stroke="black" d="M2072.53,-292.74C1731.26,-280.19 1203.06,-260.77 854.94,-247.97"/>
<polygon fill="black" stroke="black" points="855.3,-244.48 845.17,-247.61 855.04,-251.48 855.3,-244.48"/>
</g>
<!-- meshio_output_h5_70513360c325554f1fb9101a93e5febe&#45;&gt;ndofs_c902b1da86c67e7079cdd6e960396773 -->
<g id="edge14" class="edge">
<title>meshio_output_h5_70513360c325554f1fb9101a93e5febe-&gt;ndofs_c902b1da86c67e7079cdd6e960396773</title>
<path fill="none" stroke="black" d="M2421.66,-287.7C2429.06,-279.47 2438.05,-269.48 2446.21,-260.42"/>
<polygon fill="black" stroke="black" points="2448.59,-263 2452.68,-253.23 2443.39,-258.32 2448.59,-263"/>
</g>
<!-- domain_size_f12a7f1986b9dd058dfc666dbe230b20 -->
<g id="node11" class="node">
<title>domain_size_f12a7f1986b9dd058dfc666dbe230b20</title>
<ellipse fill="none" stroke="black" cx="2659.08" cy="-450" rx="96.45" ry="18"/>
<text text-anchor="middle" x="2659.08" y="-445.32" font-family="Times,serif" font-size="14.00">domain_size=2.0</text>
</g>
<!-- domain_size_f12a7f1986b9dd058dfc666dbe230b20&#45;&gt;macros_tex_d7e91609122a5793f44a95d7162f82c5 -->
<g id="edge10" class="edge">
<title>domain_size_f12a7f1986b9dd058dfc666dbe230b20-&gt;macros_tex_d7e91609122a5793f44a95d7162f82c5</title>
<path fill="none" stroke="black" d="M2737.9,-439.32C2794.98,-430.75 2865.71,-416.43 2887.08,-396 2916.79,-367.62 2912.08,-348.09 2912.08,-307 2912.08,-307 2912.08,-307 2912.08,-233 2912.08,-165.98 2523.43,-125.99 2253,-106.27"/>
<polygon fill="black" stroke="black" points="2253.55,-102.8 2243.33,-105.57 2253.05,-109.78 2253.55,-102.8"/>
</g>
<!-- domain_size_f12a7f1986b9dd058dfc666dbe230b20&#45;&gt;gmsh_output_file_1cb82d5adda4ad37cdf5ce6e8136f5d3 -->
<g id="edge11" class="edge">
<title>domain_size_f12a7f1986b9dd058dfc666dbe230b20-&gt;gmsh_output_file_1cb82d5adda4ad37cdf5ce6e8136f5d3</title>
<path fill="none" stroke="black" d="M2606.66,-434.5C2569.94,-424.33 2520.35,-410.62 2479.67,-399.36"/>
<polygon fill="black" stroke="black" points="2480.75,-396.03 2470.18,-396.73 2478.89,-402.77 2480.75,-396.03"/>
</g>
</g>
</svg>