<svg xmlns="http://www.w3.org/2000/svg" xmlns:xlink="http://www.w3.org/1999/xlink" width="420pt" height="223pt" viewBox="0.00 0.00 419.98 222.50">
<g id="graph0" class="graph" transform="scale(1 1) rotate(0) translate(4 218.5)">
<polygon fill="white" stroke="none" points="-4,4 -4,-218.5 415.98,-218.5 415.98,4 -4,4"/>
<!-- 0 -->
<g id="node1" class="node">
<title>0</title>
<ellipse fill="none" stroke="black" cx="202.73" cy="-107.25" rx="202.73" ry="18"/>
<text text-anchor="middle" x="202.73" y="-102.58" font-family="Times,serif" font-size="14.00">arithmetic_workflow.get_prod_and_div</text>
</g>
<!-- 1 -->
<g id="node2" class="node">
<title>1</title>
<ellipse fill="none" stroke="black" cx="202.73" cy="-18" rx="157.48" ry="18"/>
<text text-anchor="middle" x="202.73" y="-13.32" font-family="Times,serif" font-size="14.00">arithmetic_workflow.get_sum</text>
</g>
<!-- 0&#45;&gt;1 -->
<g id="edge1" class="edge">
<title>0-&gt;1</title>
<path fill="none" stroke="black" d="M202.73,-89.01C202.73,-77.18 202.73,-61.2 202.73,-47.5"/>
<polygon fill="black" stroke="black" points="206.23,-47.72 202.73,-37.72 199.23,-47.72 206.23,-47.72"/>
<text text-anchor="middle" x="307.35" y="-57.95" font-family="Times,serif" font-size="14.00">x=result[prod], y=result[div]</text>
</g>
<!-- 2 -->
<g id="node3" class="node">
<title>2</title>
<ellipse fill="none" stroke="black" cx="166.73" cy="-196.5" rx="27" ry="18"/>
<text text-anchor="middle" x="166.73" y="-191.82" font-family="Times,serif" font-size="14.00">1</text>
</g>
<!-- 2&#45;&gt;0 -->
<g id="edge2" class="edge">
<title>2-&gt;0</title>
<path fill="none" stroke="black" d="M173.67,-178.68C178.63,-166.64 185.43,-150.16 191.21,-136.17"/>
<polygon fill="black" stroke="black" points="194.41,-137.6 194.98,-127.02 187.93,-134.93 194.41,-137.6"/>
<text text-anchor="middle" x="192.08" y="-147.2" font-family="Times,serif" font-size="14.00">x</text>
</g>
<!-- 3 -->
<g id="node4" class="node">
<title>3</title>
<ellipse fill="none" stroke="black" cx="238.73" cy="-196.5" rx="27" ry="18"/>
<text text-anchor="middle" x="238.73" y="-191.82" font-family="Times,serif" font-size="14.00">2</text>
</g>
<!-- 3&#45;&gt;0 -->
<g id="edge3" class="edge">
<title>3-&gt;0</title>
<path fill="none" stroke="black" d="M231.79,-178.68C226.82,-166.64 220.02,-150.16 214.25,-136.17"/>
<polygon fill="black" stroke="black" points="217.52,-134.93 210.47,-127.02 211.05,-137.6 217.52,-134.93"/>
<text text-anchor="middle" x="228.08" y="-147.2" font-family="Times,serif" font-size="14.00">y</text>
</g>
</g>
</svg>