<svg xmlns="http://www.w3.org/2000/svg" xmlns:xlink="http://www.w3.org/1999/xlink" width="2383pt" height="188pt" viewBox="0.00 0.00 2382.52 188.00">
<g id="graph0" class="graph" transform="scale(1 1) rotate(0) translate(4 184)">
<polygon fill="white" stroke="none" points="-4,4 -4,-184 2378.52,-184 2378.52,4 -4,4"/>
<!-- create_function_job_988efa8422518ba29903b66c63607fb8 -->
<g id="node1" class="node">
<title>create_function_job_988efa8422518ba29903b66c63607fb8</title>
<ellipse fill="none" stroke="black" cx="1188.02" cy="-18" rx="478.94" ry="18"/>
<text text-anchor="middle" x="1188.02" y="-13.32" font-family="Times,serif" font-size="14.00">create_function_job=&lt;pyiron_base.project.delayed.DelayedObject object at 0x75516fcff020&gt;</text>
</g>
<!-- x_b8003ea81f8e4a9bdbfd3b4eb1e68e2b -->
<g id="node2" class="node">
<title>x_b8003ea81f8e4a9bdbfd3b4eb1e68e2b</title>
<ellipse fill="none" stroke="black" cx="390.02" cy="-90" rx="390.02" ry="18"/>
<text text-anchor="middle" x="390.02" y="-85.33" font-family="Times,serif" font-size="14.00">x=&lt;pyiron_base.project.delayed.DelayedObject object at 0x75516fcfebd0&gt;</text>
</g>
<!-- x_b8003ea81f8e4a9bdbfd3b4eb1e68e2b&#45;&gt;create_function_job_988efa8422518ba29903b66c63607fb8 -->
<g id="edge1" class="edge">
<title>x_b8003ea81f8e4a9bdbfd3b4eb1e68e2b-&gt;create_function_job_988efa8422518ba29903b66c63607fb8</title>
<path fill="none" stroke="black" d="M566.63,-73.51C692.98,-62.42 863.05,-47.51 993.33,-36.08"/>
<polygon fill="black" stroke="black" points="993.45,-39.58 1003.11,-35.22 992.84,-32.61 993.45,-39.58"/>
</g>
<!-- x_1d847da32ecaabf6731c38f798c3d4ce -->
<g id="node3" class="node">
<title>x_1d847da32ecaabf6731c38f798c3d4ce</title>
<ellipse fill="none" stroke="black" cx="1147.02" cy="-162" rx="31.74" ry="18"/>
<text text-anchor="middle" x="1147.02" y="-157.32" font-family="Times,serif" font-size="14.00">x=1</text>
</g>
<!-- x_1d847da32ecaabf6731c38f798c3d4ce&#45;&gt;x_b8003ea81f8e4a9bdbfd3b4eb1e68e2b -->
<g id="edge2" class="edge">
<title>x_1d847da32ecaabf6731c38f798c3d4ce-&gt;x_b8003ea81f8e4a9bdbfd3b4eb1e68e2b</title>
<path fill="none" stroke="black" d="M1115.94,-158.13C1025.05,-149.72 754.65,-124.72 570.79,-107.72"/>
<polygon fill="black" stroke="black" points="571.15,-104.23 560.87,-106.8 570.5,-111.2 571.15,-104.23"/>
</g>
<!-- y_f60ae41b1c92823db71999ac596241ab -->
<g id="node4" class="node">
<title>y_f60ae41b1c92823db71999ac596241ab</title>
<ellipse fill="none" stroke="black" cx="1188.02" cy="-90" rx="389.5" ry="18"/>
<text text-anchor="middle" x="1188.02" y="-85.33" font-family="Times,serif" font-size="14.00">y=&lt;pyiron_base.project.delayed.DelayedObject object at 0x75516fcfeba0&gt;</text>
</g>
<!-- x_1d847da32ecaabf6731c38f798c3d4ce&#45;&gt;y_f60ae41b1c92823db71999ac596241ab -->
<g id="edge3" class="edge">
<title>x_1d847da32ecaabf6731c38f798c3d4ce-&gt;y_f60ae41b1c92823db71999ac596241ab</title>
<path fill="none" stroke="black" d="M1156.74,-144.41C1161.3,-136.62 1166.86,-127.14 1172.02,-118.33"/>
<polygon fill="black" stroke="black" points="1175.01,-120.15 1177.04,-109.75 1168.96,-116.61 1175.01,-120.15"/>
</g>
<!-- z_a926da40ec18154feb3f3bb147af8220 -->
<g id="node5" class="node">
<title>z_a926da40ec18154feb3f3bb147af8220</title>
<ellipse fill="none" stroke="black" cx="1985.02" cy="-90" rx="389.5" ry="18"/>
<text text-anchor="middle" x="1985.02" y="-85.33" font-family="Times,serif" font-size="14.00">z=&lt;pyiron_base.project.delayed.DelayedObject object at 0x75516fcfe810&gt;</text>
</g>
<!-- x_1d847da32ecaabf6731c38f798c3d4ce&#45;&gt;z_a926da40ec18154feb3f3bb147af8220 -->
<g id="edge4" class="edge">
<title>x_1d847da32ecaabf6731c38f798c3d4ce-&gt;z_a926da40ec18154feb3f3bb147af8220</title>
<path fill="none" stroke="black" d="M1170.27,-149.58C1175.65,-147.37 1181.44,-145.33 1187.02,-144 1237.8,-131.89 1504.25,-115.72 1715.5,-104.44"/>
<polygon fill="black" stroke="black" points="1715.47,-107.95 1725.27,-103.92 1715.1,-100.96 1715.47,-107.95"/>
</g>
<!-- y_f60ae41b1c92823db71999ac596241ab&#45;&gt;create_function_job_988efa8422518ba29903b66c63607fb8 -->
<g id="edge8" class="edge">
<title>y_f60ae41b1c92823db71999ac596241ab-&gt;create_function_job_988efa8422518ba29903b66c63607fb8</title>
<path fill="none" stroke="black" d="M1188.02,-71.7C1188.02,-64.41 1188.02,-55.73 1188.02,-47.54"/>
<polygon fill="black" stroke="black" points="1191.52,-47.62 1188.02,-37.62 1184.52,-47.62 1191.52,-47.62"/>
</g>
<!-- z_a926da40ec18154feb3f3bb147af8220&#45;&gt;create_function_job_988efa8422518ba29903b66c63607fb8 -->
<g id="edge9" class="edge">
<title>z_a926da40ec18154feb3f3bb147af8220-&gt;create_function_job_988efa8422518ba29903b66c63607fb8</title>
<path fill="none" stroke="black" d="M1808.64,-73.51C1682.44,-62.42 1512.59,-47.51 1382.47,-36.08"/>
<polygon fill="black" stroke="black" points="1382.98,-32.61 1372.71,-35.22 1382.36,-39.58 1382.98,-32.61"/>
</g>
<!-- y_a9ec4f5f33f0d64e74ed5d9900bceac6 -->
<g id="node6" class="node">
<title>y_a9ec4f5f33f0d64e74ed5d9900bceac6</title>
<ellipse fill="none" stroke="black" cx="1228.02" cy="-162" rx="31.74" ry="18"/>
<text text-anchor="middle" x="1228.02" y="-157.32" font-family="Times,serif" font-size="14.00">y=2</text>
</g>
<!-- y_a9ec4f5f33f0d64e74ed5d9900bceac6&#45;&gt;x_b8003ea81f8e4a9bdbfd3b4eb1e68e2b -->
<g id="edge5" class="edge">
<title>y_a9ec4f5f33f0d64e74ed5d9900bceac6-&gt;x_b8003ea81f8e4a9bdbfd3b4eb1e68e2b</title>
<path fill="none" stroke="black" d="M1204.78,-149.58C1199.39,-147.37 1193.6,-145.33 1188.02,-144 1137.27,-131.9 871.01,-115.74 659.81,-104.45"/>
<polygon fill="black" stroke="black" points="660.21,-100.97 650.04,-103.93 659.84,-107.96 660.21,-100.97"/>
</g>
<!-- y_a9ec4f5f33f0d64e74ed5d9900bceac6&#45;&gt;y_f60ae41b1c92823db71999ac596241ab -->
<g id="edge6" class="edge">
<title>y_a9ec4f5f33f0d64e74ed5d9900bceac6-&gt;y_f60ae41b1c92823db71999ac596241ab</title>
<path fill="none" stroke="black" d="M1218.54,-144.41C1214.09,-136.62 1208.67,-127.14 1203.64,-118.33"/>
<polygon fill="black" stroke="black" points="1206.74,-116.71 1198.74,-109.76 1200.67,-120.18 1206.74,-116.71"/>
</g>
<!-- y_a9ec4f5f33f0d64e74ed5d9900bceac6&#45;&gt;z_a926da40ec18154feb3f3bb147af8220 -->
<g id="edge7" class="edge">
<title>y_a9ec4f5f33f0d64e74ed5d9900bceac6-&gt;z_a926da40ec18154feb3f3bb147af8220</title>
<path fill="none" stroke="black" d="M1259.11,-158.13C1349.99,-149.72 1620.39,-124.72 1804.25,-107.72"/>
<polygon fill="black" stroke="black" points="1804.54,-111.2 1814.18,-106.8 1803.9,-104.23 1804.54,-111.2"/>
</g>
</g>
</svg>