<svg xmlns="http://www.w3.org/2000/svg" xmlns:xlink="http://www.w3.org/1999/xlink" width="1608pt" height="188pt" viewBox="0.00 0.00 1607.57 188.00">
<g id="graph0" class="graph" transform="scale(1 1) rotate(0) translate(4 184)">
<polygon fill="white" stroke="none" points="-4,4 -4,-184 1603.57,-184 1603.57,4 -4,4"/>
<!-- create_function_job_972d6bcf41cc389c57d8ff495630e021 -->
<g id="node1" class="node">
<title>create_function_job_972d6bcf41cc389c57d8ff495630e021</title>
<ellipse fill="none" stroke="black" cx="799.81" cy="-18" rx="487.35" ry="18"/>
<text text-anchor="middle" x="799.81" y="-13.32" font-family="Times,serif" font-size="14.00">create_function_job=&lt;pyiron_base.project.delayed.DelayedObject object at 0x79ae12124800&gt;</text>
</g>
<!-- x_f374279468d7303f690ade4e28a68a3d -->
<g id="node2" class="node">
<title>x_f374279468d7303f690ade4e28a68a3d</title>
<ellipse fill="none" stroke="black" cx="395.81" cy="-90" rx="395.81" ry="18"/>
<text text-anchor="middle" x="395.81" y="-85.33" font-family="Times,serif" font-size="14.00">x=&lt;pyiron_base.project.delayed.DelayedObject object at 0x79ae195b2630&gt;</text>
</g>
<!-- x_f374279468d7303f690ade4e28a68a3d&#45;&gt;create_function_job_972d6bcf41cc389c57d8ff495630e021 -->
<g id="edge1" class="edge">
<title>x_f374279468d7303f690ade4e28a68a3d-&gt;create_function_job_972d6bcf41cc389c57d8ff495630e021</title>
<path fill="none" stroke="black" d="M493.35,-72.1C552.59,-61.83 628.37,-48.7 689.75,-38.07"/>
<polygon fill="black" stroke="black" points="690.29,-41.53 699.55,-36.37 689.1,-34.63 690.29,-41.53"/>
</g>
<!-- x_1d847da32ecaabf6731c38f798c3d4ce -->
<g id="node3" class="node">
<title>x_1d847da32ecaabf6731c38f798c3d4ce</title>
<ellipse fill="none" stroke="black" cx="759.81" cy="-162" rx="31.74" ry="18"/>
<text text-anchor="middle" x="759.81" y="-157.32" font-family="Times,serif" font-size="14.00">x=1</text>
</g>
<!-- x_1d847da32ecaabf6731c38f798c3d4ce&#45;&gt;x_f374279468d7303f690ade4e28a68a3d -->
<g id="edge2" class="edge">
<title>x_1d847da32ecaabf6731c38f798c3d4ce-&gt;x_f374279468d7303f690ade4e28a68a3d</title>
<path fill="none" stroke="black" d="M730.02,-155.27C679.35,-145.53 574.18,-125.3 495.28,-110.13"/>
<polygon fill="black" stroke="black" points="496.29,-106.76 485.81,-108.31 494.97,-113.63 496.29,-106.76"/>
</g>
<!-- y_6f7c9c2e224cc41adae258d1f7a78f06 -->
<g id="node4" class="node">
<title>y_6f7c9c2e224cc41adae258d1f7a78f06</title>
<ellipse fill="none" stroke="black" cx="1204.81" cy="-90" rx="394.76" ry="18"/>
<text text-anchor="middle" x="1204.81" y="-85.33" font-family="Times,serif" font-size="14.00">y=&lt;pyiron_base.project.delayed.DelayedObject object at 0x79ae121245c0&gt;</text>
</g>
<!-- x_1d847da32ecaabf6731c38f798c3d4ce&#45;&gt;y_6f7c9c2e224cc41adae258d1f7a78f06 -->
<g id="edge3" class="edge">
<title>x_1d847da32ecaabf6731c38f798c3d4ce-&gt;y_6f7c9c2e224cc41adae258d1f7a78f06</title>
<path fill="none" stroke="black" d="M790.4,-156.19C850.58,-146.72 987.23,-125.23 1087.22,-109.5"/>
<polygon fill="black" stroke="black" points="1087.47,-113 1096.81,-107.99 1086.38,-106.09 1087.47,-113"/>
</g>
<!-- y_6f7c9c2e224cc41adae258d1f7a78f06&#45;&gt;create_function_job_972d6bcf41cc389c57d8ff495630e021 -->
<g id="edge6" class="edge">
<title>y_6f7c9c2e224cc41adae258d1f7a78f06-&gt;create_function_job_972d6bcf41cc389c57d8ff495630e021</title>
<path fill="none" stroke="black" d="M1107.03,-72.1C1047.64,-61.83 971.67,-48.7 910.14,-38.07"/>
<polygon fill="black" stroke="black" points="910.77,-34.63 900.32,-36.37 909.57,-41.52 910.77,-34.63"/>
</g>
<!-- y_a9ec4f5f33f0d64e74ed5d9900bceac6 -->
<g id="node5" class="node">
<title>y_a9ec4f5f33f0d64e74ed5d9900bceac6</title>
<ellipse fill="none" stroke="black" cx="1022.81" cy="-162" rx="31.74" ry="18"/>
<text text-anchor="middle" x="1022.81" y="-157.32" font-family="Times,serif" font-size="14.00">y=2</text>
</g>
<!-- y_a9ec4f5f33f0d64e74ed5d9900bceac6&#45;&gt;x_f374279468d7303f690ade4e28a68a3d -->
<g id="edge4" class="edge">
<title>y_a9ec4f5f33f0d64e74ed5d9900bceac6-&gt;x_f374279468d7303f690ade4e28a68a3d</title>
<path fill="none" stroke="black" d="M991.72,-157.53C912.83,-148.72 700.62,-125.03 552.03,-108.44"/>
<polygon fill="black" stroke="black" points="552.83,-105.01 542.5,-107.38 552.05,-111.97 552.83,-105.01"/>
</g>
<!-- y_a9ec4f5f33f0d64e74ed5d9900bceac6&#45;&gt;y_6f7c9c2e224cc41adae258d1f7a78f06 -->
<g id="edge5" class="edge">
<title>y_a9ec4f5f33f0d64e74ed5d9900bceac6-&gt;y_6f7c9c2e224cc41adae258d1f7a78f06</title>
<path fill="none" stroke="black" d="M1048.5,-151.12C1074.58,-141.09 1115.8,-125.24 1149.36,-112.33"/>
<polygon fill="black" stroke="black" points="1150.46,-115.65 1158.54,-108.8 1147.95,-109.12 1150.46,-115.65"/>
</g>
</g>
</svg>