<svg xmlns="http://www.w3.org/2000/svg" xmlns:xlink="http://www.w3.org/1999/xlink" width="2942pt" height="476pt" viewBox="0.00 0.00 2941.64 476.00">
<g id="graph0" class="graph" transform="scale(1 1) rotate(0) translate(4 472)">
<polygon fill="white" stroke="none" points="-4,4 -4,-472 2937.64,-472 2937.64,4 -4,4"/>
<!-- create_function_job_ad78d751885eaefc2605f3dceb2cb1aa -->
<g id="node1" class="node">
<title>create_function_job_ad78d751885eaefc2605f3dceb2cb1aa</title>
<ellipse fill="none" stroke="black" cx="1547.35" cy="-18" rx="487.35" ry="18"/>
<text text-anchor="middle" x="1547.35" y="-13.32" font-family="Times,serif" font-size="14.00">create_function_job=&lt;pyiron_base.project.delayed.DelayedObject object at 0x7a27935de600&gt;</text>
</g>
<!-- macros_tex_76816516c28d282cb376f4d1af23a98d -->
<g id="node2" class="node">
<title>macros_tex_76816516c28d282cb376f4d1af23a98d</title>
<ellipse fill="none" stroke="black" cx="2014.35" cy="-90" rx="444.74" ry="18"/>
<text text-anchor="middle" x="2014.35" y="-85.33" font-family="Times,serif" font-size="14.00">macros_tex=&lt;pyiron_base.project.delayed.DelayedObject object at 0x7a291d3866f0&gt;</text>
</g>
<!-- macros_tex_76816516c28d282cb376f4d1af23a98d&#45;&gt;create_function_job_ad78d751885eaefc2605f3dceb2cb1aa -->
<g id="edge1" class="edge">
<title>macros_tex_76816516c28d282cb376f4d1af23a98d-&gt;create_function_job_ad78d751885eaefc2605f3dceb2cb1aa</title>
<path fill="none" stroke="black" d="M1901.89,-72.14C1832.47,-61.74 1743.31,-48.37 1671.77,-37.65"/>
<polygon fill="black" stroke="black" points="1672.35,-34.2 1661.94,-36.18 1671.31,-41.12 1672.35,-34.2"/>
</g>
<!-- pvbatch_output_file_0a1a8a5db5a6aedba38e6ab3d334b644 -->
<g id="node3" class="node">
<title>pvbatch_output_file_0a1a8a5db5a6aedba38e6ab3d334b644</title>
<ellipse fill="none" stroke="black" cx="1649.35" cy="-162" rx="487.35" ry="18"/>
<text text-anchor="middle" x="1649.35" y="-157.32" font-family="Times,serif" font-size="14.00">pvbatch_output_file=&lt;pyiron_base.project.delayed.DelayedObject object at 0x7a291d3863c0&gt;</text>
</g>
<!-- pvbatch_output_file_0a1a8a5db5a6aedba38e6ab3d334b644&#45;&gt;macros_tex_76816516c28d282cb376f4d1af23a98d -->
<g id="edge2" class="edge">
<title>pvbatch_output_file_0a1a8a5db5a6aedba38e6ab3d334b644-&gt;macros_tex_76816516c28d282cb376f4d1af23a98d</title>
<path fill="none" stroke="black" d="M1738.63,-143.88C1791.75,-133.69 1859.26,-120.74 1914.18,-110.21"/>
<polygon fill="black" stroke="black" points="1914.7,-113.67 1923.86,-108.35 1913.38,-106.8 1914.7,-113.67"/>
</g>
<!-- poisson_output_pvd_file_b5205a1ffc6dca69db1460c486a2a2e2 -->
<g id="node4" class="node">
<title>poisson_output_pvd_file_b5205a1ffc6dca69db1460c486a2a2e2</title>
<ellipse fill="none" stroke="black" cx="1542.35" cy="-234" rx="509.45" ry="18"/>
<text text-anchor="middle" x="1542.35" y="-229.32" font-family="Times,serif" font-size="14.00">poisson_output_pvd_file=&lt;pyiron_base.project.delayed.DelayedObject object at 0x7a291d386060&gt;</text>
</g>
<!-- poisson_output_pvd_file_b5205a1ffc6dca69db1460c486a2a2e2&#45;&gt;pvbatch_output_file_0a1a8a5db5a6aedba38e6ab3d334b644 -->
<g id="edge3" class="edge">
<title>poisson_output_pvd_file_b5205a1ffc6dca69db1460c486a2a2e2-&gt;pvbatch_output_file_0a1a8a5db5a6aedba38e6ab3d334b644</title>
<path fill="none" stroke="black" d="M1568.79,-215.7C1582.3,-206.86 1598.92,-195.99 1613.55,-186.41"/>
<polygon fill="black" stroke="black" points="1615.11,-189.58 1621.56,-181.18 1611.28,-183.72 1615.11,-189.58"/>
</g>
<!-- plot_file_0a1a8a5db5a6aedba38e6ab3d334b644 -->
<g id="node5" class="node">
<title>plot_file_0a1a8a5db5a6aedba38e6ab3d334b644</title>
<ellipse fill="none" stroke="black" cx="715.35" cy="-162" rx="428.95" ry="18"/>
<text text-anchor="middle" x="715.35" y="-157.32" font-family="Times,serif" font-size="14.00">plot_file=&lt;pyiron_base.project.delayed.DelayedObject object at 0x7a291d3863c0&gt;</text>
</g>
<!-- poisson_output_pvd_file_b5205a1ffc6dca69db1460c486a2a2e2&#45;&gt;plot_file_0a1a8a5db5a6aedba38e6ab3d334b644 -->
<g id="edge4" class="edge">
<title>poisson_output_pvd_file_b5205a1ffc6dca69db1460c486a2a2e2-&gt;plot_file_0a1a8a5db5a6aedba38e6ab3d334b644</title>
<path fill="none" stroke="black" d="M1351.58,-216.85C1219.69,-205.69 1044.72,-190.88 911.65,-179.62"/>
<polygon fill="black" stroke="black" points="912.3,-176.16 902.04,-178.8 911.71,-183.13 912.3,-176.16"/>
</g>
<!-- plot_file_0a1a8a5db5a6aedba38e6ab3d334b644&#45;&gt;create_function_job_ad78d751885eaefc2605f3dceb2cb1aa -->
<g id="edge18" class="edge">
<title>plot_file_0a1a8a5db5a6aedba38e6ab3d334b644-&gt;create_function_job_ad78d751885eaefc2605f3dceb2cb1aa</title>
<path fill="none" stroke="black" d="M814.88,-144.01C971.2,-117.33 1273.23,-65.78 1436.35,-37.94"/>
<polygon fill="black" stroke="black" points="1436.61,-41.45 1445.88,-36.32 1435.44,-34.55 1436.61,-41.45"/>
</g>
<!-- meshio_output_xdmf_434a8c4d1345685ee8fc0b7e00e32d0a -->
<g id="node6" class="node">
<title>meshio_output_xdmf_434a8c4d1345685ee8fc0b7e00e32d0a</title>
<ellipse fill="none" stroke="black" cx="1432.35" cy="-306" rx="493.67" ry="18"/>
<text text-anchor="middle" x="1432.35" y="-301.32" font-family="Times,serif" font-size="14.00">meshio_output_xdmf=&lt;pyiron_base.project.delayed.DelayedObject object at 0x7a291d361e20&gt;</text>
</g>
<!-- meshio_output_xdmf_434a8c4d1345685ee8fc0b7e00e32d0a&#45;&gt;poisson_output_pvd_file_b5205a1ffc6dca69db1460c486a2a2e2 -->
<g id="edge5" class="edge">
<title>meshio_output_xdmf_434a8c4d1345685ee8fc0b7e00e32d0a-&gt;poisson_output_pvd_file_b5205a1ffc6dca69db1460c486a2a2e2</title>
<path fill="none" stroke="black" d="M1459.54,-287.7C1473.42,-278.86 1490.51,-267.99 1505.55,-258.41"/>
<polygon fill="black" stroke="black" points="1507.25,-261.48 1513.81,-253.16 1503.49,-255.58 1507.25,-261.48"/>
</g>
<!-- poisson_output_vtu_file_483d18e47061d6eead9dec38f84a4d93 -->
<g id="node7" class="node">
<title>poisson_output_vtu_file_483d18e47061d6eead9dec38f84a4d93</title>
<ellipse fill="none" stroke="black" cx="507.35" cy="-234" rx="507.35" ry="18"/>
<text text-anchor="middle" x="507.35" y="-229.32" font-family="Times,serif" font-size="14.00">poisson_output_vtu_file=&lt;pyiron_base.project.delayed.DelayedObject object at 0x7a291d386030&gt;</text>
</g>
<!-- meshio_output_xdmf_434a8c4d1345685ee8fc0b7e00e32d0a&#45;&gt;poisson_output_vtu_file_483d18e47061d6eead9dec38f84a4d93 -->
<g id="edge6" class="edge">
<title>meshio_output_xdmf_434a8c4d1345685ee8fc0b7e00e32d0a-&gt;poisson_output_vtu_file_483d18e47061d6eead9dec38f84a4d93</title>
<path fill="none" stroke="black" d="M1224.18,-289.25C1076.44,-278.07 878.45,-263.08 727.99,-251.7"/>
<polygon fill="black" stroke="black" points="728.53,-248.23 718.29,-250.96 728,-255.21 728.53,-248.23"/>
</g>
<!-- ndofs_c8554a1b671d87672c81c508324bd11c -->
<g id="node8" class="node">
<title>ndofs_c8554a1b671d87672c81c508324bd11c</title>
<ellipse fill="none" stroke="black" cx="2487.35" cy="-234" rx="417.91" ry="18"/>
<text text-anchor="middle" x="2487.35" y="-229.32" font-family="Times,serif" font-size="14.00">ndofs=&lt;pyiron_base.project.delayed.DelayedObject object at 0x7a291d386450&gt;</text>
</g>
<!-- meshio_output_xdmf_434a8c4d1345685ee8fc0b7e00e32d0a&#45;&gt;ndofs_c8554a1b671d87672c81c508324bd11c -->
<g id="edge7" class="edge">
<title>meshio_output_xdmf_434a8c4d1345685ee8fc0b7e00e32d0a-&gt;ndofs_c8554a1b671d87672c81c508324bd11c</title>
<path fill="none" stroke="black" d="M1663.54,-289.66C1838.91,-278.02 2078.95,-262.1 2254.67,-250.44"/>
<polygon fill="black" stroke="black" points="2254.9,-253.93 2264.64,-249.78 2254.43,-246.95 2254.9,-253.93"/>
</g>
<!-- poisson_output_vtu_file_483d18e47061d6eead9dec38f84a4d93&#45;&gt;pvbatch_output_file_0a1a8a5db5a6aedba38e6ab3d334b644 -->
<g id="edge15" class="edge">
<title>poisson_output_vtu_file_483d18e47061d6eead9dec38f84a4d93-&gt;pvbatch_output_file_0a1a8a5db5a6aedba38e6ab3d334b644</title>
<path fill="none" stroke="black" d="M754.44,-217.85C943.17,-206.29 1202.45,-190.39 1393.35,-178.69"/>
<polygon fill="black" stroke="black" points="1393.4,-182.2 1403.17,-178.09 1392.97,-175.21 1393.4,-182.2"/>
</g>
<!-- poisson_output_vtu_file_483d18e47061d6eead9dec38f84a4d93&#45;&gt;plot_file_0a1a8a5db5a6aedba38e6ab3d334b644 -->
<g id="edge16" class="edge">
<title>poisson_output_vtu_file_483d18e47061d6eead9dec38f84a4d93-&gt;plot_file_0a1a8a5db5a6aedba38e6ab3d334b644</title>
<path fill="none" stroke="black" d="M559.03,-215.61C587.53,-206.01 623.13,-194.04 653.14,-183.93"/>
<polygon fill="black" stroke="black" points="654.13,-187.29 662.49,-180.79 651.9,-180.66 654.13,-187.29"/>
</g>
<!-- ndofs_c8554a1b671d87672c81c508324bd11c&#45;&gt;macros_tex_76816516c28d282cb376f4d1af23a98d -->
<g id="edge17" class="edge">
<title>ndofs_c8554a1b671d87672c81c508324bd11c-&gt;macros_tex_76816516c28d282cb376f4d1af23a98d</title>
<path fill="none" stroke="black" d="M2429.82,-215.73C2342.31,-189.46 2176.08,-139.55 2082.59,-111.49"/>
<polygon fill="black" stroke="black" points="2083.87,-108.22 2073.29,-108.7 2081.86,-114.92 2083.87,-108.22"/>
</g>
<!-- gmsh_output_file_78213b177bb355e1585daee03d735c19 -->
<g id="node9" class="node">
<title>gmsh_output_file_78213b177bb355e1585daee03d735c19</title>
<ellipse fill="none" stroke="black" cx="2424.35" cy="-378" rx="475.25" ry="18"/>
<text text-anchor="middle" x="2424.35" y="-373.32" font-family="Times,serif" font-size="14.00">gmsh_output_file=&lt;pyiron_base.project.delayed.DelayedObject object at 0x7a291d385a60&gt;</text>
</g>
<!-- gmsh_output_file_78213b177bb355e1585daee03d735c19&#45;&gt;meshio_output_xdmf_434a8c4d1345685ee8fc0b7e00e32d0a -->
<g id="edge8" class="edge">
<title>gmsh_output_file_78213b177bb355e1585daee03d735c19-&gt;meshio_output_xdmf_434a8c4d1345685ee8fc0b7e00e32d0a</title>
<path fill="none" stroke="black" d="M2205.73,-361.57C2045.11,-350.24 1827.29,-334.87 1663.75,-323.33"/>
<polygon fill="black" stroke="black" points="1664.29,-319.86 1654.07,-322.65 1663.8,-326.84 1664.29,-319.86"/>
</g>
<!-- meshio_output_h5_efac48e79bcba581ea1c6da5811cd281 -->
<g id="node10" class="node">
<title>meshio_output_h5_efac48e79bcba581ea1c6da5811cd281</title>
<ellipse fill="none" stroke="black" cx="2424.35" cy="-306" rx="480.51" ry="18"/>
<text text-anchor="middle" x="2424.35" y="-301.32" font-family="Times,serif" font-size="14.00">meshio_output_h5=&lt;pyiron_base.project.delayed.DelayedObject object at 0x7a291d385c40&gt;</text>
</g>
<!-- gmsh_output_file_78213b177bb355e1585daee03d735c19&#45;&gt;meshio_output_h5_efac48e79bcba581ea1c6da5811cd281 -->
<g id="edge9" class="edge">
<title>gmsh_output_file_78213b177bb355e1585daee03d735c19-&gt;meshio_output_h5_efac48e79bcba581ea1c6da5811cd281</title>
<path fill="none" stroke="black" d="M2424.35,-359.7C2424.35,-352.41 2424.35,-343.73 2424.35,-335.54"/>
<polygon fill="black" stroke="black" points="2427.85,-335.62 2424.35,-325.62 2420.85,-335.62 2427.85,-335.62"/>
</g>
<!-- meshio_output_h5_efac48e79bcba581ea1c6da5811cd281&#45;&gt;poisson_output_pvd_file_b5205a1ffc6dca69db1460c486a2a2e2 -->
<g id="edge12" class="edge">
<title>meshio_output_h5_efac48e79bcba581ea1c6da5811cd281-&gt;poisson_output_pvd_file_b5205a1ffc6dca69db1460c486a2a2e2</title>
<path fill="none" stroke="black" d="M2225.03,-289.18C2084.88,-278.06 1897.62,-263.2 1754.67,-251.85"/>
<polygon fill="black" stroke="black" points="1755.34,-248.39 1745.1,-251.09 1754.79,-255.37 1755.34,-248.39"/>
</g>
<!-- meshio_output_h5_efac48e79bcba581ea1c6da5811cd281&#45;&gt;poisson_output_vtu_file_483d18e47061d6eead9dec38f84a4d93 -->
<g id="edge13" class="edge">
<title>meshio_output_h5_efac48e79bcba581ea1c6da5811cd281-&gt;poisson_output_vtu_file_483d18e47061d6eead9dec38f84a4d93</title>
<path fill="none" stroke="black" d="M2088.78,-292.75C1745.36,-280.21 1213.71,-260.79 863.12,-247.99"/>
<polygon fill="black" stroke="black" points="863.4,-244.5 853.28,-247.63 863.14,-251.49 863.4,-244.5"/>
</g>
<!-- meshio_output_h5_efac48e79bcba581ea1c6da5811cd281&#45;&gt;ndofs_c8554a1b671d87672c81c508324bd11c -->
<g id="edge14" class="edge">
<title>meshio_output_h5_efac48e79bcba581ea1c6da5811cd281-&gt;ndofs_c8554a1b671d87672c81c508324bd11c</title>
<path fill="none" stroke="black" d="M2439.92,-287.7C2447.32,-279.47 2456.31,-269.48 2464.47,-260.42"/>
<polygon fill="black" stroke="black" points="2466.85,-263 2470.94,-253.23 2461.65,-258.32 2466.85,-263"/>
</g>
<!-- domain_size_f12a7f1986b9dd058dfc666dbe230b20 -->
<g id="node11" class="node">
<title>domain_size_f12a7f1986b9dd058dfc666dbe230b20</title>
<ellipse fill="none" stroke="black" cx="2678.35" cy="-450" rx="96.45" ry="18"/>
<text text-anchor="middle" x="2678.35" y="-445.32" font-family="Times,serif" font-size="14.00">domain_size=2.0</text>
</g>
<!-- domain_size_f12a7f1986b9dd058dfc666dbe230b20&#45;&gt;macros_tex_76816516c28d282cb376f4d1af23a98d -->
<g id="edge10" class="edge">
<title>domain_size_f12a7f1986b9dd058dfc666dbe230b20-&gt;macros_tex_76816516c28d282cb376f4d1af23a98d</title>
<path fill="none" stroke="black" d="M2757.55,-439.44C2815.18,-430.93 2886.74,-416.61 2908.35,-396 2938.08,-367.64 2933.35,-348.09 2933.35,-307 2933.35,-307 2933.35,-307 2933.35,-233 2933.35,-165.7 2543.43,-125.83 2271.55,-106.2"/>
<polygon fill="black" stroke="black" points="2272.05,-102.73 2261.83,-105.51 2271.55,-109.71 2272.05,-102.73"/>
</g>
<!-- domain_size_f12a7f1986b9dd058dfc666dbe230b20&#45;&gt;gmsh_output_file_78213b177bb355e1585daee03d735c19 -->
<g id="edge11" class="edge">
<title>domain_size_f12a7f1986b9dd058dfc666dbe230b20-&gt;gmsh_output_file_78213b177bb355e1585daee03d735c19</title>
<path fill="none" stroke="black" d="M2625.72,-434.5C2588.85,-424.33 2539.06,-410.62 2498.22,-399.36"/>
<polygon fill="black" stroke="black" points="2499.26,-396.02 2488.69,-396.73 2497.4,-402.76 2499.26,-396.02"/>
</g>
</g>
</svg>