<svg xmlns="http://www.w3.org/2000/svg" xmlns:xlink="http://www.w3.org/1999/xlink" width="2912pt" height="476pt" viewBox="0.00 0.00 2912.38 476.00">
<g id="graph0" class="graph" transform="scale(1 1) rotate(0) translate(4 472)">
<polygon fill="white" stroke="none" points="-4,4 -4,-472 2908.38,-472 2908.38,4 -4,4"/>
<!-- create_function_job_540f87366e9d2012847fc7cd300d7387 -->
<g id="node1" class="node">
<title>create_function_job_540f87366e9d2012847fc7cd300d7387</title>
<ellipse fill="none" stroke="black" cx="1532.08" cy="-18" rx="479.99" ry="18"/>
<text text-anchor="middle" x="1532.08" y="-13.32" font-family="Times,serif" font-size="14.00">create_function_job=&lt;pyiron_base.project.delayed.DelayedObject object at 0x784df5d5fef0&gt;</text>
</g>
<!-- macros_tex_7e50dc06332e1809c8fe30ee1d48fd5a -->
<g id="node2" class="node">
<title>macros_tex_7e50dc06332e1809c8fe30ee1d48fd5a</title>
<ellipse fill="none" stroke="black" cx="1995.08" cy="-90" rx="442.63" ry="18"/>
<text text-anchor="middle" x="1995.08" y="-85.33" font-family="Times,serif" font-size="14.00">macros_tex=&lt;pyiron_base.project.delayed.DelayedObject object at 0x784df5d5fd10&gt;</text>
</g>
<!-- macros_tex_7e50dc06332e1809c8fe30ee1d48fd5a&#45;&gt;create_function_job_540f87366e9d2012847fc7cd300d7387 -->
<g id="edge1" class="edge">
<title>macros_tex_7e50dc06332e1809c8fe30ee1d48fd5a-&gt;create_function_job_540f87366e9d2012847fc7cd300d7387</title>
<path fill="none" stroke="black" d="M1883.3,-72.1C1814.46,-61.69 1726.14,-48.34 1655.29,-37.63"/>
<polygon fill="black" stroke="black" points="1655.98,-34.19 1645.57,-36.16 1654.93,-41.11 1655.98,-34.19"/>
</g>
<!-- pvbatch_output_file_10790f77479ebcaaa52a128a418bbaf9 -->
<g id="node3" class="node">
<title>pvbatch_output_file_10790f77479ebcaaa52a128a418bbaf9</title>
<ellipse fill="none" stroke="black" cx="1633.08" cy="-162" rx="483.14" ry="18"/>
<text text-anchor="middle" x="1633.08" y="-157.32" font-family="Times,serif" font-size="14.00">pvbatch_output_file=&lt;pyiron_base.project.delayed.DelayedObject object at 0x784df5d5fa70&gt;</text>
</g>
<!-- pvbatch_output_file_10790f77479ebcaaa52a128a418bbaf9&#45;&gt;macros_tex_7e50dc06332e1809c8fe30ee1d48fd5a -->
<g id="edge2" class="edge">
<title>pvbatch_output_file_10790f77479ebcaaa52a128a418bbaf9-&gt;macros_tex_7e50dc06332e1809c8fe30ee1d48fd5a</title>
<path fill="none" stroke="black" d="M1721.64,-143.88C1774.32,-133.69 1841.27,-120.74 1895.74,-110.21"/>
<polygon fill="black" stroke="black" points="1896.18,-113.69 1905.33,-108.36 1894.85,-106.82 1896.18,-113.69"/>
</g>
<!-- poisson_output_pvd_file_833dadabb722663d51a4450bb5493e8d -->
<g id="node4" class="node">
<title>poisson_output_pvd_file_833dadabb722663d51a4450bb5493e8d</title>
<ellipse fill="none" stroke="black" cx="1527.08" cy="-234" rx="504.71" ry="18"/>
<text text-anchor="middle" x="1527.08" y="-229.32" font-family="Times,serif" font-size="14.00">poisson_output_pvd_file=&lt;pyiron_base.project.delayed.DelayedObject object at 0x784df5d5f710&gt;</text>
</g>
<!-- poisson_output_pvd_file_833dadabb722663d51a4450bb5493e8d&#45;&gt;pvbatch_output_file_10790f77479ebcaaa52a128a418bbaf9 -->
<g id="edge3" class="edge">
<title>poisson_output_pvd_file_833dadabb722663d51a4450bb5493e8d-&gt;pvbatch_output_file_10790f77479ebcaaa52a128a418bbaf9</title>
<path fill="none" stroke="black" d="M1553.29,-215.7C1566.54,-206.95 1582.82,-196.19 1597.21,-186.69"/>
<polygon fill="black" stroke="black" points="1599.14,-189.61 1605.55,-181.18 1595.28,-183.77 1599.14,-189.61"/>
</g>
<!-- plot_file_10790f77479ebcaaa52a128a418bbaf9 -->
<g id="node5" class="node">
<title>plot_file_10790f77479ebcaaa52a128a418bbaf9</title>
<ellipse fill="none" stroke="black" cx="707.08" cy="-162" rx="424.75" ry="18"/>
<text text-anchor="middle" x="707.08" y="-157.32" font-family="Times,serif" font-size="14.00">plot_file=&lt;pyiron_base.project.delayed.DelayedObject object at 0x784df5d5fa70&gt;</text>
</g>
<!-- poisson_output_pvd_file_833dadabb722663d51a4450bb5493e8d&#45;&gt;plot_file_10790f77479ebcaaa52a128a418bbaf9 -->
<g id="edge4" class="edge">
<title>poisson_output_pvd_file_833dadabb722663d51a4450bb5493e8d-&gt;plot_file_10790f77479ebcaaa52a128a418bbaf9</title>
<path fill="none" stroke="black" d="M1337.93,-216.85C1207.29,-205.7 1034.02,-190.91 902.13,-179.65"/>
<polygon fill="black" stroke="black" points="902.47,-176.17 892.21,-178.8 901.87,-183.14 902.47,-176.17"/>
</g>
<!-- plot_file_10790f77479ebcaaa52a128a418bbaf9&#45;&gt;create_function_job_540f87366e9d2012847fc7cd300d7387 -->
<g id="edge18" class="edge">
<title>plot_file_10790f77479ebcaaa52a128a418bbaf9-&gt;create_function_job_540f87366e9d2012847fc7cd300d7387</title>
<path fill="none" stroke="black" d="M805.78,-144.01C960.79,-117.33 1260.27,-65.78 1422.03,-37.94"/>
<polygon fill="black" stroke="black" points="1422.2,-41.46 1431.46,-36.32 1421.01,-34.57 1422.2,-41.46"/>
</g>
<!-- meshio_output_xdmf_98f79427fb4d7ccf8291df7fc1ac6838 -->
<g id="node6" class="node">
<title>meshio_output_xdmf_98f79427fb4d7ccf8291df7fc1ac6838</title>
<ellipse fill="none" stroke="black" cx="1415.08" cy="-306" rx="489.46" ry="18"/>
<text text-anchor="middle" x="1415.08" y="-301.32" font-family="Times,serif" font-size="14.00">meshio_output_xdmf=&lt;pyiron_base.project.delayed.DelayedObject object at 0x784df5d5f3b0&gt;</text>
</g>
<!-- meshio_output_xdmf_98f79427fb4d7ccf8291df7fc1ac6838&#45;&gt;poisson_output_pvd_file_833dadabb722663d51a4450bb5493e8d -->
<g id="edge5" class="edge">
<title>meshio_output_xdmf_98f79427fb4d7ccf8291df7fc1ac6838-&gt;poisson_output_pvd_file_833dadabb722663d51a4450bb5493e8d</title>
<path fill="none" stroke="black" d="M1442.77,-287.7C1456.9,-278.86 1474.31,-267.99 1489.62,-258.41"/>
<polygon fill="black" stroke="black" points="1491.42,-261.42 1498.05,-253.15 1487.71,-255.48 1491.42,-261.42"/>
</g>
<!-- poisson_output_vtu_file_a9608d2bb2030c145ddffeb990e126ac -->
<g id="node7" class="node">
<title>poisson_output_vtu_file_a9608d2bb2030c145ddffeb990e126ac</title>
<ellipse fill="none" stroke="black" cx="502.08" cy="-234" rx="502.08" ry="18"/>
<text text-anchor="middle" x="502.08" y="-229.32" font-family="Times,serif" font-size="14.00">poisson_output_vtu_file=&lt;pyiron_base.project.delayed.DelayedObject object at 0x784df5d5f6e0&gt;</text>
</g>
<!-- meshio_output_xdmf_98f79427fb4d7ccf8291df7fc1ac6838&#45;&gt;poisson_output_vtu_file_a9608d2bb2030c145ddffeb990e126ac -->
<g id="edge6" class="edge">
<title>meshio_output_xdmf_98f79427fb4d7ccf8291df7fc1ac6838-&gt;poisson_output_vtu_file_a9608d2bb2030c145ddffeb990e126ac</title>
<path fill="none" stroke="black" d="M1209.34,-289.23C1063.5,-278.04 868.17,-263.07 719.73,-251.69"/>
<polygon fill="black" stroke="black" points="720.43,-248.23 710.19,-250.96 719.89,-255.21 720.43,-248.23"/>
</g>
<!-- ndofs_87378fae3980624a699f18e869088c97 -->
<g id="node8" class="node">
<title>ndofs_87378fae3980624a699f18e869088c97</title>
<ellipse fill="none" stroke="black" cx="2463.08" cy="-234" rx="413.17" ry="18"/>
<text text-anchor="middle" x="2463.08" y="-229.32" font-family="Times,serif" font-size="14.00">ndofs=&lt;pyiron_base.project.delayed.DelayedObject object at 0x784df5d5fb00&gt;</text>
</g>
<!-- meshio_output_xdmf_98f79427fb4d7ccf8291df7fc1ac6838&#45;&gt;ndofs_87378fae3980624a699f18e869088c97 -->
<g id="edge7" class="edge">
<title>meshio_output_xdmf_98f79427fb4d7ccf8291df7fc1ac6838-&gt;ndofs_87378fae3980624a699f18e869088c97</title>
<path fill="none" stroke="black" d="M1644.75,-289.66C1819.1,-278.01 2057.8,-262.07 2232.4,-250.41"/>
<polygon fill="black" stroke="black" points="2232.55,-253.91 2242.3,-249.75 2232.09,-246.92 2232.55,-253.91"/>
</g>
<!-- poisson_output_vtu_file_a9608d2bb2030c145ddffeb990e126ac&#45;&gt;pvbatch_output_file_10790f77479ebcaaa52a128a418bbaf9 -->
<g id="edge15" class="edge">
<title>poisson_output_vtu_file_a9608d2bb2030c145ddffeb990e126ac-&gt;pvbatch_output_file_10790f77479ebcaaa52a128a418bbaf9</title>
<path fill="none" stroke="black" d="M746.8,-217.85C933.71,-206.29 1190.49,-190.39 1379.56,-178.69"/>
<polygon fill="black" stroke="black" points="1379.5,-182.2 1389.26,-178.09 1379.07,-175.22 1379.5,-182.2"/>
</g>
<!-- poisson_output_vtu_file_a9608d2bb2030c145ddffeb990e126ac&#45;&gt;plot_file_10790f77479ebcaaa52a128a418bbaf9 -->
<g id="edge16" class="edge">
<title>poisson_output_vtu_file_a9608d2bb2030c145ddffeb990e126ac-&gt;plot_file_10790f77479ebcaaa52a128a418bbaf9</title>
<path fill="none" stroke="black" d="M553.02,-215.61C581.11,-206.01 616.19,-194.04 645.78,-183.93"/>
<polygon fill="black" stroke="black" points="646.64,-187.34 654.98,-180.79 644.38,-180.71 646.64,-187.34"/>
</g>
<!-- ndofs_87378fae3980624a699f18e869088c97&#45;&gt;macros_tex_7e50dc06332e1809c8fe30ee1d48fd5a -->
<g id="edge17" class="edge">
<title>ndofs_87378fae3980624a699f18e869088c97-&gt;macros_tex_7e50dc06332e1809c8fe30ee1d48fd5a</title>
<path fill="none" stroke="black" d="M2406.17,-215.73C2319.67,-189.49 2155.44,-139.66 2062.89,-111.57"/>
<polygon fill="black" stroke="black" points="2064.01,-108.25 2053.42,-108.7 2061.97,-114.95 2064.01,-108.25"/>
</g>
<!-- gmsh_output_file_b3f6074f84f86309b317934247a8ae12 -->
<g id="node9" class="node">
<title>gmsh_output_file_b3f6074f84f86309b317934247a8ae12</title>
<ellipse fill="none" stroke="black" cx="2399.08" cy="-378" rx="471.04" ry="18"/>
<text text-anchor="middle" x="2399.08" y="-373.32" font-family="Times,serif" font-size="14.00">gmsh_output_file=&lt;pyiron_base.project.delayed.DelayedObject object at 0x784df5d5f170&gt;</text>
</g>
<!-- gmsh_output_file_b3f6074f84f86309b317934247a8ae12&#45;&gt;meshio_output_xdmf_98f79427fb4d7ccf8291df7fc1ac6838 -->
<g id="edge8" class="edge">
<title>gmsh_output_file_b3f6074f84f86309b317934247a8ae12-&gt;meshio_output_xdmf_98f79427fb4d7ccf8291df7fc1ac6838</title>
<path fill="none" stroke="black" d="M2182.23,-361.57C2022.91,-350.24 1806.85,-334.87 1644.62,-323.33"/>
<polygon fill="black" stroke="black" points="1645.26,-319.87 1635.03,-322.65 1644.76,-326.85 1645.26,-319.87"/>
</g>
<!-- meshio_output_h5_f8b981e1a2ec68db7cdb678f7f634c18 -->
<g id="node10" class="node">
<title>meshio_output_h5_f8b981e1a2ec68db7cdb678f7f634c18</title>
<ellipse fill="none" stroke="black" cx="2399.08" cy="-306" rx="476.83" ry="18"/>
<text text-anchor="middle" x="2399.08" y="-301.32" font-family="Times,serif" font-size="14.00">meshio_output_h5=&lt;pyiron_base.project.delayed.DelayedObject object at 0x784df5d5f380&gt;</text>
</g>
<!-- gmsh_output_file_b3f6074f84f86309b317934247a8ae12&#45;&gt;meshio_output_h5_f8b981e1a2ec68db7cdb678f7f634c18 -->
<g id="edge9" class="edge">
<title>gmsh_output_file_b3f6074f84f86309b317934247a8ae12-&gt;meshio_output_h5_f8b981e1a2ec68db7cdb678f7f634c18</title>
<path fill="none" stroke="black" d="M2399.08,-359.7C2399.08,-352.41 2399.08,-343.73 2399.08,-335.54"/>
<polygon fill="black" stroke="black" points="2402.58,-335.62 2399.08,-325.62 2395.58,-335.62 2402.58,-335.62"/>
</g>
<!-- meshio_output_h5_f8b981e1a2ec68db7cdb678f7f634c18&#45;&gt;poisson_output_pvd_file_833dadabb722663d51a4450bb5493e8d -->
<g id="edge12" class="edge">
<title>meshio_output_h5_f8b981e1a2ec68db7cdb678f7f634c18-&gt;poisson_output_pvd_file_833dadabb722663d51a4450bb5493e8d</title>
<path fill="none" stroke="black" d="M2201.76,-289.16C2063.45,-278.06 1878.82,-263.24 1737.67,-251.9"/>
<polygon fill="black" stroke="black" points="1738.06,-248.42 1727.81,-251.11 1737.5,-255.4 1738.06,-248.42"/>
</g>
<!-- meshio_output_h5_f8b981e1a2ec68db7cdb678f7f634c18&#45;&gt;poisson_output_vtu_file_a9608d2bb2030c145ddffeb990e126ac -->
<g id="edge13" class="edge">
<title>meshio_output_h5_f8b981e1a2ec68db7cdb678f7f634c18-&gt;poisson_output_vtu_file_a9608d2bb2030c145ddffeb990e126ac</title>
<path fill="none" stroke="black" d="M2066.75,-292.74C1726.95,-280.2 1201.15,-260.8 854.3,-248"/>
<polygon fill="black" stroke="black" points="854.44,-244.5 844.32,-247.63 854.18,-251.5 854.44,-244.5"/>
</g>
<!-- meshio_output_h5_f8b981e1a2ec68db7cdb678f7f634c18&#45;&gt;ndofs_87378fae3980624a699f18e869088c97 -->
<g id="edge14" class="edge">
<title>meshio_output_h5_f8b981e1a2ec68db7cdb678f7f634c18-&gt;ndofs_87378fae3980624a699f18e869088c97</title>
<path fill="none" stroke="black" d="M2414.9,-287.7C2422.42,-279.47 2431.56,-269.48 2439.84,-260.42"/>
<polygon fill="black" stroke="black" points="2442.26,-262.96 2446.42,-253.22 2437.09,-258.24 2442.26,-262.96"/>
</g>
<!-- domain_size_f12a7f1986b9dd058dfc666dbe230b20 -->
<g id="node11" class="node">
<title>domain_size_f12a7f1986b9dd058dfc666dbe230b20</title>
<ellipse fill="none" stroke="black" cx="2651.08" cy="-450" rx="96.45" ry="18"/>
<text text-anchor="middle" x="2651.08" y="-445.32" font-family="Times,serif" font-size="14.00">domain_size=2.0</text>
</g>
<!-- domain_size_f12a7f1986b9dd058dfc666dbe230b20&#45;&gt;macros_tex_7e50dc06332e1809c8fe30ee1d48fd5a -->
<g id="edge10" class="edge">
<title>domain_size_f12a7f1986b9dd058dfc666dbe230b20-&gt;macros_tex_7e50dc06332e1809c8fe30ee1d48fd5a</title>
<path fill="none" stroke="black" d="M2729.9,-439.32C2786.98,-430.75 2857.71,-416.43 2879.08,-396 2908.79,-367.62 2904.08,-348.09 2904.08,-307 2904.08,-307 2904.08,-307 2904.08,-233 2904.08,-166.24 2516.41,-126.12 2247.41,-106.31"/>
<polygon fill="black" stroke="black" points="2248.03,-102.85 2237.8,-105.61 2247.52,-109.83 2248.03,-102.85"/>
</g>
<!-- domain_size_f12a7f1986b9dd058dfc666dbe230b20&#45;&gt;gmsh_output_file_b3f6074f84f86309b317934247a8ae12 -->
<g id="edge11" class="edge">
<title>domain_size_f12a7f1986b9dd058dfc666dbe230b20-&gt;gmsh_output_file_b3f6074f84f86309b317934247a8ae12</title>
<path fill="none" stroke="black" d="M2598.87,-434.5C2562.29,-424.33 2512.9,-410.62 2472.38,-399.36"/>
<polygon fill="black" stroke="black" points="2473.51,-396.04 2462.93,-396.74 2471.63,-402.78 2473.51,-396.04"/>
</g>
</g>
</svg>