<svg xmlns="http://www.w3.org/2000/svg" xmlns:xlink="http://www.w3.org/1999/xlink" width="2970pt" height="758pt" viewBox="0.00 0.00 2970.47 758.00">
<g id="graph0" class="graph" transform="scale(1 1) rotate(0) translate(4 754)">
<polygon fill="white" stroke="none" points="-4,4 -4,-754 2966.47,-754 2966.47,4 -4,4"/>
<!-- 0 -->
<g id="node1" class="node">
<title>0</title>
<ellipse fill="none" stroke="black" cx="1328.73" cy="-642.75" rx="251.13" ry="18"/>
<text text-anchor="middle" x="1328.73" y="-638.08" font-family="Times,serif" font-size="14.00">quantum_espresso_workflow.get_bulk_structure</text>
</g>
<!-- 13 -->
<g id="node2" class="node">
<title>13</title>
<ellipse fill="none" stroke="black" cx="1142.73" cy="-553.5" rx="228.51" ry="18"/>
<text text-anchor="middle" x="1142.73" y="-548.83" font-family="Times,serif" font-size="14.00">python_workflow_definition.shared.get_dict</text>
</g>
<!-- 0&#45;&gt;13 -->
<g id="edge1" class="edge">
<title>0-&gt;13</title>
<path fill="none" stroke="black" d="M1161.82,-628.95C1137.88,-623.83 1118.47,-616.7 1109.98,-606.75 1103.11,-598.69 1106.45,-589.04 1113.13,-580.25"/>
<polygon fill="black" stroke="black" points="1115.6,-582.74 1119.66,-572.96 1110.38,-578.07 1115.6,-582.74"/>
<text text-anchor="middle" x="1143.36" y="-593.45" font-family="Times,serif" font-size="14.00">structure</text>
</g>
<!-- 1 -->
<g id="node3" class="node">
<title>1</title>
<ellipse fill="none" stroke="black" cx="1255.73" cy="-464.25" rx="218.51" ry="18"/>
<text text-anchor="middle" x="1255.73" y="-459.57" font-family="Times,serif" font-size="14.00">quantum_espresso_workflow.calculate_qe</text>
</g>
<!-- 13&#45;&gt;1 -->
<g id="edge22" class="edge">
<title>13-&gt;1</title>
<path fill="none" stroke="black" d="M1165.06,-535.26C1182.01,-522.18 1205.52,-504.02 1224.36,-489.47"/>
<polygon fill="black" stroke="black" points="1226.48,-492.26 1232.26,-483.38 1222.2,-486.72 1226.48,-492.26"/>
<text text-anchor="middle" x="1244.98" y="-504.2" font-family="Times,serif" font-size="14.00">input_dict</text>
</g>
<!-- 2 -->
<g id="node4" class="node">
<title>2</title>
<ellipse fill="none" stroke="black" cx="1453.73" cy="-375" rx="258.5" ry="18"/>
<text text-anchor="middle" x="1453.73" y="-370.32" font-family="Times,serif" font-size="14.00">quantum_espresso_workflow.generate_structures</text>
</g>
<!-- 1&#45;&gt;2 -->
<g id="edge2" class="edge">
<title>1-&gt;2</title>
<path fill="none" stroke="black" d="M1276.55,-445.92C1290.99,-434.63 1311.09,-420.32 1330.73,-411 1342.8,-405.28 1355.99,-400.31 1369.1,-396.06"/>
<polygon fill="black" stroke="black" points="1370.12,-399.41 1378.63,-393.11 1368.05,-392.73 1370.12,-399.41"/>
<text text-anchor="middle" x="1429.73" y="-414.95" font-family="Times,serif" font-size="14.00">structure=result[structure]</text>
</g>
<!-- 20 -->
<g id="node5" class="node">
<title>20</title>
<ellipse fill="none" stroke="black" cx="2612.73" cy="-285.75" rx="228.51" ry="18"/>
<text text-anchor="middle" x="2612.73" y="-281.07" font-family="Times,serif" font-size="14.00">python_workflow_definition.shared.get_dict</text>
</g>
<!-- 2&#45;&gt;20 -->
<g id="edge3" class="edge">
<title>2-&gt;20</title>
<path fill="none" stroke="black" d="M1649.38,-362.91C1685.73,-360.9 1723.38,-358.85 1758.73,-357 1921.37,-348.47 1962.96,-357.82 2124.73,-339 2166.71,-334.12 2176.36,-327.46 2218.23,-321.75 2288.09,-312.23 2365.28,-304.72 2432.72,-299.14"/>
<polygon fill="black" stroke="black" points="2432.7,-302.65 2442.38,-298.35 2432.13,-295.67 2432.7,-302.65"/>
<text text-anchor="middle" x="2295.48" y="-325.7" font-family="Times,serif" font-size="14.00">structure=result[s_0]</text>
</g>
<!-- 23 -->
<g id="node6" class="node">
<title>23</title>
<ellipse fill="none" stroke="black" cx="349.73" cy="-285.75" rx="228.51" ry="18"/>
<text text-anchor="middle" x="349.73" y="-281.07" font-family="Times,serif" font-size="14.00">python_workflow_definition.shared.get_dict</text>
</g>
<!-- 2&#45;&gt;23 -->
<g id="edge4" class="edge">
<title>2-&gt;23</title>
<path fill="none" stroke="black" d="M1278.31,-361.41C1189.05,-354.9 1078.85,-346.73 980.23,-339 821.06,-326.52 639.36,-311.37 512.04,-300.6"/>
<polygon fill="black" stroke="black" points="512.43,-297.12 502.17,-299.76 511.84,-304.1 512.43,-297.12"/>
<text text-anchor="middle" x="1057.48" y="-325.7" font-family="Times,serif" font-size="14.00">structure=result[s_1]</text>
</g>
<!-- 25 -->
<g id="node7" class="node">
<title>25</title>
<ellipse fill="none" stroke="black" cx="945.73" cy="-285.75" rx="228.51" ry="18"/>
<text text-anchor="middle" x="945.73" y="-281.07" font-family="Times,serif" font-size="14.00">python_workflow_definition.shared.get_dict</text>
</g>
<!-- 2&#45;&gt;25 -->
<g id="edge5" class="edge">
<title>2-&gt;25</title>
<path fill="none" stroke="black" d="M1375.94,-357.4C1350.77,-351.81 1322.76,-345.37 1297.23,-339 1269.28,-332.02 1263,-327.33 1234.73,-321.75 1191.97,-313.31 1145.22,-306.58 1102.03,-301.37"/>
<polygon fill="black" stroke="black" points="1102.68,-297.93 1092.33,-300.23 1101.85,-304.88 1102.68,-297.93"/>
<text text-anchor="middle" x="1374.48" y="-325.7" font-family="Times,serif" font-size="14.00">structure=result[s_2]</text>
</g>
<!-- 27 -->
<g id="node8" class="node">
<title>27</title>
<ellipse fill="none" stroke="black" cx="2137.73" cy="-285.75" rx="228.51" ry="18"/>
<text text-anchor="middle" x="2137.73" y="-281.07" font-family="Times,serif" font-size="14.00">python_workflow_definition.shared.get_dict</text>
</g>
<!-- 2&#45;&gt;27 -->
<g id="edge6" class="edge">
<title>2-&gt;27</title>
<path fill="none" stroke="black" d="M1641.95,-362.32C1731.56,-355.79 1823.43,-347.32 1842.73,-339 1853.36,-334.42 1851.69,-326.52 1862.23,-321.75 1882.28,-312.67 1923.04,-305.62 1967.21,-300.3"/>
<polygon fill="black" stroke="black" points="1967.47,-303.79 1977,-299.16 1966.66,-296.84 1967.47,-303.79"/>
<text text-anchor="middle" x="1939.48" y="-325.7" font-family="Times,serif" font-size="14.00">structure=result[s_3]</text>
</g>
<!-- 29 -->
<g id="node9" class="node">
<title>29</title>
<ellipse fill="none" stroke="black" cx="1541.73" cy="-285.75" rx="228.51" ry="18"/>
<text text-anchor="middle" x="1541.73" y="-281.07" font-family="Times,serif" font-size="14.00">python_workflow_definition.shared.get_dict</text>
</g>
<!-- 2&#45;&gt;29 -->
<g id="edge7" class="edge">
<title>2-&gt;29</title>
<path fill="none" stroke="black" d="M1452.94,-356.82C1453.29,-345.74 1455.49,-331.61 1463.23,-321.75 1466.83,-317.17 1471.15,-313.18 1475.89,-309.69"/>
<polygon fill="black" stroke="black" points="1477.62,-312.74 1484.18,-304.42 1473.86,-306.84 1477.62,-312.74"/>
<text text-anchor="middle" x="1540.48" y="-325.7" font-family="Times,serif" font-size="14.00">structure=result[s_4]</text>
</g>
<!-- 3 -->
<g id="node10" class="node">
<title>3</title>
<ellipse fill="none" stroke="black" cx="2523.73" cy="-196.5" rx="218.51" ry="18"/>
<text text-anchor="middle" x="2523.73" y="-191.82" font-family="Times,serif" font-size="14.00">quantum_espresso_workflow.calculate_qe</text>
</g>
<!-- 20&#45;&gt;3 -->
<g id="edge44" class="edge">
<title>20-&gt;3</title>
<path fill="none" stroke="black" d="M2595.15,-267.51C2582.11,-254.73 2564.12,-237.09 2549.46,-222.72"/>
<polygon fill="black" stroke="black" points="2551.95,-220.26 2542.36,-215.76 2547.05,-225.26 2551.95,-220.26"/>
<text text-anchor="middle" x="2611.83" y="-236.45" font-family="Times,serif" font-size="14.00">input_dict</text>
</g>
<!-- 4 -->
<g id="node13" class="node">
<title>4</title>
<ellipse fill="none" stroke="black" cx="416.73" cy="-196.5" rx="218.51" ry="18"/>
<text text-anchor="middle" x="416.73" y="-191.82" font-family="Times,serif" font-size="14.00">quantum_espresso_workflow.calculate_qe</text>
</g>
<!-- 23&#45;&gt;4 -->
<g id="edge51" class="edge">
<title>23-&gt;4</title>
<path fill="none" stroke="black" d="M362.97,-267.51C372.61,-254.96 385.82,-237.75 396.74,-223.53"/>
<polygon fill="black" stroke="black" points="399.29,-225.97 402.6,-215.9 393.74,-221.7 399.29,-225.97"/>
<text text-anchor="middle" x="424.86" y="-236.45" font-family="Times,serif" font-size="14.00">input_dict</text>
</g>
<!-- 5 -->
<g id="node14" class="node">
<title>5</title>
<ellipse fill="none" stroke="black" cx="933.73" cy="-196.5" rx="218.51" ry="18"/>
<text text-anchor="middle" x="933.73" y="-191.82" font-family="Times,serif" font-size="14.00">quantum_espresso_workflow.calculate_qe</text>
</g>
<!-- 25&#45;&gt;5 -->
<g id="edge53" class="edge">
<title>25-&gt;5</title>
<path fill="none" stroke="black" d="M943.36,-267.51C941.74,-255.68 939.54,-239.7 937.65,-226"/>
<polygon fill="black" stroke="black" points="941.14,-225.63 936.31,-216.2 934.2,-226.59 941.14,-225.63"/>
<text text-anchor="middle" x="976.43" y="-236.45" font-family="Times,serif" font-size="14.00">input_dict</text>
</g>
<!-- 6 -->
<g id="node15" class="node">
<title>6</title>
<ellipse fill="none" stroke="black" cx="1843.73" cy="-196.5" rx="218.51" ry="18"/>
<text text-anchor="middle" x="1843.73" y="-191.82" font-family="Times,serif" font-size="14.00">quantum_espresso_workflow.calculate_qe</text>
</g>
<!-- 27&#45;&gt;6 -->
<g id="edge55" class="edge">
<title>27-&gt;6</title>
<path fill="none" stroke="black" d="M2087.6,-267.82C2055.7,-257.24 2013.45,-243.57 1975.73,-232.5 1957.75,-227.22 1938.29,-221.86 1919.98,-216.98"/>
<polygon fill="black" stroke="black" points="1921.08,-213.65 1910.51,-214.48 1919.28,-220.42 1921.08,-213.65"/>
<text text-anchor="middle" x="2065.06" y="-236.45" font-family="Times,serif" font-size="14.00">input_dict</text>
</g>
<!-- 7 -->
<g id="node16" class="node">
<title>7</title>
<ellipse fill="none" stroke="black" cx="1388.73" cy="-196.5" rx="218.51" ry="18"/>
<text text-anchor="middle" x="1388.73" y="-191.82" font-family="Times,serif" font-size="14.00">quantum_espresso_workflow.calculate_qe</text>
</g>
<!-- 29&#45;&gt;7 -->
<g id="edge57" class="edge">
<title>29-&gt;7</title>
<path fill="none" stroke="black" d="M1511.51,-267.51C1487.83,-254.01 1454.67,-235.1 1428.78,-220.34"/>
<polygon fill="black" stroke="black" points="1430.63,-217.37 1420.21,-215.45 1427.17,-223.45 1430.63,-217.37"/>
<text text-anchor="middle" x="1514.56" y="-236.45" font-family="Times,serif" font-size="14.00">input_dict</text>
</g>
<!-- 30 -->
<g id="node11" class="node">
<title>30</title>
<ellipse fill="none" stroke="black" cx="1157.73" cy="-107.25" rx="225.35" ry="18"/>
<text text-anchor="middle" x="1157.73" y="-102.58" font-family="Times,serif" font-size="14.00">python_workflow_definition.shared.get_list</text>
</g>
<!-- 3&#45;&gt;30 -->
<g id="edge8" class="edge">
<title>3-&gt;30</title>
<path fill="none" stroke="black" d="M2395.32,-181.55C2280.3,-169.56 2106.95,-152.75 1955.73,-143.25 1719.18,-128.39 1659.47,-136.84 1422.73,-125.25 1394.56,-123.87 1364.72,-122.18 1335.61,-120.41"/>
<polygon fill="black" stroke="black" points="1336.21,-116.94 1326.01,-119.81 1335.78,-123.92 1336.21,-116.94"/>
<text text-anchor="middle" x="2237.19" y="-147.2" font-family="Times,serif" font-size="14.00">0=result[volume]</text>
</g>
<!-- 31 -->
<g id="node12" class="node">
<title>31</title>
<ellipse fill="none" stroke="black" cx="1656.73" cy="-107.25" rx="225.35" ry="18"/>
<text text-anchor="middle" x="1656.73" y="-102.58" font-family="Times,serif" font-size="14.00">python_workflow_definition.shared.get_list</text>
</g>
<!-- 3&#45;&gt;31 -->
<g id="edge9" class="edge">
<title>3-&gt;31</title>
<path fill="none" stroke="black" d="M2480.11,-178.4C2447.07,-166.28 2400.26,-150.88 2357.73,-143.25 2269.68,-127.46 2052.04,-118.27 1882.42,-113.3"/>
<polygon fill="black" stroke="black" points="1882.68,-109.81 1872.58,-113.02 1882.47,-116.81 1882.68,-109.81"/>
<text text-anchor="middle" x="2484.14" y="-147.2" font-family="Times,serif" font-size="14.00">0=result[energy]</text>
</g>
<!-- 8 -->
<g id="node17" class="node">
<title>8</title>
<ellipse fill="none" stroke="black" cx="1391.73" cy="-18" rx="289.54" ry="18"/>
<text text-anchor="middle" x="1391.73" y="-13.32" font-family="Times,serif" font-size="14.00">quantum_espresso_workflow.plot_energy_volume_curve</text>
</g>
<!-- 30&#45;&gt;8 -->
<g id="edge58" class="edge">
<title>30-&gt;8</title>
<path fill="none" stroke="black" d="M1203.41,-89.22C1241.05,-75.18 1294.63,-55.21 1335.02,-40.15"/>
<polygon fill="black" stroke="black" points="1336.21,-43.44 1344.36,-36.66 1333.77,-36.88 1336.21,-43.44"/>
<text text-anchor="middle" x="1333.94" y="-57.95" font-family="Times,serif" font-size="14.00">volume_lst</text>
</g>
<!-- 31&#45;&gt;8 -->
<g id="edge59" class="edge">
<title>31-&gt;8</title>
<path fill="none" stroke="black" d="M1605.33,-89.32C1562.27,-75.15 1500.65,-54.86 1454.65,-39.71"/>
<polygon fill="black" stroke="black" points="1455.94,-36.45 1445.34,-36.65 1453.75,-43.1 1455.94,-36.45"/>
<text text-anchor="middle" x="1585.09" y="-57.95" font-family="Times,serif" font-size="14.00">energy_lst</text>
</g>
<!-- 4&#45;&gt;30 -->
<g id="edge10" class="edge">
<title>4-&gt;30</title>
<path fill="none" stroke="black" d="M523.58,-180.4C602.71,-169.44 713.22,-154.6 810.48,-143.25 873.8,-135.86 943.72,-128.63 1004.12,-122.68"/>
<polygon fill="black" stroke="black" points="1004.17,-126.2 1013.78,-121.74 1003.48,-119.23 1004.17,-126.2"/>
<text text-anchor="middle" x="873.11" y="-147.2" font-family="Times,serif" font-size="14.00">1=result[volume]</text>
</g>
<!-- 4&#45;&gt;31 -->
<g id="edge11" class="edge">
<title>4-&gt;31</title>
<path fill="none" stroke="black" d="M585.17,-184.69C624.71,-182.4 666.69,-180.17 705.73,-178.5 742.77,-176.91 1338.34,-174.32 1372.73,-160.5 1383.32,-156.25 1381.39,-148.05 1391.73,-143.25 1410.77,-134.42 1449.41,-127.47 1491.45,-122.16"/>
<polygon fill="black" stroke="black" points="1491.78,-125.64 1501.28,-120.96 1490.93,-118.69 1491.78,-125.64"/>
<text text-anchor="middle" x="1453.23" y="-147.2" font-family="Times,serif" font-size="14.00">1=result[energy]</text>
</g>
<!-- 5&#45;&gt;30 -->
<g id="edge12" class="edge">
<title>5-&gt;30</title>
<path fill="none" stroke="black" d="M935.12,-178.15C936.99,-166.55 941.35,-151.89 951.48,-143.25 961.16,-135 980.98,-128.65 1004.66,-123.77"/>
<polygon fill="black" stroke="black" points="1005.15,-127.24 1014.31,-121.91 1003.83,-120.37 1005.15,-127.24"/>
<text text-anchor="middle" x="1014.11" y="-147.2" font-family="Times,serif" font-size="14.00">2=result[volume]</text>
</g>
<!-- 5&#45;&gt;31 -->
<g id="edge13" class="edge">
<title>5-&gt;31</title>
<path fill="none" stroke="black" d="M1088.17,-183.42C1112.44,-181.67 1137.27,-179.97 1160.73,-178.5 1200.48,-176.01 1481.95,-175.78 1518.73,-160.5 1529.27,-156.12 1527.79,-148.83 1537.73,-143.25 1548.16,-137.4 1559.65,-132.44 1571.27,-128.26"/>
<polygon fill="black" stroke="black" points="1572.17,-131.65 1580.51,-125.12 1569.92,-125.02 1572.17,-131.65"/>
<text text-anchor="middle" x="1599.23" y="-147.2" font-family="Times,serif" font-size="14.00">2=result[energy]</text>
</g>
<!-- 6&#45;&gt;30 -->
<g id="edge14" class="edge">
<title>6-&gt;30</title>
<path fill="none" stroke="black" d="M1689.3,-183.39C1665.03,-181.65 1640.2,-179.95 1616.73,-178.5 1534.74,-173.43 1324.69,-188.57 1247.48,-160.5 1235.56,-156.16 1235.45,-150.04 1224.73,-143.25 1217.95,-138.95 1210.59,-134.71 1203.3,-130.74"/>
<polygon fill="black" stroke="black" points="1205.29,-127.83 1194.81,-126.23 1202,-134.01 1205.29,-127.83"/>
<text text-anchor="middle" x="1310.11" y="-147.2" font-family="Times,serif" font-size="14.00">3=result[volume]</text>
</g>
<!-- 6&#45;&gt;31 -->
<g id="edge15" class="edge">
<title>6-&gt;31</title>
<path fill="none" stroke="black" d="M1838,-178.13C1833.28,-166.53 1825.44,-151.87 1813.73,-143.25 1804.88,-136.73 1795.03,-131.39 1784.71,-127.02"/>
<polygon fill="black" stroke="black" points="1786.25,-123.86 1775.66,-123.51 1783.72,-130.39 1786.25,-123.86"/>
<text text-anchor="middle" x="1890.36" y="-147.2" font-family="Times,serif" font-size="14.00">3=result[energy]</text>
</g>
<!-- 7&#45;&gt;30 -->
<g id="edge16" class="edge">
<title>7-&gt;30</title>
<path fill="none" stroke="black" d="M1222.81,-184.49C1163.41,-178.84 1108.71,-170.91 1099.48,-160.5 1090.42,-150.27 1097.47,-140.02 1109.37,-131.33"/>
<polygon fill="black" stroke="black" points="1110.95,-134.48 1117.46,-126.13 1107.16,-128.6 1110.95,-134.48"/>
<text text-anchor="middle" x="1162.11" y="-147.2" font-family="Times,serif" font-size="14.00">4=result[volume]</text>
</g>
<!-- 7&#45;&gt;31 -->
<g id="edge17" class="edge">
<title>7-&gt;31</title>
<path fill="none" stroke="black" d="M1548.63,-183.9C1604.7,-178.19 1656.03,-170.37 1664.73,-160.5 1670.56,-153.89 1670.89,-144.9 1669.03,-136.23"/>
<polygon fill="black" stroke="black" points="1672.38,-135.21 1666.05,-126.71 1665.7,-137.3 1672.38,-135.21"/>
<text text-anchor="middle" x="1731.53" y="-147.2" font-family="Times,serif" font-size="14.00">4=result[energy]</text>
</g>
<!-- 9 -->
<g id="node18" class="node">
<title>9</title>
<ellipse fill="none" stroke="black" cx="1247.73" cy="-732" rx="27" ry="18"/>
<text text-anchor="middle" x="1247.73" y="-727.33" font-family="Times,serif" font-size="14.00">Al</text>
</g>
<!-- 9&#45;&gt;0 -->
<g id="edge18" class="edge">
<title>9-&gt;0</title>
<path fill="none" stroke="black" d="M1250.85,-713.93C1253.57,-702.89 1258.47,-688.77 1266.98,-678.75 1270.54,-674.57 1274.72,-670.78 1279.21,-667.38"/>
<polygon fill="black" stroke="black" points="1281.17,-670.28 1287.5,-661.78 1277.25,-664.48 1281.17,-670.28"/>
<text text-anchor="middle" x="1295.86" y="-682.7" font-family="Times,serif" font-size="14.00">element</text>
</g>
<!-- 10 -->
<g id="node19" class="node">
<title>10</title>
<ellipse fill="none" stroke="black" cx="1328.73" cy="-732" rx="33.32" ry="18"/>
<text text-anchor="middle" x="1328.73" y="-727.33" font-family="Times,serif" font-size="14.00">4.05</text>
</g>
<!-- 10&#45;&gt;0 -->
<g id="edge19" class="edge">
<title>10-&gt;0</title>
<path fill="none" stroke="black" d="M1328.73,-713.76C1328.73,-701.93 1328.73,-685.95 1328.73,-672.25"/>
<polygon fill="black" stroke="black" points="1332.23,-672.47 1328.73,-662.47 1325.23,-672.47 1332.23,-672.47"/>
<text text-anchor="middle" x="1332.86" y="-682.7" font-family="Times,serif" font-size="14.00">a</text>
</g>
<!-- 11 -->
<g id="node20" class="node">
<title>11</title>
<ellipse fill="none" stroke="black" cx="1414.73" cy="-732" rx="34.37" ry="18"/>
<text text-anchor="middle" x="1414.73" y="-727.33" font-family="Times,serif" font-size="14.00">True</text>
</g>
<!-- 11&#45;&gt;0 -->
<g id="edge20" class="edge">
<title>11-&gt;0</title>
<path fill="none" stroke="black" d="M1399.36,-715.4C1386.64,-702.5 1368.33,-683.92 1353.54,-668.92"/>
<polygon fill="black" stroke="black" points="1356.32,-666.75 1346.81,-662.09 1351.33,-671.66 1356.32,-666.75"/>
<text text-anchor="middle" x="1398.19" y="-682.7" font-family="Times,serif" font-size="14.00">cubic</text>
</g>
<!-- 12 -->
<g id="node21" class="node">
<title>12</title>
<ellipse fill="none" stroke="black" cx="1574.73" cy="-553.5" rx="33.32" ry="18"/>
<text text-anchor="middle" x="1574.73" y="-548.83" font-family="Times,serif" font-size="14.00">mini</text>
</g>
<!-- 12&#45;&gt;1 -->
<g id="edge21" class="edge">
<title>12-&gt;1</title>
<path fill="none" stroke="black" d="M1547.97,-542.56C1541.38,-540.18 1534.32,-537.7 1527.73,-535.5 1477.03,-518.57 1464.42,-513.91 1412.73,-500.25 1391.02,-494.51 1367.46,-488.93 1345.35,-483.96"/>
<polygon fill="black" stroke="black" points="1346.29,-480.58 1335.76,-481.83 1344.77,-487.42 1346.29,-480.58"/>
<text text-anchor="middle" x="1537.39" y="-504.2" font-family="Times,serif" font-size="14.00">working_directory</text>
</g>
<!-- 14 -->
<g id="node22" class="node">
<title>14</title>
<ellipse fill="none" stroke="black" cx="1844.73" cy="-642.75" rx="197.47" ry="18"/>
<text text-anchor="middle" x="1844.73" y="-638.08" font-family="Times,serif" font-size="14.00">{'Al': 'Al.pbe-n-kjpaw_psl.1.0.0.UPF'}</text>
</g>
<!-- 14&#45;&gt;13 -->
<g id="edge23" class="edge">
<title>14-&gt;13</title>
<path fill="none" stroke="black" d="M1691.46,-631.07C1657.63,-628.85 1621.98,-626.62 1588.73,-624.75 1545.51,-622.32 1239.44,-623.42 1199.48,-606.75 1191.9,-603.59 1178.55,-591.46 1166.71,-579.68"/>
<polygon fill="black" stroke="black" points="1169.41,-577.44 1159.9,-572.77 1164.43,-582.35 1169.41,-577.44"/>
<text text-anchor="middle" x="1260.61" y="-593.45" font-family="Times,serif" font-size="14.00">pseudopotentials</text>
</g>
<!-- 14&#45;&gt;20 -->
<g id="edge24" class="edge">
<title>14-&gt;20</title>
<path fill="none" stroke="black" d="M1962.03,-627.86C2084.1,-609.33 2277.39,-568.28 2422.73,-482.25 2461.95,-459.04 2549.69,-360.11 2590.76,-312.52"/>
<polygon fill="black" stroke="black" points="2593.23,-315.01 2597.1,-305.14 2587.93,-310.44 2593.23,-315.01"/>
<text text-anchor="middle" x="2526.39" y="-459.57" font-family="Times,serif" font-size="14.00">pseudopotentials</text>
</g>
<!-- 14&#45;&gt;23 -->
<g id="edge25" class="edge">
<title>14-&gt;23</title>
<path fill="none" stroke="black" d="M1676.97,-633.01C1622.19,-627.87 1561.41,-619.71 1506.73,-606.75 1463.72,-596.55 1450.33,-596.3 1413.73,-571.5 1395.77,-559.32 1400.49,-544.5 1380.73,-535.5 1310.74,-503.62 765.05,-527.06 688.73,-517.5 618.53,-508.7 594.89,-517.4 533.48,-482.25 458.63,-439.41 395.93,-356.27 366.96,-313.54"/>
<polygon fill="black" stroke="black" points="369.96,-311.72 361.5,-305.34 364.13,-315.6 369.96,-311.72"/>
<text text-anchor="middle" x="594.61" y="-459.57" font-family="Times,serif" font-size="14.00">pseudopotentials</text>
</g>
<!-- 14&#45;&gt;25 -->
<g id="edge26" class="edge">
<title>14-&gt;25</title>
<path fill="none" stroke="black" d="M1695.93,-630.57C1623.01,-621.12 1535.28,-603.68 1461.73,-571.5 1437.3,-560.81 1438.9,-544.32 1413.73,-535.5 1352.05,-513.88 890.55,-525.96 825.73,-517.5 757.29,-508.57 717.4,-536.31 674.48,-482.25 609.54,-400.44 769.91,-337.04 870.94,-306.6"/>
<polygon fill="black" stroke="black" points="871.68,-310.03 880.28,-303.83 869.7,-303.32 871.68,-310.03"/>
<text text-anchor="middle" x="735.61" y="-459.57" font-family="Times,serif" font-size="14.00">pseudopotentials</text>
</g>
<!-- 14&#45;&gt;27 -->
<g id="edge27" class="edge">
<title>14-&gt;27</title>
<path fill="none" stroke="black" d="M1889.13,-624.81C1979.91,-589.73 2179.75,-510.11 2197.73,-482.25 2219.32,-448.81 2207.73,-391.99 2170.73,-321.75 2169.11,-318.67 2167.15,-315.67 2164.99,-312.8"/>
<polygon fill="black" stroke="black" points="2167.76,-310.65 2158.62,-305.3 2162.42,-315.19 2167.76,-310.65"/>
<text text-anchor="middle" x="2269.49" y="-459.57" font-family="Times,serif" font-size="14.00">pseudopotentials</text>
</g>
<!-- 14&#45;&gt;29 -->
<g id="edge28" class="edge">
<title>14-&gt;29</title>
<path fill="none" stroke="black" d="M1865.9,-624.41C1870.7,-619.28 1875.15,-613.27 1877.73,-606.75 1893.9,-566.04 1993.1,-630.64 1869.73,-446.25 1839.31,-400.77 1798.85,-430.22 1758.73,-393 1731.95,-368.15 1747.42,-343.05 1717.73,-321.75 1708.07,-314.81 1688.49,-308.9 1665.79,-304.01"/>
<polygon fill="black" stroke="black" points="1666.77,-300.64 1656.27,-302.07 1665.37,-307.5 1666.77,-300.64"/>
<text text-anchor="middle" x="1953.76" y="-459.57" font-family="Times,serif" font-size="14.00">pseudopotentials</text>
</g>
<!-- 15 -->
<g id="node23" class="node">
<title>15</title>
<ellipse fill="none" stroke="black" cx="2150.73" cy="-642.75" rx="50.16" ry="18"/>
<text text-anchor="middle" x="2150.73" y="-638.08" font-family="Times,serif" font-size="14.00">[3, 3, 3]</text>
</g>
<!-- 15&#45;&gt;13 -->
<g id="edge29" class="edge">
<title>15-&gt;13</title>
<path fill="none" stroke="black" d="M2107.05,-633.44C2089.59,-630.34 2069.26,-627.04 2050.73,-624.75 1915.03,-608 1548.24,-581.82 1324.55,-566.59"/>
<polygon fill="black" stroke="black" points="1325.07,-563.12 1314.86,-565.93 1324.6,-570.11 1325.07,-563.12"/>
<text text-anchor="middle" x="1872.95" y="-593.45" font-family="Times,serif" font-size="14.00">kpts</text>
</g>
<!-- 15&#45;&gt;20 -->
<g id="edge30" class="edge">
<title>15-&gt;20</title>
<path fill="none" stroke="black" d="M2199.3,-637.64C2317.92,-626.97 2612.73,-596.23 2612.73,-554.5 2612.73,-554.5 2612.73,-554.5 2612.73,-374 2612.73,-354.5 2612.73,-332.54 2612.73,-315.54"/>
<polygon fill="black" stroke="black" points="2616.23,-315.65 2612.73,-305.65 2609.23,-315.65 2616.23,-315.65"/>
<text text-anchor="middle" x="2628.11" y="-459.57" font-family="Times,serif" font-size="14.00">kpts</text>
</g>
<!-- 15&#45;&gt;23 -->
<g id="edge31" class="edge">
<title>15-&gt;23</title>
<path fill="none" stroke="black" d="M2107.03,-633.6C2089.57,-630.53 2069.24,-627.2 2050.73,-624.75 1988.66,-616.54 1546.74,-597.4 1489.73,-571.5 1468.55,-561.88 1473.04,-544.83 1451.73,-535.5 1397.26,-511.64 1243.98,-522.6 1184.73,-517.5 1034.8,-504.6 988.91,-535.03 847.98,-482.25 821.92,-472.49 821.46,-459.04 796.73,-446.25 671.87,-381.63 514.87,-332.29 424.05,-306.57"/>
<polygon fill="black" stroke="black" points="425.07,-303.22 414.49,-303.89 423.17,-309.96 425.07,-303.22"/>
<text text-anchor="middle" x="863.36" y="-459.57" font-family="Times,serif" font-size="14.00">kpts</text>
</g>
<!-- 15&#45;&gt;25 -->
<g id="edge32" class="edge">
<title>15-&gt;25</title>
<path fill="none" stroke="black" d="M2113.17,-630.49C2069.88,-618.05 1996.38,-598.59 1931.73,-589.5 1843.84,-577.15 1615.45,-603.68 1532.73,-571.5 1509.51,-562.46 1512.35,-545.97 1489.73,-535.5 1468.76,-525.79 1307.69,-502.93 1284.73,-500.25 1252.92,-496.53 1021.72,-502.6 996.98,-482.25 947.43,-441.48 942.52,-359.19 943.76,-315.51"/>
<polygon fill="black" stroke="black" points="947.26,-315.68 944.19,-305.54 940.26,-315.38 947.26,-315.68"/>
<text text-anchor="middle" x="1012.36" y="-459.57" font-family="Times,serif" font-size="14.00">kpts</text>
</g>
<!-- 15&#45;&gt;27 -->
<g id="edge33" class="edge">
<title>15-&gt;27</title>
<path fill="none" stroke="black" d="M2195.87,-634.6C2264.63,-622.41 2387.73,-594.95 2387.73,-554.5 2387.73,-554.5 2387.73,-554.5 2387.73,-374 2387.73,-349.96 2391.68,-337.75 2373.73,-321.75 2363.17,-312.33 2341.43,-305.45 2315.23,-300.42"/>
<polygon fill="black" stroke="black" points="2316.12,-297.02 2305.66,-298.71 2314.89,-303.91 2316.12,-297.02"/>
<text text-anchor="middle" x="2403.11" y="-459.57" font-family="Times,serif" font-size="14.00">kpts</text>
</g>
<!-- 15&#45;&gt;29 -->
<g id="edge34" class="edge">
<title>15-&gt;29</title>
<path fill="none" stroke="black" d="M2152.14,-624.65C2156.69,-564.46 2168.29,-363.71 2124.73,-321.75 2110.87,-308.4 1797.95,-304.94 1778.73,-303.75 1758.23,-302.48 1736.73,-301.06 1715.41,-299.6"/>
<polygon fill="black" stroke="black" points="1715.66,-296.11 1705.45,-298.91 1715.18,-303.09 1715.66,-296.11"/>
<text text-anchor="middle" x="2172.22" y="-459.57" font-family="Times,serif" font-size="14.00">kpts</text>
</g>
<!-- 16 -->
<g id="node24" class="node">
<title>16</title>
<ellipse fill="none" stroke="black" cx="1008.73" cy="-642.75" rx="50.68" ry="18"/>
<text text-anchor="middle" x="1008.73" y="-638.08" font-family="Times,serif" font-size="14.00">vc-relax</text>
</g>
<!-- 16&#45;&gt;13 -->
<g id="edge35" class="edge">
<title>16-&gt;13</title>
<path fill="none" stroke="black" d="M1004.06,-624.48C1002.14,-613.35 1001.88,-599.22 1009.48,-589.5 1014.3,-583.35 1025.34,-578.05 1039.11,-573.58"/>
<polygon fill="black" stroke="black" points="1040.07,-576.95 1048.67,-570.75 1038.08,-570.24 1040.07,-576.95"/>
<text text-anchor="middle" x="1048.11" y="-593.45" font-family="Times,serif" font-size="14.00">calculation</text>
</g>
<!-- 17 -->
<g id="node25" class="node">
<title>17</title>
<ellipse fill="none" stroke="black" cx="896.73" cy="-642.75" rx="33.32" ry="18"/>
<text text-anchor="middle" x="896.73" y="-638.08" font-family="Times,serif" font-size="14.00">0.02</text>
</g>
<!-- 17&#45;&gt;13 -->
<g id="edge36" class="edge">
<title>17-&gt;13</title>
<path fill="none" stroke="black" d="M904.02,-624.89C910.04,-613.05 919.74,-597.89 932.98,-589.5 945.24,-581.74 969.72,-575.44 997.78,-570.45"/>
<polygon fill="black" stroke="black" points="998.36,-573.9 1007.64,-568.78 997.19,-567 998.36,-573.9"/>
<text text-anchor="middle" x="966.36" y="-593.45" font-family="Times,serif" font-size="14.00">smearing</text>
</g>
<!-- 17&#45;&gt;20 -->
<g id="edge37" class="edge">
<title>17-&gt;20</title>
<path fill="none" stroke="black" d="M923.35,-631.45C931.39,-628.78 940.32,-626.24 948.73,-624.75 1180.83,-583.72 1244.39,-631.88 1478.73,-606.75 1565.87,-597.4 1587.14,-590.29 1672.73,-571.5 1827.85,-537.45 1870.96,-540.43 2018.73,-482.25 2049.91,-469.97 2053.81,-458.55 2084.98,-446.25 2261.7,-376.55 2319.75,-402.66 2498.73,-339 2522.6,-330.51 2548.32,-318.95 2569.28,-308.86"/>
<polygon fill="black" stroke="black" points="2570.65,-312.08 2578.1,-304.55 2567.58,-305.79 2570.65,-312.08"/>
<text text-anchor="middle" x="2118.36" y="-459.57" font-family="Times,serif" font-size="14.00">smearing</text>
</g>
<!-- 17&#45;&gt;23 -->
<g id="edge38" class="edge">
<title>17-&gt;23</title>
<path fill="none" stroke="black" d="M863.19,-640.44C736.83,-635.06 296.73,-612.2 296.73,-554.5 296.73,-554.5 296.73,-554.5 296.73,-374 296.73,-350.82 310.57,-328.55 324.1,-312.32"/>
<polygon fill="black" stroke="black" points="326.49,-314.89 330.49,-305.08 321.25,-310.26 326.49,-314.89"/>
<text text-anchor="middle" x="330.11" y="-459.57" font-family="Times,serif" font-size="14.00">smearing</text>
</g>
<!-- 17&#45;&gt;25 -->
<g id="edge39" class="edge">
<title>17-&gt;25</title>
<path fill="none" stroke="black" d="M863.02,-641.32C737.85,-638.42 312.21,-616.12 413.98,-446.25 474.28,-345.62 534.79,-356.85 646.73,-321.75 680.52,-311.16 717.36,-303.72 753.27,-298.51"/>
<polygon fill="black" stroke="black" points="753.46,-302.02 762.88,-297.17 752.5,-295.08 753.46,-302.02"/>
<text text-anchor="middle" x="447.36" y="-459.57" font-family="Times,serif" font-size="14.00">smearing</text>
</g>
<!-- 17&#45;&gt;27 -->
<g id="edge40" class="edge">
<title>17-&gt;27</title>
<path fill="none" stroke="black" d="M923.36,-631.5C931.4,-628.83 940.32,-626.27 948.73,-624.75 1135.64,-590.92 1186.62,-624.52 1375.73,-606.75 1483.51,-596.62 1514.46,-606.97 1616.73,-571.5 1691.84,-545.45 1712.11,-534.82 1771.73,-482.25 1786.79,-468.98 1782.68,-457.95 1798.98,-446.25 1921.46,-358.38 2014.53,-445.97 2120.73,-339 2127.18,-332.5 2131.19,-323.54 2133.67,-314.86"/>
<polygon fill="black" stroke="black" points="2137.03,-315.87 2135.81,-305.34 2130.2,-314.33 2137.03,-315.87"/>
<text text-anchor="middle" x="1832.36" y="-459.57" font-family="Times,serif" font-size="14.00">smearing</text>
</g>
<!-- 17&#45;&gt;29 -->
<g id="edge41" class="edge">
<title>17-&gt;29</title>
<path fill="none" stroke="black" d="M891.04,-624.75C879.88,-588.02 859.59,-500.18 899.98,-446.25 1039.55,-259.9 1187.03,-396.14 1412.73,-339 1431.11,-334.35 1434.23,-329.02 1451.73,-321.75 1462.76,-317.17 1474.62,-312.43 1486,-307.97"/>
<polygon fill="black" stroke="black" points="1487.25,-311.24 1495.3,-304.35 1484.71,-304.71 1487.25,-311.24"/>
<text text-anchor="middle" x="933.36" y="-459.57" font-family="Times,serif" font-size="14.00">smearing</text>
</g>
<!-- 18 -->
<g id="node26" class="node">
<title>18</title>
<ellipse fill="none" stroke="black" cx="1627.73" cy="-464.25" rx="135.39" ry="18"/>
<text text-anchor="middle" x="1627.73" y="-459.57" font-family="Times,serif" font-size="14.00">[0.9, 0.95, 1.0, 1.05, 1.1]</text>
</g>
<!-- 18&#45;&gt;2 -->
<g id="edge42" class="edge">
<title>18-&gt;2</title>
<path fill="none" stroke="black" d="M1598.55,-446.35C1579.93,-435.78 1555.17,-422.11 1532.73,-411 1523.75,-406.55 1514.07,-402.04 1504.67,-397.8"/>
<polygon fill="black" stroke="black" points="1506.17,-394.63 1495.62,-393.76 1503.33,-401.03 1506.17,-394.63"/>
<text text-anchor="middle" x="1597.86" y="-414.95" font-family="Times,serif" font-size="14.00">strain_lst</text>
</g>
<!-- 19 -->
<g id="node27" class="node">
<title>19</title>
<ellipse fill="none" stroke="black" cx="2910.73" cy="-285.75" rx="51.73" ry="18"/>
<text text-anchor="middle" x="2910.73" y="-281.07" font-family="Times,serif" font-size="14.00">strain_0</text>
</g>
<!-- 19&#45;&gt;3 -->
<g id="edge43" class="edge">
<title>19-&gt;3</title>
<path fill="none" stroke="black" d="M2872.1,-273.41C2865.02,-271.44 2857.67,-269.48 2850.73,-267.75 2772.3,-248.23 2682.48,-229.17 2616.85,-215.84"/>
<polygon fill="black" stroke="black" points="2617.69,-212.44 2607.19,-213.89 2616.3,-219.3 2617.69,-212.44"/>
<text text-anchor="middle" x="2835.26" y="-236.45" font-family="Times,serif" font-size="14.00">working_directory</text>
</g>
<!-- 21 -->
<g id="node28" class="node">
<title>21</title>
<ellipse fill="none" stroke="black" cx="1794.73" cy="-375" rx="27" ry="18"/>
<text text-anchor="middle" x="1794.73" y="-370.32" font-family="Times,serif" font-size="14.00">scf</text>
</g>
<!-- 21&#45;&gt;20 -->
<g id="edge45" class="edge">
<title>21-&gt;20</title>
<path fill="none" stroke="black" d="M1821.93,-373.47C1921.89,-371.36 2268.79,-362.46 2376.73,-339 2397.56,-334.47 2400.97,-327.53 2421.48,-321.75 2445.82,-314.9 2472.3,-309.06 2497.57,-304.22"/>
<polygon fill="black" stroke="black" points="2498.02,-307.7 2507.21,-302.42 2496.74,-300.82 2498.02,-307.7"/>
<text text-anchor="middle" x="2460.11" y="-325.7" font-family="Times,serif" font-size="14.00">calculation</text>
</g>
<!-- 21&#45;&gt;23 -->
<g id="edge46" class="edge">
<title>21-&gt;23</title>
<path fill="none" stroke="black" d="M1769.95,-367.04C1755.68,-363.35 1737.34,-359.15 1720.73,-357 1658.2,-348.9 1211.86,-362.84 1153.48,-339 1143,-334.72 1145.21,-326.04 1134.73,-321.75 1078.35,-298.68 647.57,-306.93 586.73,-303.75 565.24,-302.63 542.66,-301.25 520.33,-299.78"/>
<polygon fill="black" stroke="black" points="520.76,-296.3 510.55,-299.13 520.29,-303.29 520.76,-296.3"/>
<text text-anchor="middle" x="1192.11" y="-325.7" font-family="Times,serif" font-size="14.00">calculation</text>
</g>
<!-- 21&#45;&gt;25 -->
<g id="edge47" class="edge">
<title>21-&gt;25</title>
<path fill="none" stroke="black" d="M1769.43,-368.3C1742.43,-362 1698.54,-351.12 1661.48,-339 1641.62,-332.5 1638.18,-326.08 1617.73,-321.75 1523.08,-301.73 1279.33,-309.21 1182.73,-303.75 1161.69,-302.56 1139.61,-301.17 1117.74,-299.7"/>
<polygon fill="black" stroke="black" points="1118.05,-296.22 1107.83,-299.03 1117.57,-303.2 1118.05,-296.22"/>
<text text-anchor="middle" x="1700.11" y="-325.7" font-family="Times,serif" font-size="14.00">calculation</text>
</g>
<!-- 21&#45;&gt;27 -->
<g id="edge48" class="edge">
<title>21-&gt;27</title>
<path fill="none" stroke="black" d="M1821.99,-374.03C1865.68,-373.16 1953.3,-367.61 2020.73,-339 2032.42,-334.04 2032.36,-327.86 2043.48,-321.75 2052.91,-316.57 2063.26,-311.86 2073.53,-307.69"/>
<polygon fill="black" stroke="black" points="2074.72,-310.99 2082.77,-304.09 2072.18,-304.46 2074.72,-310.99"/>
<text text-anchor="middle" x="2082.11" y="-325.7" font-family="Times,serif" font-size="14.00">calculation</text>
</g>
<!-- 21&#45;&gt;29 -->
<g id="edge49" class="edge">
<title>21-&gt;29</title>
<path fill="none" stroke="black" d="M1781.65,-358.94C1769.41,-345.23 1751.7,-326.42 1742.73,-321.75 1727.85,-314 1711.59,-307.92 1694.98,-303.16"/>
<polygon fill="black" stroke="black" points="1696.05,-299.82 1685.48,-300.61 1694.23,-306.58 1696.05,-299.82"/>
<text text-anchor="middle" x="1800.38" y="-325.7" font-family="Times,serif" font-size="14.00">calculation</text>
</g>
<!-- 22 -->
<g id="node29" class="node">
<title>22</title>
<ellipse fill="none" stroke="black" cx="51.73" cy="-285.75" rx="51.73" ry="18"/>
<text text-anchor="middle" x="51.73" y="-281.07" font-family="Times,serif" font-size="14.00">strain_1</text>
</g>
<!-- 22&#45;&gt;4 -->
<g id="edge50" class="edge">
<title>22-&gt;4</title>
<path fill="none" stroke="black" d="M90.77,-273.61C97.74,-271.64 104.95,-269.62 111.73,-267.75 169.96,-251.68 184.18,-246.3 242.98,-232.5 268.04,-226.62 295.26,-220.85 320.57,-215.74"/>
<polygon fill="black" stroke="black" points="321.06,-219.21 330.18,-213.81 319.68,-212.34 321.06,-219.21"/>
<text text-anchor="middle" x="307.86" y="-236.45" font-family="Times,serif" font-size="14.00">working_directory</text>
</g>
<!-- 24 -->
<g id="node30" class="node">
<title>24</title>
<ellipse fill="none" stroke="black" cx="647.73" cy="-285.75" rx="51.73" ry="18"/>
<text text-anchor="middle" x="647.73" y="-281.07" font-family="Times,serif" font-size="14.00">strain_2</text>
</g>
<!-- 24&#45;&gt;5 -->
<g id="edge52" class="edge">
<title>24-&gt;5</title>
<path fill="none" stroke="black" d="M683.15,-272.36C714.91,-261.4 762.85,-245.22 804.98,-232.5 822.34,-227.26 841.11,-221.96 858.82,-217.11"/>
<polygon fill="black" stroke="black" points="859.49,-220.56 868.22,-214.56 857.66,-213.8 859.49,-220.56"/>
<text text-anchor="middle" x="869.86" y="-236.45" font-family="Times,serif" font-size="14.00">working_directory</text>
</g>
<!-- 26 -->
<g id="node31" class="node">
<title>26</title>
<ellipse fill="none" stroke="black" cx="1839.73" cy="-285.75" rx="51.73" ry="18"/>
<text text-anchor="middle" x="1839.73" y="-281.07" font-family="Times,serif" font-size="14.00">strain_3</text>
</g>
<!-- 26&#45;&gt;6 -->
<g id="edge54" class="edge">
<title>26-&gt;6</title>
<path fill="none" stroke="black" d="M1840.52,-267.51C1841.07,-255.68 1841.8,-239.7 1842.43,-226"/>
<polygon fill="black" stroke="black" points="1845.91,-226.36 1842.88,-216.21 1838.92,-226.04 1845.91,-226.36"/>
<text text-anchor="middle" x="1906.97" y="-236.45" font-family="Times,serif" font-size="14.00">working_directory</text>
</g>
<!-- 28 -->
<g id="node32" class="node">
<title>28</title>
<ellipse fill="none" stroke="black" cx="1243.73" cy="-285.75" rx="51.73" ry="18"/>
<text text-anchor="middle" x="1243.73" y="-281.07" font-family="Times,serif" font-size="14.00">strain_4</text>
</g>
<!-- 28&#45;&gt;7 -->
<g id="edge56" class="edge">
<title>28-&gt;7</title>
<path fill="none" stroke="black" d="M1264.28,-269C1278.88,-258.14 1299.15,-243.7 1317.98,-232.5 1325.36,-228.12 1333.35,-223.79 1341.22,-219.74"/>
<polygon fill="black" stroke="black" points="1342.72,-222.91 1350.09,-215.29 1339.58,-216.65 1342.72,-222.91"/>
<text text-anchor="middle" x="1382.86" y="-236.45" font-family="Times,serif" font-size="14.00">working_directory</text>
</g>
</g>
</svg>