<svg xmlns="http://www.w3.org/2000/svg" xmlns:xlink="http://www.w3.org/1999/xlink" width="376pt" height="223pt" viewBox="0.00 0.00 375.58 222.50">
<g id="graph0" class="graph" transform="scale(1 1) rotate(0) translate(4 218.5)">
<polygon fill="white" stroke="none" points="-4,4 -4,-218.5 371.58,-218.5 371.58,4 -4,4"/>
<!-- 0 -->
<g id="node1" class="node">
<title>0</title>
<ellipse fill="none" stroke="black" cx="183.79" cy="-107.25" rx="183.79" ry="18"/>
<text text-anchor="middle" x="183.79" y="-102.58" font-family="Times,serif" font-size="14.00">simple_workflow.get_prod_and_div</text>
</g>
<!-- 1 -->
<g id="node2" class="node">
<title>1</title>
<ellipse fill="none" stroke="black" cx="183.79" cy="-18" rx="159.06" ry="18"/>
<text text-anchor="middle" x="183.79" y="-13.32" font-family="Times,serif" font-size="14.00">simple_workflow.add_x_and_y</text>
</g>
<!-- 0&#45;&gt;1 -->
<g id="edge1" class="edge">
<title>0-&gt;1</title>
<path fill="none" stroke="black" d="M183.79,-89.01C183.79,-77.18 183.79,-61.2 183.79,-47.5"/>
<polygon fill="black" stroke="black" points="187.29,-47.72 183.79,-37.72 180.29,-47.72 187.29,-47.72"/>
<text text-anchor="middle" x="235.91" y="-57.95" font-family="Times,serif" font-size="14.00">prod=x, div=y</text>
</g>
<!-- 2 -->
<g id="node3" class="node">
<title>2</title>
<ellipse fill="none" stroke="black" cx="147.79" cy="-196.5" rx="27" ry="18"/>
<text text-anchor="middle" x="147.79" y="-191.82" font-family="Times,serif" font-size="14.00">1</text>
</g>
<!-- 2&#45;&gt;0 -->
<g id="edge2" class="edge">
<title>2-&gt;0</title>
<path fill="none" stroke="black" d="M154.73,-178.68C159.69,-166.64 166.49,-150.16 172.27,-136.17"/>
<polygon fill="black" stroke="black" points="175.47,-137.6 176.04,-127.02 168.99,-134.93 175.47,-137.6"/>
<text text-anchor="middle" x="173.14" y="-147.2" font-family="Times,serif" font-size="14.00">x</text>
</g>
<!-- 3 -->
<g id="node4" class="node">
<title>3</title>
<ellipse fill="none" stroke="black" cx="219.79" cy="-196.5" rx="27" ry="18"/>
<text text-anchor="middle" x="219.79" y="-191.82" font-family="Times,serif" font-size="14.00">2</text>
</g>
<!-- 3&#45;&gt;0 -->
<g id="edge3" class="edge">
<title>3-&gt;0</title>
<path fill="none" stroke="black" d="M212.85,-178.68C207.88,-166.64 201.08,-150.16 195.31,-136.17"/>
<polygon fill="black" stroke="black" points="198.58,-134.93 191.53,-127.02 192.11,-137.6 198.58,-134.93"/>
<text text-anchor="middle" x="209.14" y="-147.2" font-family="Times,serif" font-size="14.00">y</text>
</g>
</g>
</svg>