<svg xmlns="http://www.w3.org/2000/svg" xmlns:xlink="http://www.w3.org/1999/xlink" width="1600pt" height="188pt" viewBox="0.00 0.00 1599.89 188.00">
<g id="graph0" class="graph" transform="scale(1 1) rotate(0) translate(4 184)">
<polygon fill="white" stroke="none" points="-4,4 -4,-184 1595.89,-184 1595.89,4 -4,4"/>
<!-- create_function_job_65c7f45cff3952fa90203cdbc4f68274 -->
<g id="node1" class="node">
<title>create_function_job_65c7f45cff3952fa90203cdbc4f68274</title>
<ellipse fill="none" stroke="black" cx="795.71" cy="-18" rx="485.25" ry="18"/>
<text text-anchor="middle" x="795.71" y="-13.32" font-family="Times,serif" font-size="14.00">create_function_job=&lt;pyiron_base.project.delayed.DelayedObject object at 0x7f44a39b09b0&gt;</text>
</g>
<!-- x_497c5ebc48033cf60f366c0fd3763723 -->
<g id="node2" class="node">
<title>x_497c5ebc48033cf60f366c0fd3763723</title>
<ellipse fill="none" stroke="black" cx="393.71" cy="-90" rx="393.71" ry="18"/>
<text text-anchor="middle" x="393.71" y="-85.33" font-family="Times,serif" font-size="14.00">x=&lt;pyiron_base.project.delayed.DelayedObject object at 0x7f44a5545d00&gt;</text>
</g>
<!-- x_497c5ebc48033cf60f366c0fd3763723&#45;&gt;create_function_job_65c7f45cff3952fa90203cdbc4f68274 -->
<g id="edge1" class="edge">
<title>x_497c5ebc48033cf60f366c0fd3763723-&gt;create_function_job_65c7f45cff3952fa90203cdbc4f68274</title>
<path fill="none" stroke="black" d="M490.76,-72.1C549.71,-61.83 625.12,-48.7 686.19,-38.07"/>
<polygon fill="black" stroke="black" points="686.68,-41.54 695.93,-36.37 685.48,-34.64 686.68,-41.54"/>
</g>
<!-- x_1d847da32ecaabf6731c38f798c3d4ce -->
<g id="node3" class="node">
<title>x_1d847da32ecaabf6731c38f798c3d4ce</title>
<ellipse fill="none" stroke="black" cx="755.71" cy="-162" rx="31.74" ry="18"/>
<text text-anchor="middle" x="755.71" y="-157.32" font-family="Times,serif" font-size="14.00">x=1</text>
</g>
<!-- x_1d847da32ecaabf6731c38f798c3d4ce&#45;&gt;x_497c5ebc48033cf60f366c0fd3763723 -->
<g id="edge2" class="edge">
<title>x_1d847da32ecaabf6731c38f798c3d4ce-&gt;x_497c5ebc48033cf60f366c0fd3763723</title>
<path fill="none" stroke="black" d="M725.77,-155.21C675.22,-145.44 570.76,-125.24 492.43,-110.09"/>
<polygon fill="black" stroke="black" points="493.52,-106.74 483.04,-108.27 492.19,-113.61 493.52,-106.74"/>
</g>
<!-- y_2aeb6a5422726bc4dfbbbadc099f1760 -->
<g id="node4" class="node">
<title>y_2aeb6a5422726bc4dfbbbadc099f1760</title>
<ellipse fill="none" stroke="black" cx="1198.71" cy="-90" rx="393.18" ry="18"/>
<text text-anchor="middle" x="1198.71" y="-85.33" font-family="Times,serif" font-size="14.00">y=&lt;pyiron_base.project.delayed.DelayedObject object at 0x7f44a39b06e0&gt;</text>
</g>
<!-- x_1d847da32ecaabf6731c38f798c3d4ce&#45;&gt;y_2aeb6a5422726bc4dfbbbadc099f1760 -->
<g id="edge3" class="edge">
<title>x_1d847da32ecaabf6731c38f798c3d4ce-&gt;y_2aeb6a5422726bc4dfbbbadc099f1760</title>
<path fill="none" stroke="black" d="M786.15,-156.19C846.01,-146.73 981.83,-125.27 1081.34,-109.55"/>
<polygon fill="black" stroke="black" points="1081.85,-113.01 1091.18,-107.99 1080.76,-106.09 1081.85,-113.01"/>
</g>
<!-- y_2aeb6a5422726bc4dfbbbadc099f1760&#45;&gt;create_function_job_65c7f45cff3952fa90203cdbc4f68274 -->
<g id="edge6" class="edge">
<title>y_2aeb6a5422726bc4dfbbbadc099f1760-&gt;create_function_job_65c7f45cff3952fa90203cdbc4f68274</title>
<path fill="none" stroke="black" d="M1101.41,-72.1C1042.31,-61.83 966.72,-48.7 905.49,-38.07"/>
<polygon fill="black" stroke="black" points="906.17,-34.64 895.72,-36.37 904.98,-41.53 906.17,-34.64"/>
</g>
<!-- y_a9ec4f5f33f0d64e74ed5d9900bceac6 -->
<g id="node5" class="node">
<title>y_a9ec4f5f33f0d64e74ed5d9900bceac6</title>
<ellipse fill="none" stroke="black" cx="1017.71" cy="-162" rx="31.74" ry="18"/>
<text text-anchor="middle" x="1017.71" y="-157.32" font-family="Times,serif" font-size="14.00">y=2</text>
</g>
<!-- y_a9ec4f5f33f0d64e74ed5d9900bceac6&#45;&gt;x_497c5ebc48033cf60f366c0fd3763723 -->
<g id="edge4" class="edge">
<title>y_a9ec4f5f33f0d64e74ed5d9900bceac6-&gt;x_497c5ebc48033cf60f366c0fd3763723</title>
<path fill="none" stroke="black" d="M986.76,-157.53C908.33,-148.73 697.48,-125.08 549.62,-108.49"/>
<polygon fill="black" stroke="black" points="550.03,-105.01 539.7,-107.38 549.25,-111.97 550.03,-105.01"/>
</g>
<!-- y_a9ec4f5f33f0d64e74ed5d9900bceac6&#45;&gt;y_2aeb6a5422726bc4dfbbbadc099f1760 -->
<g id="edge5" class="edge">
<title>y_a9ec4f5f33f0d64e74ed5d9900bceac6-&gt;y_2aeb6a5422726bc4dfbbbadc099f1760</title>
<path fill="none" stroke="black" d="M1043.25,-151.12C1069.19,-141.09 1110.18,-125.24 1143.56,-112.33"/>
<polygon fill="black" stroke="black" points="1144.62,-115.67 1152.68,-108.8 1142.09,-109.14 1144.62,-115.67"/>
</g>
</g>
</svg>