<svg xmlns="http://www.w3.org/2000/svg" xmlns:xlink="http://www.w3.org/1999/xlink" width="2907pt" height="476pt" viewBox="0.00 0.00 2906.53 476.00">
<g id="graph0" class="graph" transform="scale(1 1) rotate(0) translate(4 472)">
<polygon fill="white" stroke="none" points="-4,4 -4,-472 2902.53,-472 2902.53,4 -4,4"/>
<!-- create_function_job_dae750e8dda36ce20c8f461aa2b9d570 -->
<g id="node1" class="node">
<title>create_function_job_dae750e8dda36ce20c8f461aa2b9d570</title>
<ellipse fill="none" stroke="black" cx="1529.08" cy="-18" rx="478.94" ry="18"/>
<text text-anchor="middle" x="1529.08" y="-13.32" font-family="Times,serif" font-size="14.00">create_function_job=&lt;pyiron_base.project.delayed.DelayedObject object at 0x7efc8dc3afc0&gt;</text>
</g>
<!-- macros_tex_d7e91609122a5793f44a95d7162f82c5 -->
<g id="node2" class="node">
<title>macros_tex_d7e91609122a5793f44a95d7162f82c5</title>
<ellipse fill="none" stroke="black" cx="1991.08" cy="-90" rx="442.11" ry="18"/>
<text text-anchor="middle" x="1991.08" y="-85.33" font-family="Times,serif" font-size="14.00">macros_tex=&lt;pyiron_base.project.delayed.DelayedObject object at 0x7efc8dc3ad50&gt;</text>
</g>
<!-- macros_tex_d7e91609122a5793f44a95d7162f82c5&#45;&gt;create_function_job_dae750e8dda36ce20c8f461aa2b9d570 -->
<g id="edge1" class="edge">
<title>macros_tex_d7e91609122a5793f44a95d7162f82c5-&gt;create_function_job_dae750e8dda36ce20c8f461aa2b9d570</title>
<path fill="none" stroke="black" d="M1879.54,-72.1C1810.85,-61.69 1722.72,-48.34 1652.02,-37.63"/>
<polygon fill="black" stroke="black" points="1652.74,-34.2 1642.33,-36.16 1651.69,-41.12 1652.74,-34.2"/>
</g>
<!-- pvbatch_output_file_f6679ca13153e695cd36070d492d8182 -->
<g id="node3" class="node">
<title>pvbatch_output_file_f6679ca13153e695cd36070d492d8182</title>
<ellipse fill="none" stroke="black" cx="1630.08" cy="-162" rx="482.62" ry="18"/>
<text text-anchor="middle" x="1630.08" y="-157.32" font-family="Times,serif" font-size="14.00">pvbatch_output_file=&lt;pyiron_base.project.delayed.DelayedObject object at 0x7efc8dc3aa20&gt;</text>
</g>
<!-- pvbatch_output_file_f6679ca13153e695cd36070d492d8182&#45;&gt;macros_tex_d7e91609122a5793f44a95d7162f82c5 -->
<g id="edge2" class="edge">
<title>pvbatch_output_file_f6679ca13153e695cd36070d492d8182-&gt;macros_tex_d7e91609122a5793f44a95d7162f82c5</title>
<path fill="none" stroke="black" d="M1718.39,-143.88C1770.93,-133.69 1837.7,-120.74 1892.02,-110.21"/>
<polygon fill="black" stroke="black" points="1892.42,-113.7 1901.57,-108.36 1891.09,-106.82 1892.42,-113.7"/>
</g>
<!-- poisson_output_pvd_file_41d40612f4bc22f2593e670f29125006 -->
<g id="node4" class="node">
<title>poisson_output_pvd_file_41d40612f4bc22f2593e670f29125006</title>
<ellipse fill="none" stroke="black" cx="1525.08" cy="-234" rx="503.14" ry="18"/>
<text text-anchor="middle" x="1525.08" y="-229.32" font-family="Times,serif" font-size="14.00">poisson_output_pvd_file=&lt;pyiron_base.project.delayed.DelayedObject object at 0x7efc8dc3a6c0&gt;</text>
</g>
<!-- poisson_output_pvd_file_41d40612f4bc22f2593e670f29125006&#45;&gt;pvbatch_output_file_f6679ca13153e695cd36070d492d8182 -->
<g id="edge3" class="edge">
<title>poisson_output_pvd_file_41d40612f4bc22f2593e670f29125006-&gt;pvbatch_output_file_f6679ca13153e695cd36070d492d8182</title>
<path fill="none" stroke="black" d="M1551.04,-215.7C1564.16,-206.95 1580.29,-196.19 1594.55,-186.69"/>
<polygon fill="black" stroke="black" points="1596.43,-189.65 1602.8,-181.19 1592.54,-183.82 1596.43,-189.65"/>
</g>
<!-- plot_file_f6679ca13153e695cd36070d492d8182 -->
<g id="node5" class="node">
<title>plot_file_f6679ca13153e695cd36070d492d8182</title>
<ellipse fill="none" stroke="black" cx="705.08" cy="-162" rx="424.22" ry="18"/>
<text text-anchor="middle" x="705.08" y="-157.32" font-family="Times,serif" font-size="14.00">plot_file=&lt;pyiron_base.project.delayed.DelayedObject object at 0x7efc8dc3aa20&gt;</text>
</g>
<!-- poisson_output_pvd_file_41d40612f4bc22f2593e670f29125006&#45;&gt;plot_file_f6679ca13153e695cd36070d492d8182 -->
<g id="edge4" class="edge">
<title>poisson_output_pvd_file_41d40612f4bc22f2593e670f29125006-&gt;plot_file_f6679ca13153e695cd36070d492d8182</title>
<path fill="none" stroke="black" d="M1336.19,-216.87C1205.45,-205.71 1031.91,-190.9 899.9,-179.63"/>
<polygon fill="black" stroke="black" points="900.23,-176.15 889.97,-178.78 899.64,-183.12 900.23,-176.15"/>
</g>
<!-- plot_file_f6679ca13153e695cd36070d492d8182&#45;&gt;create_function_job_dae750e8dda36ce20c8f461aa2b9d570 -->
<g id="edge18" class="edge">
<title>plot_file_f6679ca13153e695cd36070d492d8182-&gt;create_function_job_dae750e8dda36ce20c8f461aa2b9d570</title>
<path fill="none" stroke="black" d="M803.66,-144.01C958.48,-117.33 1257.6,-65.78 1419.16,-37.94"/>
<polygon fill="black" stroke="black" points="1419.32,-41.47 1428.58,-36.32 1418.13,-34.57 1419.32,-41.47"/>
</g>
<!-- meshio_output_xdmf_e20be8f29bc4ca911e1e857f5d76741c -->
<g id="node6" class="node">
<title>meshio_output_xdmf_e20be8f29bc4ca911e1e857f5d76741c</title>
<ellipse fill="none" stroke="black" cx="1411.08" cy="-306" rx="488.93" ry="18"/>
<text text-anchor="middle" x="1411.08" y="-301.32" font-family="Times,serif" font-size="14.00">meshio_output_xdmf=&lt;pyiron_base.project.delayed.DelayedObject object at 0x7efc8dc3a270&gt;</text>
</g>
<!-- meshio_output_xdmf_e20be8f29bc4ca911e1e857f5d76741c&#45;&gt;poisson_output_pvd_file_41d40612f4bc22f2593e670f29125006 -->
<g id="edge5" class="edge">
<title>meshio_output_xdmf_e20be8f29bc4ca911e1e857f5d76741c-&gt;poisson_output_pvd_file_41d40612f4bc22f2593e670f29125006</title>
<path fill="none" stroke="black" d="M1439.26,-287.7C1453.79,-278.78 1471.7,-267.78 1487.4,-258.14"/>
<polygon fill="black" stroke="black" points="1488.85,-261.35 1495.54,-253.14 1485.19,-255.39 1488.85,-261.35"/>
</g>
<!-- poisson_output_vtu_file_fba6f167ab9d57bbcafccf92fb371512 -->
<g id="node7" class="node">
<title>poisson_output_vtu_file_fba6f167ab9d57bbcafccf92fb371512</title>
<ellipse fill="none" stroke="black" cx="502.08" cy="-234" rx="502.08" ry="18"/>
<text text-anchor="middle" x="502.08" y="-229.32" font-family="Times,serif" font-size="14.00">poisson_output_vtu_file=&lt;pyiron_base.project.delayed.DelayedObject object at 0x7efc8dc3a690&gt;</text>
</g>
<!-- meshio_output_xdmf_e20be8f29bc4ca911e1e857f5d76741c&#45;&gt;poisson_output_vtu_file_fba6f167ab9d57bbcafccf92fb371512 -->
<g id="edge6" class="edge">
<title>meshio_output_xdmf_e20be8f29bc4ca911e1e857f5d76741c-&gt;poisson_output_vtu_file_fba6f167ab9d57bbcafccf92fb371512</title>
<path fill="none" stroke="black" d="M1205.95,-289.2C1061.02,-278.04 867.08,-263.11 719.48,-251.74"/>
<polygon fill="black" stroke="black" points="719.79,-248.25 709.55,-250.98 719.25,-255.23 719.79,-248.25"/>
</g>
<!-- ndofs_c902b1da86c67e7079cdd6e960396773 -->
<g id="node8" class="node">
<title>ndofs_c902b1da86c67e7079cdd6e960396773</title>
<ellipse fill="none" stroke="black" cx="2458.08" cy="-234" rx="412.12" ry="18"/>
<text text-anchor="middle" x="2458.08" y="-229.32" font-family="Times,serif" font-size="14.00">ndofs=&lt;pyiron_base.project.delayed.DelayedObject object at 0x7efc8dc3aab0&gt;</text>
</g>
<!-- meshio_output_xdmf_e20be8f29bc4ca911e1e857f5d76741c&#45;&gt;ndofs_c902b1da86c67e7079cdd6e960396773 -->
<g id="edge7" class="edge">
<title>meshio_output_xdmf_e20be8f29bc4ca911e1e857f5d76741c-&gt;ndofs_c902b1da86c67e7079cdd6e960396773</title>
<path fill="none" stroke="black" d="M1640.53,-289.66C1814.71,-278.01 2053.18,-262.07 2227.62,-250.41"/>
<polygon fill="black" stroke="black" points="2227.76,-253.91 2237.51,-249.75 2227.29,-246.92 2227.76,-253.91"/>
</g>
<!-- poisson_output_vtu_file_fba6f167ab9d57bbcafccf92fb371512&#45;&gt;pvbatch_output_file_f6679ca13153e695cd36070d492d8182 -->
<g id="edge15" class="edge">
<title>poisson_output_vtu_file_fba6f167ab9d57bbcafccf92fb371512-&gt;pvbatch_output_file_f6679ca13153e695cd36070d492d8182</title>
<path fill="none" stroke="black" d="M746.15,-217.85C932.47,-206.29 1188.41,-190.41 1376.95,-178.71"/>
<polygon fill="black" stroke="black" points="1377.14,-182.2 1386.91,-178.09 1376.71,-175.22 1377.14,-182.2"/>
</g>
<!-- poisson_output_vtu_file_fba6f167ab9d57bbcafccf92fb371512&#45;&gt;plot_file_f6679ca13153e695cd36070d492d8182 -->
<g id="edge16" class="edge">
<title>poisson_output_vtu_file_fba6f167ab9d57bbcafccf92fb371512-&gt;plot_file_f6679ca13153e695cd36070d492d8182</title>
<path fill="none" stroke="black" d="M552.52,-215.61C580.34,-206.01 615.08,-194.04 644.38,-183.93"/>
<polygon fill="black" stroke="black" points="645.16,-187.37 653.47,-180.8 642.88,-180.75 645.16,-187.37"/>
</g>
<!-- ndofs_c902b1da86c67e7079cdd6e960396773&#45;&gt;macros_tex_d7e91609122a5793f44a95d7162f82c5 -->
<g id="edge17" class="edge">
<title>ndofs_c902b1da86c67e7079cdd6e960396773-&gt;macros_tex_d7e91609122a5793f44a95d7162f82c5</title>
<path fill="none" stroke="black" d="M2401.29,-215.73C2314.98,-189.49 2151.1,-139.66 2058.75,-111.57"/>
<polygon fill="black" stroke="black" points="2059.88,-108.26 2049.3,-108.7 2057.85,-114.96 2059.88,-108.26"/>
</g>
<!-- gmsh_output_file_1cb82d5adda4ad37cdf5ce6e8136f5d3 -->
<g id="node9" class="node">
<title>gmsh_output_file_1cb82d5adda4ad37cdf5ce6e8136f5d3</title>
<ellipse fill="none" stroke="black" cx="2394.08" cy="-378" rx="470.52" ry="18"/>
<text text-anchor="middle" x="2394.08" y="-373.32" font-family="Times,serif" font-size="14.00">gmsh_output_file=&lt;pyiron_base.project.delayed.DelayedObject object at 0x7efc8dc3a120&gt;</text>
</g>
<!-- gmsh_output_file_1cb82d5adda4ad37cdf5ce6e8136f5d3&#45;&gt;meshio_output_xdmf_e20be8f29bc4ca911e1e857f5d76741c -->
<g id="edge8" class="edge">
<title>gmsh_output_file_1cb82d5adda4ad37cdf5ce6e8136f5d3-&gt;meshio_output_xdmf_e20be8f29bc4ca911e1e857f5d76741c</title>
<path fill="none" stroke="black" d="M2177.45,-361.57C2018.29,-350.24 1802.45,-334.87 1640.39,-323.33"/>
<polygon fill="black" stroke="black" points="1641.03,-319.87 1630.81,-322.65 1640.54,-326.85 1641.03,-319.87"/>
</g>
<!-- meshio_output_h5_70513360c325554f1fb9101a93e5febe -->
<g id="node10" class="node">
<title>meshio_output_h5_70513360c325554f1fb9101a93e5febe</title>
<ellipse fill="none" stroke="black" cx="2394.08" cy="-306" rx="476.3" ry="18"/>
<text text-anchor="middle" x="2394.08" y="-301.32" font-family="Times,serif" font-size="14.00">meshio_output_h5=&lt;pyiron_base.project.delayed.DelayedObject object at 0x7efc8dc3a300&gt;</text>
</g>
<!-- gmsh_output_file_1cb82d5adda4ad37cdf5ce6e8136f5d3&#45;&gt;meshio_output_h5_70513360c325554f1fb9101a93e5febe -->
<g id="edge9" class="edge">
<title>gmsh_output_file_1cb82d5adda4ad37cdf5ce6e8136f5d3-&gt;meshio_output_h5_70513360c325554f1fb9101a93e5febe</title>
<path fill="none" stroke="black" d="M2394.08,-359.7C2394.08,-352.41 2394.08,-343.73 2394.08,-335.54"/>
<polygon fill="black" stroke="black" points="2397.58,-335.62 2394.08,-325.62 2390.58,-335.62 2397.58,-335.62"/>
</g>
<!-- meshio_output_h5_70513360c325554f1fb9101a93e5febe&#45;&gt;poisson_output_pvd_file_41d40612f4bc22f2593e670f29125006 -->
<g id="edge12" class="edge">
<title>meshio_output_h5_70513360c325554f1fb9101a93e5febe-&gt;poisson_output_pvd_file_41d40612f4bc22f2593e670f29125006</title>
<path fill="none" stroke="black" d="M2197.44,-289.16C2059.6,-278.06 1875.61,-263.24 1734.95,-251.9"/>
<polygon fill="black" stroke="black" points="1735.37,-248.43 1725.12,-251.11 1734.81,-255.41 1735.37,-248.43"/>
</g>
<!-- meshio_output_h5_70513360c325554f1fb9101a93e5febe&#45;&gt;poisson_output_vtu_file_fba6f167ab9d57bbcafccf92fb371512 -->
<g id="edge13" class="edge">
<title>meshio_output_h5_70513360c325554f1fb9101a93e5febe-&gt;poisson_output_vtu_file_fba6f167ab9d57bbcafccf92fb371512</title>
<path fill="none" stroke="black" d="M2062.36,-292.73C1723.67,-280.2 1199.92,-260.82 854.07,-248.02"/>
<polygon fill="black" stroke="black" points="854.25,-244.53 844.12,-247.65 853.99,-251.52 854.25,-244.53"/>
</g>
<!-- meshio_output_h5_70513360c325554f1fb9101a93e5febe&#45;&gt;ndofs_c902b1da86c67e7079cdd6e960396773 -->
<g id="edge14" class="edge">
<title>meshio_output_h5_70513360c325554f1fb9101a93e5febe-&gt;ndofs_c902b1da86c67e7079cdd6e960396773</title>
<path fill="none" stroke="black" d="M2409.9,-287.7C2417.42,-279.47 2426.56,-269.48 2434.84,-260.42"/>
<polygon fill="black" stroke="black" points="2437.26,-262.96 2441.42,-253.22 2432.09,-258.24 2437.26,-262.96"/>
</g>
<!-- domain_size_f12a7f1986b9dd058dfc666dbe230b20 -->
<g id="node11" class="node">
<title>domain_size_f12a7f1986b9dd058dfc666dbe230b20</title>
<ellipse fill="none" stroke="black" cx="2646.08" cy="-450" rx="96.45" ry="18"/>
<text text-anchor="middle" x="2646.08" y="-445.32" font-family="Times,serif" font-size="14.00">domain_size=2.0</text>
</g>
<!-- domain_size_f12a7f1986b9dd058dfc666dbe230b20&#45;&gt;macros_tex_d7e91609122a5793f44a95d7162f82c5 -->
<g id="edge10" class="edge">
<title>domain_size_f12a7f1986b9dd058dfc666dbe230b20-&gt;macros_tex_d7e91609122a5793f44a95d7162f82c5</title>
<path fill="none" stroke="black" d="M2725.26,-439.34C2782.32,-430.8 2852.85,-416.5 2874.08,-396 2903.56,-367.54 2898.08,-347.97 2898.08,-307 2898.08,-307 2898.08,-307 2898.08,-233 2898.08,-166.36 2510.98,-126.19 2242.56,-106.34"/>
<polygon fill="black" stroke="black" points="2243.2,-102.88 2232.97,-105.64 2242.69,-109.86 2243.2,-102.88"/>
</g>
<!-- domain_size_f12a7f1986b9dd058dfc666dbe230b20&#45;&gt;gmsh_output_file_1cb82d5adda4ad37cdf5ce6e8136f5d3 -->
<g id="edge11" class="edge">
<title>domain_size_f12a7f1986b9dd058dfc666dbe230b20-&gt;gmsh_output_file_1cb82d5adda4ad37cdf5ce6e8136f5d3</title>
<path fill="none" stroke="black" d="M2593.87,-434.5C2557.29,-424.33 2507.9,-410.62 2467.38,-399.36"/>
<polygon fill="black" stroke="black" points="2468.51,-396.04 2457.93,-396.74 2466.63,-402.78 2468.51,-396.04"/>
</g>
</g>
</svg>