<svg xmlns="http://www.w3.org/2000/svg" xmlns:xlink="http://www.w3.org/1999/xlink" width="729pt" height="580pt" viewBox="0.00 0.00 729.21 579.50">
<g id="graph0" class="graph" transform="scale(1 1) rotate(0) translate(4 575.5)">
<polygon fill="white" stroke="none" points="-4,4 -4,-575.5 725.21,-575.5 725.21,4 -4,4"/>
<!-- 0 -->
<g id="node1" class="node">
<title>0</title>
<ellipse fill="none" stroke="black" cx="367.21" cy="-464.25" rx="179.58" ry="18"/>
<text text-anchor="middle" x="367.21" y="-459.57" font-family="Times,serif" font-size="14.00">nfdi_ing_workflow.generate_mesh</text>
</g>
<!-- 1 -->
<g id="node2" class="node">
<title>1</title>
<ellipse fill="none" stroke="black" cx="305.21" cy="-375" rx="185.89" ry="18"/>
<text text-anchor="middle" x="305.21" y="-370.32" font-family="Times,serif" font-size="14.00">nfdi_ing_workflow.convert_to_xdmf</text>
</g>
<!-- 0&#45;&gt;1 -->
<g id="edge1" class="edge">
<title>0-&gt;1</title>
<path fill="none" stroke="black" d="M354.96,-446.01C346.13,-433.58 334.05,-416.58 324,-402.44"/>
<polygon fill="black" stroke="black" points="326.96,-400.56 318.31,-394.44 321.25,-404.61 326.96,-400.56"/>
<text text-anchor="middle" x="402.52" y="-414.95" font-family="Times,serif" font-size="14.00">gmsh_output_file</text>
</g>
<!-- 2 -->
<g id="node3" class="node">
<title>2</title>
<ellipse fill="none" stroke="black" cx="190.21" cy="-285.75" rx="141.17" ry="18"/>
<text text-anchor="middle" x="190.21" y="-281.07" font-family="Times,serif" font-size="14.00">nfdi_ing_workflow.poisson</text>
</g>
<!-- 1&#45;&gt;2 -->
<g id="edge2" class="edge">
<title>1-&gt;2</title>
<path fill="none" stroke="black" d="M215.72,-358.92C206.33,-353.97 197.89,-347.48 191.46,-339 186.4,-332.31 184.83,-323.64 184.89,-315.29"/>
<polygon fill="black" stroke="black" points="188.37,-315.72 185.74,-305.45 181.39,-315.11 188.37,-315.72"/>
<text text-anchor="middle" x="401.84" y="-325.7" font-family="Times,serif" font-size="14.00">xdmf_file=meshio_output_xdmf, h5_file=meshio_output_h5</text>
</g>
<!-- 3 -->
<g id="node4" class="node">
<title>3</title>
<ellipse fill="none" stroke="black" cx="223.21" cy="-196.5" rx="172.74" ry="18"/>
<text text-anchor="middle" x="223.21" y="-191.82" font-family="Times,serif" font-size="14.00">nfdi_ing_workflow.plot_over_line</text>
</g>
<!-- 2&#45;&gt;3 -->
<g id="edge3" class="edge">
<title>2-&gt;3</title>
<path fill="none" stroke="black" d="M74.56,-275.08C42.56,-269.88 13.81,-261.92 3.71,-249.75 -1.18,-243.85 -1.26,-238.33 3.71,-232.5 13.4,-221.14 37.28,-213.46 65.89,-208.25"/>
<polygon fill="black" stroke="black" points="66.29,-211.74 75.57,-206.63 65.13,-204.83 66.29,-211.74"/>
<text text-anchor="middle" x="241.46" y="-236.45" font-family="Times,serif" font-size="14.00">pvd_file=poisson_output_pvd_file, vtu_file=poisson_output_vtu_file</text>
</g>
<!-- 4 -->
<g id="node5" class="node">
<title>4</title>
<ellipse fill="none" stroke="black" cx="493.21" cy="-107.25" rx="195.36" ry="18"/>
<text text-anchor="middle" x="493.21" y="-102.58" font-family="Times,serif" font-size="14.00">nfdi_ing_workflow.substitute_macros</text>
</g>
<!-- 2&#45;&gt;4 -->
<g id="edge4" class="edge">
<title>2-&gt;4</title>
<path fill="none" stroke="black" d="M314.47,-276.89C387.27,-271.04 467.26,-261.97 479.21,-249.75 508.14,-220.18 505.2,-168.68 499.71,-136.64"/>
<polygon fill="black" stroke="black" points="503.16,-136.04 497.83,-126.89 496.28,-137.37 503.16,-136.04"/>
<text text-anchor="middle" x="559.48" y="-191.82" font-family="Times,serif" font-size="14.00">numdofs=ndofs</text>
</g>
<!-- 3&#45;&gt;4 -->
<g id="edge5" class="edge">
<title>3-&gt;4</title>
<path fill="none" stroke="black" d="M256.66,-178.37C279.57,-167.17 310.91,-152.89 339.71,-143.25 358.74,-136.88 379.48,-131.29 399.38,-126.55"/>
<polygon fill="black" stroke="black" points="399.91,-130.02 408.86,-124.35 398.32,-123.2 399.91,-130.02"/>
<text text-anchor="middle" x="409.46" y="-147.2" font-family="Times,serif" font-size="14.00">pvbatch_output_file</text>
</g>
<!-- 5 -->
<g id="node6" class="node">
<title>5</title>
<ellipse fill="none" stroke="black" cx="239.21" cy="-18" rx="175.9" ry="18"/>
<text text-anchor="middle" x="239.21" y="-13.32" font-family="Times,serif" font-size="14.00">nfdi_ing_workflow.compile_paper</text>
</g>
<!-- 3&#45;&gt;5 -->
<g id="edge6" class="edge">
<title>3-&gt;5</title>
<path fill="none" stroke="black" d="M224.78,-178.26C227.54,-147.81 233.3,-84.26 236.65,-47.3"/>
<polygon fill="black" stroke="black" points="240.09,-48.1 237.51,-37.82 233.12,-47.47 240.09,-48.1"/>
<text text-anchor="middle" x="260.93" y="-102.58" font-family="Times,serif" font-size="14.00">plot_file</text>
</g>
<!-- 4&#45;&gt;5 -->
<g id="edge7" class="edge">
<title>4-&gt;5</title>
<path fill="none" stroke="black" d="M444.24,-89.43C402.69,-75.15 342.94,-54.63 298.66,-39.42"/>
<polygon fill="black" stroke="black" points="300.06,-36.2 289.47,-36.26 297.79,-42.82 300.06,-36.2"/>
<text text-anchor="middle" x="429.46" y="-57.95" font-family="Times,serif" font-size="14.00">macros_tex</text>
</g>
<!-- 6 -->
<g id="node7" class="node">
<title>6</title>
<ellipse fill="none" stroke="black" cx="530.21" cy="-553.5" rx="27.01" ry="18"/>
<text text-anchor="middle" x="530.21" y="-548.83" font-family="Times,serif" font-size="14.00">2.0</text>
</g>
<!-- 6&#45;&gt;0 -->
<g id="edge8" class="edge">
<title>6-&gt;0</title>
<path fill="none" stroke="black" d="M509.57,-541.45C484.45,-528 441.4,-504.96 409.2,-487.73"/>
<polygon fill="black" stroke="black" points="410.97,-484.7 400.5,-483.07 407.67,-490.87 410.97,-484.7"/>
<text text-anchor="middle" x="506.81" y="-504.2" font-family="Times,serif" font-size="14.00">domain_size</text>
</g>
<!-- 6&#45;&gt;4 -->
<g id="edge9" class="edge">
<title>6-&gt;4</title>
<path fill="none" stroke="black" d="M554.07,-544.52C584.78,-532.56 634.21,-506.85 634.21,-465.25 634.21,-465.25 634.21,-465.25 634.21,-195.5 634.21,-162.52 605.98,-141.59 574.78,-128.52"/>
<polygon fill="black" stroke="black" points="576.12,-125.29 565.54,-124.94 573.59,-131.82 576.12,-125.29"/>
<text text-anchor="middle" x="677.71" y="-325.7" font-family="Times,serif" font-size="14.00">domain_size</text>
</g>
</g>
</svg>