<svg xmlns="http://www.w3.org/2000/svg" xmlns:xlink="http://www.w3.org/1999/xlink" width="2385pt" height="188pt" viewBox="0.00 0.00 2384.99 188.00">
<g id="graph0" class="graph" transform="scale(1 1) rotate(0) translate(4 184)">
<polygon fill="white" stroke="none" points="-4,4 -4,-184 2380.99,-184 2380.99,4 -4,4"/>
<!-- create_function_job_988efa8422518ba29903b66c63607fb8 -->
<g id="node1" class="node">
<title>create_function_job_988efa8422518ba29903b66c63607fb8</title>
<ellipse fill="none" stroke="black" cx="1190.55" cy="-18" rx="483.14" ry="18"/>
<text text-anchor="middle" x="1190.55" y="-13.32" font-family="Times,serif" font-size="14.00">create_function_job=&lt;pyiron_base.project.delayed.DelayedObject object at 0x71606f71f740&gt;</text>
</g>
<!-- x_b8003ea81f8e4a9bdbfd3b4eb1e68e2b -->
<g id="node2" class="node">
<title>x_b8003ea81f8e4a9bdbfd3b4eb1e68e2b</title>
<ellipse fill="none" stroke="black" cx="390.55" cy="-90" rx="390.55" ry="18"/>
<text text-anchor="middle" x="390.55" y="-85.33" font-family="Times,serif" font-size="14.00">x=&lt;pyiron_base.project.delayed.DelayedObject object at 0x71606f6efa70&gt;</text>
</g>
<!-- x_b8003ea81f8e4a9bdbfd3b4eb1e68e2b&#45;&gt;create_function_job_988efa8422518ba29903b66c63607fb8 -->
<g id="edge1" class="edge">
<title>x_b8003ea81f8e4a9bdbfd3b4eb1e68e2b-&gt;create_function_job_988efa8422518ba29903b66c63607fb8</title>
<path fill="none" stroke="black" d="M567.6,-73.51C694.27,-62.42 864.76,-47.51 995.37,-36.08"/>
<polygon fill="black" stroke="black" points="995.52,-39.58 1005.17,-35.22 994.91,-32.61 995.52,-39.58"/>
</g>
<!-- x_1d847da32ecaabf6731c38f798c3d4ce -->
<g id="node3" class="node">
<title>x_1d847da32ecaabf6731c38f798c3d4ce</title>
<ellipse fill="none" stroke="black" cx="1149.55" cy="-162" rx="31.74" ry="18"/>
<text text-anchor="middle" x="1149.55" y="-157.32" font-family="Times,serif" font-size="14.00">x=1</text>
</g>
<!-- x_1d847da32ecaabf6731c38f798c3d4ce&#45;&gt;x_b8003ea81f8e4a9bdbfd3b4eb1e68e2b -->
<g id="edge2" class="edge">
<title>x_1d847da32ecaabf6731c38f798c3d4ce-&gt;x_b8003ea81f8e4a9bdbfd3b4eb1e68e2b</title>
<path fill="none" stroke="black" d="M1118.38,-158.13C1027.26,-149.72 756.14,-124.72 571.8,-107.72"/>
<polygon fill="black" stroke="black" points="572.12,-104.23 561.84,-106.8 571.48,-111.2 572.12,-104.23"/>
</g>
<!-- y_f60ae41b1c92823db71999ac596241ab -->
<g id="node4" class="node">
<title>y_f60ae41b1c92823db71999ac596241ab</title>
<ellipse fill="none" stroke="black" cx="1190.55" cy="-90" rx="391.08" ry="18"/>
<text text-anchor="middle" x="1190.55" y="-85.33" font-family="Times,serif" font-size="14.00">y=&lt;pyiron_base.project.delayed.DelayedObject object at 0x71606f71f6e0&gt;</text>
</g>
<!-- x_1d847da32ecaabf6731c38f798c3d4ce&#45;&gt;y_f60ae41b1c92823db71999ac596241ab -->
<g id="edge3" class="edge">
<title>x_1d847da32ecaabf6731c38f798c3d4ce-&gt;y_f60ae41b1c92823db71999ac596241ab</title>
<path fill="none" stroke="black" d="M1159.27,-144.41C1163.83,-136.62 1169.38,-127.14 1174.54,-118.33"/>
<polygon fill="black" stroke="black" points="1177.53,-120.15 1179.57,-109.75 1171.49,-116.61 1177.53,-120.15"/>
</g>
<!-- z_a926da40ec18154feb3f3bb147af8220 -->
<g id="node5" class="node">
<title>z_a926da40ec18154feb3f3bb147af8220</title>
<ellipse fill="none" stroke="black" cx="1988.55" cy="-90" rx="388.44" ry="18"/>
<text text-anchor="middle" x="1988.55" y="-85.33" font-family="Times,serif" font-size="14.00">z=&lt;pyiron_base.project.delayed.DelayedObject object at 0x71606f71f2f0&gt;</text>
</g>
<!-- x_1d847da32ecaabf6731c38f798c3d4ce&#45;&gt;z_a926da40ec18154feb3f3bb147af8220 -->
<g id="edge4" class="edge">
<title>x_1d847da32ecaabf6731c38f798c3d4ce-&gt;z_a926da40ec18154feb3f3bb147af8220</title>
<path fill="none" stroke="black" d="M1172.79,-149.58C1178.18,-147.37 1183.97,-145.33 1189.55,-144 1240.41,-131.87 1507.4,-115.7 1718.94,-104.42"/>
<polygon fill="black" stroke="black" points="1718.93,-107.92 1728.73,-103.9 1718.56,-100.93 1718.93,-107.92"/>
</g>
<!-- y_f60ae41b1c92823db71999ac596241ab&#45;&gt;create_function_job_988efa8422518ba29903b66c63607fb8 -->
<g id="edge8" class="edge">
<title>y_f60ae41b1c92823db71999ac596241ab-&gt;create_function_job_988efa8422518ba29903b66c63607fb8</title>
<path fill="none" stroke="black" d="M1190.55,-71.7C1190.55,-64.41 1190.55,-55.73 1190.55,-47.54"/>
<polygon fill="black" stroke="black" points="1194.05,-47.62 1190.55,-37.62 1187.05,-47.62 1194.05,-47.62"/>
</g>
<!-- z_a926da40ec18154feb3f3bb147af8220&#45;&gt;create_function_job_988efa8422518ba29903b66c63607fb8 -->
<g id="edge9" class="edge">
<title>z_a926da40ec18154feb3f3bb147af8220-&gt;create_function_job_988efa8422518ba29903b66c63607fb8</title>
<path fill="none" stroke="black" d="M1812.44,-73.55C1686.11,-62.47 1515.89,-47.54 1385.48,-36.1"/>
<polygon fill="black" stroke="black" points="1385.95,-32.63 1375.69,-35.24 1385.34,-39.6 1385.95,-32.63"/>
</g>
<!-- y_a9ec4f5f33f0d64e74ed5d9900bceac6 -->
<g id="node6" class="node">
<title>y_a9ec4f5f33f0d64e74ed5d9900bceac6</title>
<ellipse fill="none" stroke="black" cx="1230.55" cy="-162" rx="31.74" ry="18"/>
<text text-anchor="middle" x="1230.55" y="-157.32" font-family="Times,serif" font-size="14.00">y=2</text>
</g>
<!-- y_a9ec4f5f33f0d64e74ed5d9900bceac6&#45;&gt;x_b8003ea81f8e4a9bdbfd3b4eb1e68e2b -->
<g id="edge5" class="edge">
<title>y_a9ec4f5f33f0d64e74ed5d9900bceac6-&gt;x_b8003ea81f8e4a9bdbfd3b4eb1e68e2b</title>
<path fill="none" stroke="black" d="M1207.31,-149.58C1201.92,-147.37 1196.13,-145.33 1190.55,-144 1139.67,-131.87 872.74,-115.71 661.01,-104.44"/>
<polygon fill="black" stroke="black" points="661.38,-100.95 651.21,-103.92 661.01,-107.94 661.38,-100.95"/>
</g>
<!-- y_a9ec4f5f33f0d64e74ed5d9900bceac6&#45;&gt;y_f60ae41b1c92823db71999ac596241ab -->
<g id="edge6" class="edge">
<title>y_a9ec4f5f33f0d64e74ed5d9900bceac6-&gt;y_f60ae41b1c92823db71999ac596241ab</title>
<path fill="none" stroke="black" d="M1221.07,-144.41C1216.62,-136.62 1211.2,-127.14 1206.17,-118.33"/>
<polygon fill="black" stroke="black" points="1209.27,-116.71 1201.27,-109.76 1203.19,-120.18 1209.27,-116.71"/>
</g>
<!-- y_a9ec4f5f33f0d64e74ed5d9900bceac6&#45;&gt;z_a926da40ec18154feb3f3bb147af8220 -->
<g id="edge7" class="edge">
<title>y_a9ec4f5f33f0d64e74ed5d9900bceac6-&gt;z_a926da40ec18154feb3f3bb147af8220</title>
<path fill="none" stroke="black" d="M1261.68,-158.13C1352.75,-149.72 1623.84,-124.68 1807.95,-107.68"/>
<polygon fill="black" stroke="black" points="1808.26,-111.16 1817.89,-106.76 1807.61,-104.19 1808.26,-111.16"/>
</g>
</g>
</svg>