<svg xmlns="http://www.w3.org/2000/svg" xmlns:xlink="http://www.w3.org/1999/xlink" width="886pt" height="580pt" viewBox="0.00 0.00 886.31 579.50">
<g id="graph0" class="graph" transform="scale(1 1) rotate(0) translate(4 575.5)">
<polygon fill="white" stroke="none" points="-4,4 -4,-575.5 882.31,-575.5 882.31,4 -4,4"/>
<!-- 0 -->
<g id="node1" class="node">
<title>0</title>
<ellipse fill="none" stroke="black" cx="498.31" cy="-464.25" rx="179.58" ry="18"/>
<text text-anchor="middle" x="498.31" y="-459.57" font-family="Times,serif" font-size="14.00">nfdi_ing_workflow.generate_mesh</text>
</g>
<!-- 1 -->
<g id="node2" class="node">
<title>1</title>
<ellipse fill="none" stroke="black" cx="409.31" cy="-375" rx="185.89" ry="18"/>
<text text-anchor="middle" x="409.31" y="-370.32" font-family="Times,serif" font-size="14.00">nfdi_ing_workflow.convert_to_xdmf</text>
</g>
<!-- 0&#45;&gt;1 -->
<g id="edge1" class="edge">
<title>0-&gt;1</title>
<path fill="none" stroke="black" d="M480.73,-446.01C467.69,-433.23 449.7,-415.59 435.04,-401.22"/>
<polygon fill="black" stroke="black" points="437.53,-398.76 427.94,-394.26 432.63,-403.76 437.53,-398.76"/>
<text text-anchor="middle" x="522.54" y="-414.95" font-family="Times,serif" font-size="14.00">gmsh_output_file</text>
</g>
<!-- 2 -->
<g id="node3" class="node">
<title>2</title>
<ellipse fill="none" stroke="black" cx="241.31" cy="-285.75" rx="141.17" ry="18"/>
<text text-anchor="middle" x="241.31" y="-281.07" font-family="Times,serif" font-size="14.00">nfdi_ing_workflow.poisson</text>
</g>
<!-- 1&#45;&gt;2 -->
<g id="edge2" class="edge">
<title>1-&gt;2</title>
<path fill="none" stroke="black" d="M294.31,-360.45C270.7,-355.31 250.63,-348.35 242.81,-339 237.43,-332.56 235.74,-323.96 235.78,-315.6"/>
<polygon fill="black" stroke="black" points="239.26,-315.96 236.64,-305.69 232.29,-315.35 239.26,-315.96"/>
<text text-anchor="middle" x="506.06" y="-325.7" font-family="Times,serif" font-size="14.00">meshio_output_xdmf=result[xdmf_file], meshio_output_h5=result[h5_file]</text>
</g>
<!-- 3 -->
<g id="node4" class="node">
<title>3</title>
<ellipse fill="none" stroke="black" cx="328.31" cy="-196.5" rx="172.74" ry="18"/>
<text text-anchor="middle" x="328.31" y="-191.82" font-family="Times,serif" font-size="14.00">nfdi_ing_workflow.plot_over_line</text>
</g>
<!-- 2&#45;&gt;3 -->
<g id="edge3" class="edge">
<title>2-&gt;3</title>
<path fill="none" stroke="black" d="M106.8,-279.97C61.25,-275.3 18.22,-266.43 3.81,-249.75 -1.2,-243.95 -1.31,-238.2 3.81,-232.5 15.29,-219.72 88.72,-211.19 162.82,-205.76"/>
<polygon fill="black" stroke="black" points="163,-209.25 172.72,-205.05 162.5,-202.27 163,-209.25"/>
<text text-anchor="middle" x="294.06" y="-236.45" font-family="Times,serif" font-size="14.00">poisson_output_pvd_file=result[pvd_file], poisson_output_vtu_file=result[vtu_file]</text>
</g>
<!-- 4 -->
<g id="node5" class="node">
<title>4</title>
<ellipse fill="none" stroke="black" cx="598.31" cy="-107.25" rx="195.36" ry="18"/>
<text text-anchor="middle" x="598.31" y="-102.58" font-family="Times,serif" font-size="14.00">nfdi_ing_workflow.substitute_macros</text>
</g>
<!-- 2&#45;&gt;4 -->
<g id="edge4" class="edge">
<title>2-&gt;4</title>
<path fill="none" stroke="black" d="M373.5,-279.2C463.58,-274.08 569.18,-264.93 584.31,-249.75 613.52,-220.45 610.49,-168.87 604.91,-136.74"/>
<polygon fill="black" stroke="black" points="608.35,-136.09 603,-126.95 601.48,-137.43 608.35,-136.09"/>
<text text-anchor="middle" x="691.05" y="-191.82" font-family="Times,serif" font-size="14.00">ndofs=result[numdofs]</text>
</g>
<!-- 3&#45;&gt;4 -->
<g id="edge5" class="edge">
<title>3-&gt;4</title>
<path fill="none" stroke="black" d="M361.76,-178.37C384.67,-167.17 416.01,-152.89 444.81,-143.25 463.84,-136.88 484.58,-131.29 504.48,-126.55"/>
<polygon fill="black" stroke="black" points="505.01,-130.02 513.96,-124.35 503.43,-123.2 505.01,-130.02"/>
<text text-anchor="middle" x="514.56" y="-147.2" font-family="Times,serif" font-size="14.00">pvbatch_output_file</text>
</g>
<!-- 5 -->
<g id="node6" class="node">
<title>5</title>
<ellipse fill="none" stroke="black" cx="344.31" cy="-18" rx="175.9" ry="18"/>
<text text-anchor="middle" x="344.31" y="-13.32" font-family="Times,serif" font-size="14.00">nfdi_ing_workflow.compile_paper</text>
</g>
<!-- 3&#45;&gt;5 -->
<g id="edge6" class="edge">
<title>3-&gt;5</title>
<path fill="none" stroke="black" d="M329.88,-178.26C332.64,-147.81 338.4,-84.26 341.75,-47.3"/>
<polygon fill="black" stroke="black" points="345.19,-48.1 342.61,-37.82 338.22,-47.47 345.19,-48.1"/>
<text text-anchor="middle" x="366.03" y="-102.58" font-family="Times,serif" font-size="14.00">plot_file</text>
</g>
<!-- 4&#45;&gt;5 -->
<g id="edge7" class="edge">
<title>4-&gt;5</title>
<path fill="none" stroke="black" d="M549.34,-89.43C507.79,-75.15 448.04,-54.63 403.76,-39.42"/>
<polygon fill="black" stroke="black" points="405.16,-36.2 394.57,-36.26 402.89,-42.82 405.16,-36.2"/>
<text text-anchor="middle" x="534.56" y="-57.95" font-family="Times,serif" font-size="14.00">macros_tex</text>
</g>
<!-- 6 -->
<g id="node7" class="node">
<title>6</title>
<ellipse fill="none" stroke="black" cx="687.31" cy="-553.5" rx="27.01" ry="18"/>
<text text-anchor="middle" x="687.31" y="-548.83" font-family="Times,serif" font-size="14.00">2.0</text>
</g>
<!-- 6&#45;&gt;0 -->
<g id="edge8" class="edge">
<title>6-&gt;0</title>
<path fill="none" stroke="black" d="M665.63,-542.49C636.56,-529.07 584.17,-504.88 545.73,-487.14"/>
<polygon fill="black" stroke="black" points="547.21,-483.97 536.66,-482.95 544.27,-490.32 547.21,-483.97"/>
<text text-anchor="middle" x="653.24" y="-504.2" font-family="Times,serif" font-size="14.00">domain_size</text>
</g>
<!-- 6&#45;&gt;4 -->
<g id="edge9" class="edge">
<title>6-&gt;4</title>
<path fill="none" stroke="black" d="M711.17,-544.52C741.88,-532.56 791.31,-506.85 791.31,-465.25 791.31,-465.25 791.31,-465.25 791.31,-195.5 791.31,-159.1 762.46,-137.81 727.07,-125.38"/>
<polygon fill="black" stroke="black" points="728.45,-122.15 717.86,-122.41 726.31,-128.81 728.45,-122.15"/>
<text text-anchor="middle" x="834.81" y="-325.7" font-family="Times,serif" font-size="14.00">domain_size</text>
</g>
</g>
</svg>