<svg xmlns="http://www.w3.org/2000/svg" xmlns:xlink="http://www.w3.org/1999/xlink" width="2938pt" height="476pt" viewBox="0.00 0.00 2938.22 476.00">
<g id="graph0" class="graph" transform="scale(1 1) rotate(0) translate(4 472)">
<polygon fill="white" stroke="none" points="-4,4 -4,-472 2934.22,-472 2934.22,4 -4,4"/>
<!-- create_function_job_69b38eef29d5c9aba4c6de512da1bb24 -->
<g id="node1" class="node">
<title>create_function_job_69b38eef29d5c9aba4c6de512da1bb24</title>
<ellipse fill="none" stroke="black" cx="1543.77" cy="-18" rx="487.88" ry="18"/>
<text text-anchor="middle" x="1543.77" y="-13.32" font-family="Times,serif" font-size="14.00">create_function_job=&lt;pyiron_base.project.delayed.DelayedObject object at 0x7470370855e0&gt;</text>
</g>
<!-- macros_tex_c5f640fc7b11414962941f82a40a8b04 -->
<g id="node2" class="node">
<title>macros_tex_c5f640fc7b11414962941f82a40a8b04</title>
<ellipse fill="none" stroke="black" cx="2010.77" cy="-90" rx="446.32" ry="18"/>
<text text-anchor="middle" x="2010.77" y="-85.33" font-family="Times,serif" font-size="14.00">macros_tex=&lt;pyiron_base.project.delayed.DelayedObject object at 0x747042cb6ed0&gt;</text>
</g>
<!-- macros_tex_c5f640fc7b11414962941f82a40a8b04&#45;&gt;create_function_job_69b38eef29d5c9aba4c6de512da1bb24 -->
<g id="edge1" class="edge">
<title>macros_tex_c5f640fc7b11414962941f82a40a8b04-&gt;create_function_job_69b38eef29d5c9aba4c6de512da1bb24</title>
<path fill="none" stroke="black" d="M1898.02,-72.1C1828.71,-61.71 1739.83,-48.39 1668.43,-37.69"/>
<polygon fill="black" stroke="black" points="1669.03,-34.24 1658.62,-36.22 1667.99,-41.16 1669.03,-34.24"/>
</g>
<!-- pvbatch_output_file_5f8f87a5c4f1bd1a4b6cca85a1fc2b78 -->
<g id="node3" class="node">
<title>pvbatch_output_file_5f8f87a5c4f1bd1a4b6cca85a1fc2b78</title>
<ellipse fill="none" stroke="black" cx="1645.77" cy="-162" rx="487.88" ry="18"/>
<text text-anchor="middle" x="1645.77" y="-157.32" font-family="Times,serif" font-size="14.00">pvbatch_output_file=&lt;pyiron_base.project.delayed.DelayedObject object at 0x747041dd8c20&gt;</text>
</g>
<!-- pvbatch_output_file_5f8f87a5c4f1bd1a4b6cca85a1fc2b78&#45;&gt;macros_tex_c5f640fc7b11414962941f82a40a8b04 -->
<g id="edge2" class="edge">
<title>pvbatch_output_file_5f8f87a5c4f1bd1a4b6cca85a1fc2b78-&gt;macros_tex_c5f640fc7b11414962941f82a40a8b04</title>
<path fill="none" stroke="black" d="M1735.06,-143.88C1788.17,-133.69 1855.68,-120.74 1910.6,-110.21"/>
<polygon fill="black" stroke="black" points="1911.12,-113.67 1920.28,-108.35 1909.8,-106.8 1911.12,-113.67"/>
</g>
<!-- poisson_output_pvd_file_08c5d21e2c998fd513709b7a059c6649 -->
<g id="node4" class="node">
<title>poisson_output_pvd_file_08c5d21e2c998fd513709b7a059c6649</title>
<ellipse fill="none" stroke="black" cx="1538.77" cy="-234" rx="508.92" ry="18"/>
<text text-anchor="middle" x="1538.77" y="-229.32" font-family="Times,serif" font-size="14.00">poisson_output_pvd_file=&lt;pyiron_base.project.delayed.DelayedObject object at 0x74704c596180&gt;</text>
</g>
<!-- poisson_output_pvd_file_08c5d21e2c998fd513709b7a059c6649&#45;&gt;pvbatch_output_file_5f8f87a5c4f1bd1a4b6cca85a1fc2b78 -->
<g id="edge3" class="edge">
<title>poisson_output_pvd_file_08c5d21e2c998fd513709b7a059c6649-&gt;pvbatch_output_file_5f8f87a5c4f1bd1a4b6cca85a1fc2b78</title>
<path fill="none" stroke="black" d="M1565.22,-215.7C1578.72,-206.86 1595.34,-195.99 1609.98,-186.41"/>
<polygon fill="black" stroke="black" points="1611.53,-189.58 1617.98,-181.18 1607.7,-183.72 1611.53,-189.58"/>
</g>
<!-- plot_file_5f8f87a5c4f1bd1a4b6cca85a1fc2b78 -->
<g id="node5" class="node">
<title>plot_file_5f8f87a5c4f1bd1a4b6cca85a1fc2b78</title>
<ellipse fill="none" stroke="black" cx="710.77" cy="-162" rx="429.48" ry="18"/>
<text text-anchor="middle" x="710.77" y="-157.32" font-family="Times,serif" font-size="14.00">plot_file=&lt;pyiron_base.project.delayed.DelayedObject object at 0x747041dd8c20&gt;</text>
</g>
<!-- poisson_output_pvd_file_08c5d21e2c998fd513709b7a059c6649&#45;&gt;plot_file_5f8f87a5c4f1bd1a4b6cca85a1fc2b78 -->
<g id="edge4" class="edge">
<title>poisson_output_pvd_file_08c5d21e2c998fd513709b7a059c6649-&gt;plot_file_5f8f87a5c4f1bd1a4b6cca85a1fc2b78</title>
<path fill="none" stroke="black" d="M1347.77,-216.85C1215.72,-205.69 1040.54,-190.88 907.31,-179.62"/>
<polygon fill="black" stroke="black" points="907.94,-176.16 897.68,-178.8 907.35,-183.13 907.94,-176.16"/>
</g>
<!-- plot_file_5f8f87a5c4f1bd1a4b6cca85a1fc2b78&#45;&gt;create_function_job_69b38eef29d5c9aba4c6de512da1bb24 -->
<g id="edge18" class="edge">
<title>plot_file_5f8f87a5c4f1bd1a4b6cca85a1fc2b78-&gt;create_function_job_69b38eef29d5c9aba4c6de512da1bb24</title>
<path fill="none" stroke="black" d="M810.42,-144.01C966.93,-117.33 1269.32,-65.78 1432.64,-37.94"/>
<polygon fill="black" stroke="black" points="1432.91,-41.45 1442.18,-36.32 1431.74,-34.55 1432.91,-41.45"/>
</g>
<!-- meshio_output_xdmf_fc75e768124c1b73ca0efc70a5765dea -->
<g id="node6" class="node">
<title>meshio_output_xdmf_fc75e768124c1b73ca0efc70a5765dea</title>
<ellipse fill="none" stroke="black" cx="1432.77" cy="-306" rx="494.72" ry="18"/>
<text text-anchor="middle" x="1432.77" y="-301.32" font-family="Times,serif" font-size="14.00">meshio_output_xdmf=&lt;pyiron_base.project.delayed.DelayedObject object at 0x7470340b41d0&gt;</text>
</g>
<!-- meshio_output_xdmf_fc75e768124c1b73ca0efc70a5765dea&#45;&gt;poisson_output_pvd_file_08c5d21e2c998fd513709b7a059c6649 -->
<g id="edge5" class="edge">
<title>meshio_output_xdmf_fc75e768124c1b73ca0efc70a5765dea-&gt;poisson_output_pvd_file_08c5d21e2c998fd513709b7a059c6649</title>
<path fill="none" stroke="black" d="M1458.97,-287.7C1472.22,-278.95 1488.5,-268.19 1502.9,-258.69"/>
<polygon fill="black" stroke="black" points="1504.82,-261.61 1511.24,-253.18 1500.96,-255.77 1504.82,-261.61"/>
</g>
<!-- poisson_output_vtu_file_62144723b416cb6b52989d18b3dec55b -->
<g id="node7" class="node">
<title>poisson_output_vtu_file_62144723b416cb6b52989d18b3dec55b</title>
<ellipse fill="none" stroke="black" cx="505.77" cy="-234" rx="505.77" ry="18"/>
<text text-anchor="middle" x="505.77" y="-229.32" font-family="Times,serif" font-size="14.00">poisson_output_vtu_file=&lt;pyiron_base.project.delayed.DelayedObject object at 0x74704c5960c0&gt;</text>
</g>
<!-- meshio_output_xdmf_fc75e768124c1b73ca0efc70a5765dea&#45;&gt;poisson_output_vtu_file_62144723b416cb6b52989d18b3dec55b -->
<g id="edge6" class="edge">
<title>meshio_output_xdmf_fc75e768124c1b73ca0efc70a5765dea-&gt;poisson_output_vtu_file_62144723b416cb6b52989d18b3dec55b</title>
<path fill="none" stroke="black" d="M1224.15,-289.25C1075.96,-278.06 877.33,-263.06 726.49,-251.67"/>
<polygon fill="black" stroke="black" points="727,-248.2 716.77,-250.93 726.47,-255.18 727,-248.2"/>
</g>
<!-- ndofs_c3811e53ce75b5460d97029d314439b5 -->
<g id="node8" class="node">
<title>ndofs_c3811e53ce75b5460d97029d314439b5</title>
<ellipse fill="none" stroke="black" cx="2483.77" cy="-234" rx="418.43" ry="18"/>
<text text-anchor="middle" x="2483.77" y="-229.32" font-family="Times,serif" font-size="14.00">ndofs=&lt;pyiron_base.project.delayed.DelayedObject object at 0x747041dd9310&gt;</text>
</g>
<!-- meshio_output_xdmf_fc75e768124c1b73ca0efc70a5765dea&#45;&gt;ndofs_c3811e53ce75b5460d97029d314439b5 -->
<g id="edge7" class="edge">
<title>meshio_output_xdmf_fc75e768124c1b73ca0efc70a5765dea-&gt;ndofs_c3811e53ce75b5460d97029d314439b5</title>
<path fill="none" stroke="black" d="M1663.41,-289.64C1837.99,-278.01 2076.75,-262.11 2251.68,-250.46"/>
<polygon fill="black" stroke="black" points="2251.85,-253.95 2261.59,-249.8 2251.38,-246.97 2251.85,-253.95"/>
</g>
<!-- poisson_output_vtu_file_62144723b416cb6b52989d18b3dec55b&#45;&gt;pvbatch_output_file_5f8f87a5c4f1bd1a4b6cca85a1fc2b78 -->
<g id="edge15" class="edge">
<title>poisson_output_vtu_file_62144723b416cb6b52989d18b3dec55b-&gt;pvbatch_output_file_5f8f87a5c4f1bd1a4b6cca85a1fc2b78</title>
<path fill="none" stroke="black" d="M752.43,-217.85C940.83,-206.29 1199.65,-190.39 1390.22,-178.69"/>
<polygon fill="black" stroke="black" points="1390.25,-182.2 1400.02,-178.09 1389.82,-175.21 1390.25,-182.2"/>
</g>
<!-- poisson_output_vtu_file_62144723b416cb6b52989d18b3dec55b&#45;&gt;plot_file_5f8f87a5c4f1bd1a4b6cca85a1fc2b78 -->
<g id="edge16" class="edge">
<title>poisson_output_vtu_file_62144723b416cb6b52989d18b3dec55b-&gt;plot_file_5f8f87a5c4f1bd1a4b6cca85a1fc2b78</title>
<path fill="none" stroke="black" d="M556.7,-215.61C584.8,-206.01 619.88,-194.04 649.46,-183.93"/>
<polygon fill="black" stroke="black" points="650.33,-187.34 658.66,-180.79 648.06,-180.71 650.33,-187.34"/>
</g>
<!-- ndofs_c3811e53ce75b5460d97029d314439b5&#45;&gt;macros_tex_c5f640fc7b11414962941f82a40a8b04 -->
<g id="edge17" class="edge">
<title>ndofs_c3811e53ce75b5460d97029d314439b5-&gt;macros_tex_c5f640fc7b11414962941f82a40a8b04</title>
<path fill="none" stroke="black" d="M2426.24,-215.73C2338.73,-189.46 2172.5,-139.55 2079.02,-111.49"/>
<polygon fill="black" stroke="black" points="2080.3,-108.22 2069.71,-108.7 2078.28,-114.92 2080.3,-108.22"/>
</g>
<!-- gmsh_output_file_950b49ac6562a70cf11f14756f9831ea -->
<g id="node9" class="node">
<title>gmsh_output_file_950b49ac6562a70cf11f14756f9831ea</title>
<ellipse fill="none" stroke="black" cx="2423.77" cy="-378" rx="472.62" ry="18"/>
<text text-anchor="middle" x="2423.77" y="-373.32" font-family="Times,serif" font-size="14.00">gmsh_output_file=&lt;pyiron_base.project.delayed.DelayedObject object at 0x746ea8314fb0&gt;</text>
</g>
<!-- gmsh_output_file_950b49ac6562a70cf11f14756f9831ea&#45;&gt;meshio_output_xdmf_fc75e768124c1b73ca0efc70a5765dea -->
<g id="edge8" class="edge">
<title>gmsh_output_file_950b49ac6562a70cf11f14756f9831ea-&gt;meshio_output_xdmf_fc75e768124c1b73ca0efc70a5765dea</title>
<path fill="none" stroke="black" d="M2205.67,-361.59C2045.24,-350.26 1827.55,-334.89 1664.08,-323.34"/>
<polygon fill="black" stroke="black" points="1664.63,-319.87 1654.4,-322.66 1664.13,-326.85 1664.63,-319.87"/>
</g>
<!-- meshio_output_h5_efe999f964b5fb7603bd642abcd8905d -->
<g id="node10" class="node">
<title>meshio_output_h5_efe999f964b5fb7603bd642abcd8905d</title>
<ellipse fill="none" stroke="black" cx="2423.77" cy="-306" rx="478.41" ry="18"/>
<text text-anchor="middle" x="2423.77" y="-301.32" font-family="Times,serif" font-size="14.00">meshio_output_h5=&lt;pyiron_base.project.delayed.DelayedObject object at 0x746ea6f35d30&gt;</text>
</g>
<!-- gmsh_output_file_950b49ac6562a70cf11f14756f9831ea&#45;&gt;meshio_output_h5_efe999f964b5fb7603bd642abcd8905d -->
<g id="edge9" class="edge">
<title>gmsh_output_file_950b49ac6562a70cf11f14756f9831ea-&gt;meshio_output_h5_efe999f964b5fb7603bd642abcd8905d</title>
<path fill="none" stroke="black" d="M2423.77,-359.7C2423.77,-352.41 2423.77,-343.73 2423.77,-335.54"/>
<polygon fill="black" stroke="black" points="2427.27,-335.62 2423.77,-325.62 2420.27,-335.62 2427.27,-335.62"/>
</g>
<!-- meshio_output_h5_efe999f964b5fb7603bd642abcd8905d&#45;&gt;poisson_output_pvd_file_08c5d21e2c998fd513709b7a059c6649 -->
<g id="edge12" class="edge">
<title>meshio_output_h5_efe999f964b5fb7603bd642abcd8905d-&gt;poisson_output_pvd_file_08c5d21e2c998fd513709b7a059c6649</title>
<path fill="none" stroke="black" d="M2224.05,-289.2C2083.44,-278.08 1895.46,-263.21 1751.94,-251.86"/>
<polygon fill="black" stroke="black" points="1752.57,-248.4 1742.33,-251.1 1752.02,-255.38 1752.57,-248.4"/>
</g>
<!-- meshio_output_h5_efe999f964b5fb7603bd642abcd8905d&#45;&gt;poisson_output_vtu_file_62144723b416cb6b52989d18b3dec55b -->
<g id="edge13" class="edge">
<title>meshio_output_h5_efe999f964b5fb7603bd642abcd8905d-&gt;poisson_output_vtu_file_62144723b416cb6b52989d18b3dec55b</title>
<path fill="none" stroke="black" d="M2088.85,-292.78C1745.11,-280.23 1212.28,-260.79 861.23,-247.97"/>
<polygon fill="black" stroke="black" points="861.49,-244.48 851.37,-247.61 861.24,-251.48 861.49,-244.48"/>
</g>
<!-- meshio_output_h5_efe999f964b5fb7603bd642abcd8905d&#45;&gt;ndofs_c3811e53ce75b5460d97029d314439b5 -->
<g id="edge14" class="edge">
<title>meshio_output_h5_efe999f964b5fb7603bd642abcd8905d-&gt;ndofs_c3811e53ce75b5460d97029d314439b5</title>
<path fill="none" stroke="black" d="M2438.6,-287.7C2445.57,-279.56 2454.03,-269.69 2461.74,-260.7"/>
<polygon fill="black" stroke="black" points="2464.27,-263.12 2468.12,-253.25 2458.96,-258.57 2464.27,-263.12"/>
</g>
<!-- domain_size_f12a7f1986b9dd058dfc666dbe230b20 -->
<g id="node11" class="node">
<title>domain_size_f12a7f1986b9dd058dfc666dbe230b20</title>
<ellipse fill="none" stroke="black" cx="2676.77" cy="-450" rx="96.45" ry="18"/>
<text text-anchor="middle" x="2676.77" y="-445.32" font-family="Times,serif" font-size="14.00">domain_size=2.0</text>
</g>
<!-- domain_size_f12a7f1986b9dd058dfc666dbe230b20&#45;&gt;macros_tex_c5f640fc7b11414962941f82a40a8b04 -->
<g id="edge10" class="edge">
<title>domain_size_f12a7f1986b9dd058dfc666dbe230b20-&gt;macros_tex_c5f640fc7b11414962941f82a40a8b04</title>
<path fill="none" stroke="black" d="M2755.99,-439.42C2813.35,-430.91 2884.4,-416.61 2905.77,-396 2935.25,-367.56 2929.77,-347.97 2929.77,-307 2929.77,-307 2929.77,-307 2929.77,-233 2929.77,-165.72 2540.14,-125.85 2268.28,-106.22"/>
<polygon fill="black" stroke="black" points="2268.78,-102.75 2258.55,-105.53 2268.28,-109.73 2268.78,-102.75"/>
</g>
<!-- domain_size_f12a7f1986b9dd058dfc666dbe230b20&#45;&gt;gmsh_output_file_950b49ac6562a70cf11f14756f9831ea -->
<g id="edge11" class="edge">
<title>domain_size_f12a7f1986b9dd058dfc666dbe230b20-&gt;gmsh_output_file_950b49ac6562a70cf11f14756f9831ea</title>
<path fill="none" stroke="black" d="M2624.35,-434.5C2587.62,-424.33 2538.03,-410.62 2497.35,-399.36"/>
<polygon fill="black" stroke="black" points="2498.44,-396.03 2487.86,-396.73 2496.57,-402.77 2498.44,-396.03"/>
</g>
</g>
</svg>