<svg xmlns="http://www.w3.org/2000/svg" xmlns:xlink="http://www.w3.org/1999/xlink" width="3227pt" height="476pt" viewBox="0.00 0.00 3226.99 476.00">
<g id="graph0" class="graph" transform="scale(1 1) rotate(0) translate(4 472)">
<polygon fill="white" stroke="none" points="-4,4 -4,-472 3222.99,-472 3222.99,4 -4,4"/>
<!-- create_function_job_9564f1c400f389023de93231c8a62a65 -->
<g id="node1" class="node">
<title>create_function_job_9564f1c400f389023de93231c8a62a65</title>
<ellipse fill="none" stroke="black" cx="2467" cy="-18" rx="483.14" ry="18"/>
<text text-anchor="middle" x="2467" y="-13.32" font-family="Times,serif" font-size="14.00">create_function_job=&lt;pyiron_base.project.delayed.DelayedObject object at 0x7efce81a77d0&gt;</text>
</g>
<!-- macros_tex_4fdd7c93c52394e1a5aed103adf6dba4 -->
<g id="node2" class="node">
<title>macros_tex_4fdd7c93c52394e1a5aed103adf6dba4</title>
<ellipse fill="none" stroke="black" cx="1540" cy="-90" rx="440" ry="18"/>
<text text-anchor="middle" x="1540" y="-85.33" font-family="Times,serif" font-size="14.00">macros_tex=&lt;pyiron_base.project.delayed.DelayedObject object at 0x7efce81a75f0&gt;</text>
</g>
<!-- macros_tex_4fdd7c93c52394e1a5aed103adf6dba4&#45;&gt;create_function_job_9564f1c400f389023de93231c8a62a65 -->
<g id="edge1" class="edge">
<title>macros_tex_4fdd7c93c52394e1a5aed103adf6dba4-&gt;create_function_job_9564f1c400f389023de93231c8a62a65</title>
<path fill="none" stroke="black" d="M1743.72,-73.62C1892.96,-62.35 2095.28,-47.07 2247.99,-35.54"/>
<polygon fill="black" stroke="black" points="2248.14,-39.04 2257.85,-34.79 2247.61,-32.06 2248.14,-39.04"/>
</g>
<!-- pvbatch_output_file_e4a68dc408161a17988f364b0337f341 -->
<g id="node3" class="node">
<title>pvbatch_output_file_e4a68dc408161a17988f364b0337f341</title>
<ellipse fill="none" stroke="black" cx="1540" cy="-162" rx="483.67" ry="18"/>
<text text-anchor="middle" x="1540" y="-157.32" font-family="Times,serif" font-size="14.00">pvbatch_output_file=&lt;pyiron_base.project.delayed.DelayedObject object at 0x7efce81a7320&gt;</text>
</g>
<!-- pvbatch_output_file_e4a68dc408161a17988f364b0337f341&#45;&gt;macros_tex_4fdd7c93c52394e1a5aed103adf6dba4 -->
<g id="edge2" class="edge">
<title>pvbatch_output_file_e4a68dc408161a17988f364b0337f341-&gt;macros_tex_4fdd7c93c52394e1a5aed103adf6dba4</title>
<path fill="none" stroke="black" d="M1540,-143.7C1540,-136.41 1540,-127.73 1540,-119.54"/>
<polygon fill="black" stroke="black" points="1543.5,-119.62 1540,-109.62 1536.5,-119.62 1543.5,-119.62"/>
</g>
<!-- poisson_output_pvd_file_7da70c04cc70bbdbd26f7da8deeaca29 -->
<g id="node4" class="node">
<title>poisson_output_pvd_file_7da70c04cc70bbdbd26f7da8deeaca29</title>
<ellipse fill="none" stroke="black" cx="2389" cy="-234" rx="504.71" ry="18"/>
<text text-anchor="middle" x="2389" y="-229.32" font-family="Times,serif" font-size="14.00">poisson_output_pvd_file=&lt;pyiron_base.project.delayed.DelayedObject object at 0x7efce81a7020&gt;</text>
</g>
<!-- poisson_output_pvd_file_7da70c04cc70bbdbd26f7da8deeaca29&#45;&gt;pvbatch_output_file_e4a68dc408161a17988f364b0337f341 -->
<g id="edge3" class="edge">
<title>poisson_output_pvd_file_7da70c04cc70bbdbd26f7da8deeaca29-&gt;pvbatch_output_file_e4a68dc408161a17988f364b0337f341</title>
<path fill="none" stroke="black" d="M2194.22,-216.94C2059.82,-205.86 1881.46,-191.15 1744.92,-179.9"/>
<polygon fill="black" stroke="black" points="1745.27,-176.41 1735.01,-179.08 1744.69,-183.39 1745.27,-176.41"/>
</g>
<!-- plot_file_e4a68dc408161a17988f364b0337f341 -->
<g id="node5" class="node">
<title>plot_file_e4a68dc408161a17988f364b0337f341</title>
<ellipse fill="none" stroke="black" cx="2467" cy="-162" rx="425.27" ry="18"/>
<text text-anchor="middle" x="2467" y="-157.32" font-family="Times,serif" font-size="14.00">plot_file=&lt;pyiron_base.project.delayed.DelayedObject object at 0x7efce81a7320&gt;</text>
</g>
<!-- poisson_output_pvd_file_7da70c04cc70bbdbd26f7da8deeaca29&#45;&gt;plot_file_e4a68dc408161a17988f364b0337f341 -->
<g id="edge4" class="edge">
<title>poisson_output_pvd_file_7da70c04cc70bbdbd26f7da8deeaca29-&gt;plot_file_e4a68dc408161a17988f364b0337f341</title>
<path fill="none" stroke="black" d="M2408.28,-215.7C2417.66,-207.28 2429.09,-197.02 2439.38,-187.79"/>
<polygon fill="black" stroke="black" points="2441.44,-190.64 2446.54,-181.36 2436.76,-185.43 2441.44,-190.64"/>
</g>
<!-- plot_file_e4a68dc408161a17988f364b0337f341&#45;&gt;create_function_job_9564f1c400f389023de93231c8a62a65 -->
<g id="edge26" class="edge">
<title>plot_file_e4a68dc408161a17988f364b0337f341-&gt;create_function_job_9564f1c400f389023de93231c8a62a65</title>
<path fill="none" stroke="black" d="M2467,-143.59C2467,-119.61 2467,-76.14 2467,-47.42"/>
<polygon fill="black" stroke="black" points="2470.5,-47.62 2467,-37.62 2463.5,-47.62 2470.5,-47.62"/>
</g>
<!-- meshio_output_xdmf_6ee525037bdcb254ca562ddfe379237e -->
<g id="node6" class="node">
<title>meshio_output_xdmf_6ee525037bdcb254ca562ddfe379237e</title>
<ellipse fill="none" stroke="black" cx="1182" cy="-306" rx="489.98" ry="18"/>
<text text-anchor="middle" x="1182" y="-301.32" font-family="Times,serif" font-size="14.00">meshio_output_xdmf=&lt;pyiron_base.project.delayed.DelayedObject object at 0x7efce8178620&gt;</text>
</g>
<!-- meshio_output_xdmf_6ee525037bdcb254ca562ddfe379237e&#45;&gt;poisson_output_pvd_file_7da70c04cc70bbdbd26f7da8deeaca29 -->
<g id="edge5" class="edge">
<title>meshio_output_xdmf_6ee525037bdcb254ca562ddfe379237e-&gt;poisson_output_pvd_file_7da70c04cc70bbdbd26f7da8deeaca29</title>
<path fill="none" stroke="black" d="M1436.87,-290.22C1637.48,-278.58 1916.32,-262.41 2120.4,-250.58"/>
<polygon fill="black" stroke="black" points="2120.6,-254.07 2130.38,-250 2120.19,-247.08 2120.6,-254.07"/>
</g>
<!-- poisson_output_vtu_file_fa01b3a624ada2dba805b7518365a6a4 -->
<g id="node7" class="node">
<title>poisson_output_vtu_file_fa01b3a624ada2dba805b7518365a6a4</title>
<ellipse fill="none" stroke="black" cx="1369" cy="-234" rx="496.82" ry="18"/>
<text text-anchor="middle" x="1369" y="-229.32" font-family="Times,serif" font-size="14.00">poisson_output_vtu_file=&lt;pyiron_base.project.delayed.DelayedObject object at 0x7efce81a6ff0&gt;</text>
</g>
<!-- meshio_output_xdmf_6ee525037bdcb254ca562ddfe379237e&#45;&gt;poisson_output_vtu_file_fa01b3a624ada2dba805b7518365a6a4 -->
<g id="edge6" class="edge">
<title>meshio_output_xdmf_6ee525037bdcb254ca562ddfe379237e-&gt;poisson_output_vtu_file_fa01b3a624ada2dba805b7518365a6a4</title>
<path fill="none" stroke="black" d="M1228.22,-287.7C1253.62,-278.19 1285.34,-266.32 1312.23,-256.25"/>
<polygon fill="black" stroke="black" points="1313.1,-259.66 1321.24,-252.88 1310.65,-253.11 1313.1,-259.66"/>
</g>
<!-- ndofs_8b9741bf01bd3f1fc0fe9a772777a903 -->
<g id="node8" class="node">
<title>ndofs_8b9741bf01bd3f1fc0fe9a772777a903</title>
<ellipse fill="none" stroke="black" cx="441" cy="-234" rx="413.17" ry="18"/>
<text text-anchor="middle" x="441" y="-229.32" font-family="Times,serif" font-size="14.00">ndofs=&lt;pyiron_base.project.delayed.DelayedObject object at 0x7efce81a73b0&gt;</text>
</g>
<!-- meshio_output_xdmf_6ee525037bdcb254ca562ddfe379237e&#45;&gt;ndofs_8b9741bf01bd3f1fc0fe9a772777a903 -->
<g id="edge7" class="edge">
<title>meshio_output_xdmf_6ee525037bdcb254ca562ddfe379237e-&gt;ndofs_8b9741bf01bd3f1fc0fe9a772777a903</title>
<path fill="none" stroke="black" d="M1009.67,-288.72C892.86,-277.69 738.8,-263.13 620.5,-251.96"/>
<polygon fill="black" stroke="black" points="620.96,-248.48 610.67,-251.03 620.3,-255.45 620.96,-248.48"/>
</g>
<!-- poisson_output_vtu_file_fa01b3a624ada2dba805b7518365a6a4&#45;&gt;pvbatch_output_file_e4a68dc408161a17988f364b0337f341 -->
<g id="edge23" class="edge">
<title>poisson_output_vtu_file_fa01b3a624ada2dba805b7518365a6a4-&gt;pvbatch_output_file_e4a68dc408161a17988f364b0337f341</title>
<path fill="none" stroke="black" d="M1411.27,-215.7C1434.19,-206.32 1462.73,-194.63 1487.11,-184.65"/>
<polygon fill="black" stroke="black" points="1488.29,-187.95 1496.22,-180.92 1485.64,-181.47 1488.29,-187.95"/>
</g>
<!-- poisson_output_vtu_file_fa01b3a624ada2dba805b7518365a6a4&#45;&gt;plot_file_e4a68dc408161a17988f364b0337f341 -->
<g id="edge24" class="edge">
<title>poisson_output_vtu_file_fa01b3a624ada2dba805b7518365a6a4-&gt;plot_file_e4a68dc408161a17988f364b0337f341</title>
<path fill="none" stroke="black" d="M1607.59,-217.79C1790.94,-206.1 2043.09,-190.03 2226.83,-178.31"/>
<polygon fill="black" stroke="black" points="2227.01,-181.81 2236.77,-177.68 2226.57,-174.82 2227.01,-181.81"/>
</g>
<!-- ndofs_8b9741bf01bd3f1fc0fe9a772777a903&#45;&gt;macros_tex_4fdd7c93c52394e1a5aed103adf6dba4 -->
<g id="edge25" class="edge">
<title>ndofs_8b9741bf01bd3f1fc0fe9a772777a903-&gt;macros_tex_4fdd7c93c52394e1a5aed103adf6dba4</title>
<path fill="none" stroke="black" d="M547.01,-216.16C667.85,-197.26 871.36,-166.33 1047,-144 1151.83,-130.67 1269.49,-117.94 1363.56,-108.3"/>
<polygon fill="black" stroke="black" points="1363.82,-111.79 1373.41,-107.29 1363.11,-104.82 1363.82,-111.79"/>
</g>
<!-- gmsh_output_file_4b409dc4c5063e64794e38b2cd0b37e1 -->
<g id="node9" class="node">
<title>gmsh_output_file_4b409dc4c5063e64794e38b2cd0b37e1</title>
<ellipse fill="none" stroke="black" cx="1675" cy="-378" rx="470.52" ry="18"/>
<text text-anchor="middle" x="1675" y="-373.32" font-family="Times,serif" font-size="14.00">gmsh_output_file=&lt;pyiron_base.project.delayed.DelayedObject object at 0x7efce8ba3e90&gt;</text>
</g>
<!-- gmsh_output_file_4b409dc4c5063e64794e38b2cd0b37e1&#45;&gt;meshio_output_xdmf_6ee525037bdcb254ca562ddfe379237e -->
<g id="edge8" class="edge">
<title>gmsh_output_file_4b409dc4c5063e64794e38b2cd0b37e1-&gt;meshio_output_xdmf_6ee525037bdcb254ca562ddfe379237e</title>
<path fill="none" stroke="black" d="M1556.29,-360.14C1482.56,-349.68 1387.75,-336.21 1312,-325.46"/>
<polygon fill="black" stroke="black" points="1312.86,-322.04 1302.46,-324.1 1311.87,-328.98 1312.86,-322.04"/>
</g>
<!-- meshio_output_h5_f154dadcde14b5da6730af6d0a4c9df7 -->
<g id="node10" class="node">
<title>meshio_output_h5_f154dadcde14b5da6730af6d0a4c9df7</title>
<ellipse fill="none" stroke="black" cx="2167" cy="-306" rx="476.83" ry="18"/>
<text text-anchor="middle" x="2167" y="-301.32" font-family="Times,serif" font-size="14.00">meshio_output_h5=&lt;pyiron_base.project.delayed.DelayedObject object at 0x7efce81a6d20&gt;</text>
</g>
<!-- gmsh_output_file_4b409dc4c5063e64794e38b2cd0b37e1&#45;&gt;meshio_output_h5_f154dadcde14b5da6730af6d0a4c9df7 -->
<g id="edge9" class="edge">
<title>gmsh_output_file_4b409dc4c5063e64794e38b2cd0b37e1-&gt;meshio_output_h5_f154dadcde14b5da6730af6d0a4c9df7</title>
<path fill="none" stroke="black" d="M1793.79,-360.1C1867.37,-349.63 1961.91,-336.18 2037.43,-325.44"/>
<polygon fill="black" stroke="black" points="2037.52,-328.96 2046.93,-324.08 2036.53,-322.03 2037.52,-328.96"/>
</g>
<!-- meshio_output_h5_f154dadcde14b5da6730af6d0a4c9df7&#45;&gt;poisson_output_pvd_file_7da70c04cc70bbdbd26f7da8deeaca29 -->
<g id="edge20" class="edge">
<title>meshio_output_h5_f154dadcde14b5da6730af6d0a4c9df7-&gt;poisson_output_pvd_file_7da70c04cc70bbdbd26f7da8deeaca29</title>
<path fill="none" stroke="black" d="M2221.88,-287.7C2252.56,-278.02 2291.01,-265.9 2323.29,-255.72"/>
<polygon fill="black" stroke="black" points="2324.06,-259.15 2332.54,-252.8 2321.95,-252.47 2324.06,-259.15"/>
</g>
<!-- meshio_output_h5_f154dadcde14b5da6730af6d0a4c9df7&#45;&gt;poisson_output_vtu_file_fa01b3a624ada2dba805b7518365a6a4 -->
<g id="edge21" class="edge">
<title>meshio_output_h5_f154dadcde14b5da6730af6d0a4c9df7-&gt;poisson_output_vtu_file_fa01b3a624ada2dba805b7518365a6a4</title>
<path fill="none" stroke="black" d="M1983.92,-288.94C1858.51,-277.94 1692.36,-263.36 1564.39,-252.14"/>
<polygon fill="black" stroke="black" points="1565.07,-248.69 1554.8,-251.3 1564.46,-255.66 1565.07,-248.69"/>
</g>
<!-- meshio_output_h5_f154dadcde14b5da6730af6d0a4c9df7&#45;&gt;ndofs_8b9741bf01bd3f1fc0fe9a772777a903 -->
<g id="edge22" class="edge">
<title>meshio_output_h5_f154dadcde14b5da6730af6d0a4c9df7-&gt;ndofs_8b9741bf01bd3f1fc0fe9a772777a903</title>
<path fill="none" stroke="black" d="M1850.42,-292.16C1536.19,-279.42 1057.76,-260.01 747.2,-247.42"/>
<polygon fill="black" stroke="black" points="747.41,-243.92 737.28,-247.02 747.13,-250.92 747.41,-243.92"/>
</g>
<!-- domain_size_f12a7f1986b9dd058dfc666dbe230b20 -->
<g id="node11" class="node">
<title>domain_size_f12a7f1986b9dd058dfc666dbe230b20</title>
<ellipse fill="none" stroke="black" cx="838" cy="-450" rx="96.45" ry="18"/>
<text text-anchor="middle" x="838" y="-445.32" font-family="Times,serif" font-size="14.00">domain_size=2.0</text>
</g>
<!-- domain_size_f12a7f1986b9dd058dfc666dbe230b20&#45;&gt;macros_tex_4fdd7c93c52394e1a5aed103adf6dba4 -->
<g id="edge10" class="edge">
<title>domain_size_f12a7f1986b9dd058dfc666dbe230b20-&gt;macros_tex_4fdd7c93c52394e1a5aed103adf6dba4</title>
<path fill="none" stroke="black" d="M748.32,-443.12C532.14,-427.74 0,-382.26 0,-307 0,-307 0,-307 0,-233 0,-55.67 616.26,-158.49 793,-144 962.86,-130.08 1154.62,-116.51 1301.33,-106.6"/>
<polygon fill="black" stroke="black" points="1301.45,-110.1 1311.19,-105.93 1300.98,-103.11 1301.45,-110.1"/>
</g>
<!-- domain_size_f12a7f1986b9dd058dfc666dbe230b20&#45;&gt;gmsh_output_file_4b409dc4c5063e64794e38b2cd0b37e1 -->
<g id="edge11" class="edge">
<title>domain_size_f12a7f1986b9dd058dfc666dbe230b20-&gt;gmsh_output_file_4b409dc4c5063e64794e38b2cd0b37e1</title>
<path fill="none" stroke="black" d="M924.42,-441.77C1052.96,-431.02 1298.14,-410.52 1473.31,-395.87"/>
<polygon fill="black" stroke="black" points="1473.57,-399.36 1483.24,-395.04 1472.98,-392.38 1473.57,-399.36"/>
</g>
<!-- source_directory_053958014e7cd4a4df22cfa51c9fc696 -->
<g id="node12" class="node">
<title>source_directory_053958014e7cd4a4df22cfa51c9fc696</title>
<ellipse fill="none" stroke="black" cx="2890" cy="-450" rx="328.99" ry="18"/>
<text text-anchor="middle" x="2890" y="-445.32" font-family="Times,serif" font-size="14.00">source_directory=/home/jovyan/example_workflows/nfdi/source</text>
</g>
<!-- source_directory_053958014e7cd4a4df22cfa51c9fc696&#45;&gt;create_function_job_9564f1c400f389023de93231c8a62a65 -->
<g id="edge12" class="edge">
<title>source_directory_053958014e7cd4a4df22cfa51c9fc696-&gt;create_function_job_9564f1c400f389023de93231c8a62a65</title>
<path fill="none" stroke="black" d="M2932.08,-431.67C2949.89,-422.87 2969.96,-410.87 2985,-396 3017.42,-363.95 3036,-352.59 3036,-307 3036,-307 3036,-307 3036,-161 3036,-88.91 2861.91,-53.13 2706.32,-35.54"/>
<polygon fill="black" stroke="black" points="2706.98,-32.09 2696.66,-34.47 2706.21,-39.05 2706.98,-32.09"/>
</g>
<!-- source_directory_053958014e7cd4a4df22cfa51c9fc696&#45;&gt;macros_tex_4fdd7c93c52394e1a5aed103adf6dba4 -->
<g id="edge13" class="edge">
<title>source_directory_053958014e7cd4a4df22cfa51c9fc696-&gt;macros_tex_4fdd7c93c52394e1a5aed103adf6dba4</title>
<path fill="none" stroke="black" d="M2917.65,-431.63C2930.84,-422.3 2946.09,-409.87 2957,-396 2983.93,-361.77 2998,-350.55 2998,-307 2998,-307 2998,-307 2998,-233 2998,-174.49 2955.1,-166.28 2901,-144 2817.58,-109.65 2349.98,-97.42 1985.87,-93.14"/>
<polygon fill="black" stroke="black" points="1986.14,-89.64 1976.1,-93.03 1986.06,-96.64 1986.14,-89.64"/>
</g>
<!-- source_directory_053958014e7cd4a4df22cfa51c9fc696&#45;&gt;pvbatch_output_file_e4a68dc408161a17988f364b0337f341 -->
<g id="edge14" class="edge">
<title>source_directory_053958014e7cd4a4df22cfa51c9fc696-&gt;pvbatch_output_file_e4a68dc408161a17988f364b0337f341</title>
<path fill="none" stroke="black" d="M2898.34,-431.75C2917.81,-388.71 2960.44,-275.71 2903,-216 2898.64,-211.46 2298.35,-189.56 1895.96,-175.37"/>
<polygon fill="black" stroke="black" points="1896.34,-171.88 1886.22,-175.02 1896.1,-178.87 1896.34,-171.88"/>
</g>
<!-- source_directory_053958014e7cd4a4df22cfa51c9fc696&#45;&gt;poisson_output_pvd_file_7da70c04cc70bbdbd26f7da8deeaca29 -->
<g id="edge15" class="edge">
<title>source_directory_053958014e7cd4a4df22cfa51c9fc696-&gt;poisson_output_pvd_file_7da70c04cc70bbdbd26f7da8deeaca29</title>
<path fill="none" stroke="black" d="M2884.24,-431.59C2871.98,-397.58 2839.89,-322.64 2785,-288 2758.28,-271.14 2700.42,-259.56 2636.98,-251.65"/>
<polygon fill="black" stroke="black" points="2637.77,-248.22 2627.42,-250.5 2636.93,-255.17 2637.77,-248.22"/>
</g>
<!-- source_directory_053958014e7cd4a4df22cfa51c9fc696&#45;&gt;plot_file_e4a68dc408161a17988f364b0337f341 -->
<g id="edge19" class="edge">
<title>source_directory_053958014e7cd4a4df22cfa51c9fc696-&gt;plot_file_e4a68dc408161a17988f364b0337f341</title>
<path fill="none" stroke="black" d="M2910.82,-431.62C2920.46,-422.2 2930.89,-409.7 2936,-396 2963.99,-321.06 2989.3,-275.66 2936,-216 2920.54,-198.7 2826.97,-186.33 2727.42,-177.92"/>
<polygon fill="black" stroke="black" points="2727.97,-174.45 2717.72,-177.12 2727.39,-181.43 2727.97,-174.45"/>
</g>
<!-- source_directory_053958014e7cd4a4df22cfa51c9fc696&#45;&gt;poisson_output_vtu_file_fa01b3a624ada2dba805b7518365a6a4 -->
<g id="edge17" class="edge">
<title>source_directory_053958014e7cd4a4df22cfa51c9fc696-&gt;poisson_output_vtu_file_fa01b3a624ada2dba805b7518365a6a4</title>
<path fill="none" stroke="black" d="M2872.3,-431.65C2835.32,-396.71 2745.58,-318.57 2653,-288 2631.12,-280.77 2102.36,-260.79 1730.3,-247.53"/>
<polygon fill="black" stroke="black" points="1730.7,-244.04 1720.58,-247.18 1730.45,-251.04 1730.7,-244.04"/>
</g>
<!-- source_directory_053958014e7cd4a4df22cfa51c9fc696&#45;&gt;ndofs_8b9741bf01bd3f1fc0fe9a772777a903 -->
<g id="edge18" class="edge">
<title>source_directory_053958014e7cd4a4df22cfa51c9fc696-&gt;ndofs_8b9741bf01bd3f1fc0fe9a772777a903</title>
<path fill="none" stroke="black" d="M2560.88,-449.26C2218.91,-447.06 1668.56,-436.58 1195,-396 966.04,-376.38 905.87,-379.97 683,-324 614.58,-306.82 538.7,-277.07 490.46,-256.73"/>
<polygon fill="black" stroke="black" points="491.98,-253.57 481.4,-252.88 489.24,-260.01 491.98,-253.57"/>
</g>
<!-- source_directory_053958014e7cd4a4df22cfa51c9fc696&#45;&gt;gmsh_output_file_4b409dc4c5063e64794e38b2cd0b37e1 -->
<g id="edge16" class="edge">
<title>source_directory_053958014e7cd4a4df22cfa51c9fc696-&gt;gmsh_output_file_4b409dc4c5063e64794e38b2cd0b37e1</title>
<path fill="none" stroke="black" d="M2669.27,-436.28C2464,-424.46 2157.87,-406.82 1939.59,-394.24"/>
<polygon fill="black" stroke="black" points="1939.98,-390.76 1929.79,-393.68 1939.58,-397.75 1939.98,-390.76"/>
</g>
</g>
</svg>