<svg xmlns="http://www.w3.org/2000/svg" xmlns:xlink="http://www.w3.org/1999/xlink" width="1192pt" height="260pt" viewBox="0.00 0.00 1192.00 260.00">
<g id="graph0" class="graph" transform="scale(1 1) rotate(0) translate(4 256)">
<polygon fill="white" stroke="none" points="-4,4 -4,-256 1187.78,-256 1187.78,4 -4,4"/>
<!-- create_function_job_90a5b42c58fdc46b3ef919df41d06f68 -->
<g id="node1" class="node">
<title>create_function_job_90a5b42c58fdc46b3ef919df41d06f68</title>
<ellipse fill="none" stroke="black" cx="591.39" cy="-18" rx="360.48" ry="18"/>
<text xml:space="preserve" text-anchor="middle" x="591.39" y="-12.95" font-family="Times,serif" font-size="14.00">create_function_job=&lt;pyiron_base.project.delayed.DelayedObject object at 0x7f9f60f8bb90&gt;</text>
</g>
<!-- x_ac1d6fed32a5172c23c7d80f1257d4cf -->
<g id="node2" class="node">
<title>x_ac1d6fed32a5172c23c7d80f1257d4cf</title>
<ellipse fill="none" stroke="black" cx="591.39" cy="-90" rx="290.88" ry="18"/>
<text xml:space="preserve" text-anchor="middle" x="591.39" y="-84.95" font-family="Times,serif" font-size="14.00">x=&lt;pyiron_base.project.delayed.DelayedObject object at 0x7f9f60f8ba40&gt;</text>
</g>
<!-- x_ac1d6fed32a5172c23c7d80f1257d4cf&#45;&gt;create_function_job_90a5b42c58fdc46b3ef919df41d06f68 -->
<g id="edge1" class="edge">
<title>x_ac1d6fed32a5172c23c7d80f1257d4cf-&gt;create_function_job_90a5b42c58fdc46b3ef919df41d06f68</title>
<path fill="none" stroke="black" d="M591.39,-71.7C591.39,-64.41 591.39,-55.73 591.39,-47.54"/>
<polygon fill="black" stroke="black" points="594.89,-47.62 591.39,-37.62 587.89,-47.62 594.89,-47.62"/>
</g>
<!-- x_19fc443a8a97273a376990b43ca208fc -->
<g id="node3" class="node">
<title>x_19fc443a8a97273a376990b43ca208fc</title>
<ellipse fill="none" stroke="black" cx="291.39" cy="-162" rx="291.39" ry="18"/>
<text xml:space="preserve" text-anchor="middle" x="291.39" y="-156.95" font-family="Times,serif" font-size="14.00">x=&lt;pyiron_base.project.delayed.DelayedObject object at 0x7f9f60f8b770&gt;</text>
</g>
<!-- x_19fc443a8a97273a376990b43ca208fc&#45;&gt;x_ac1d6fed32a5172c23c7d80f1257d4cf -->
<g id="edge2" class="edge">
<title>x_19fc443a8a97273a376990b43ca208fc-&gt;x_ac1d6fed32a5172c23c7d80f1257d4cf</title>
<path fill="none" stroke="black" d="M363.63,-144.14C407.12,-134 462.65,-121.04 508,-110.46"/>
<polygon fill="black" stroke="black" points="508.58,-113.92 517.52,-108.24 506.99,-107.1 508.58,-113.92"/>
</g>
<!-- x_1d847da32ecaabf6731c38f798c3d4ce -->
<g id="node4" class="node">
<title>x_1d847da32ecaabf6731c38f798c3d4ce</title>
<ellipse fill="none" stroke="black" cx="555.39" cy="-234" rx="27" ry="18"/>
<text xml:space="preserve" text-anchor="middle" x="555.39" y="-228.95" font-family="Times,serif" font-size="14.00">x=1</text>
</g>
<!-- x_1d847da32ecaabf6731c38f798c3d4ce&#45;&gt;x_19fc443a8a97273a376990b43ca208fc -->
<g id="edge3" class="edge">
<title>x_1d847da32ecaabf6731c38f798c3d4ce-&gt;x_19fc443a8a97273a376990b43ca208fc</title>
<path fill="none" stroke="black" d="M530.55,-226.41C493.37,-216.56 421.7,-197.55 366.47,-182.91"/>
<polygon fill="black" stroke="black" points="367.69,-179.61 357.12,-180.43 365.89,-186.38 367.69,-179.61"/>
</g>
<!-- y_8b6d8b56733d62ed930105017913a62e -->
<g id="node5" class="node">
<title>y_8b6d8b56733d62ed930105017913a62e</title>
<ellipse fill="none" stroke="black" cx="892.39" cy="-162" rx="291.39" ry="18"/>
<text xml:space="preserve" text-anchor="middle" x="892.39" y="-156.95" font-family="Times,serif" font-size="14.00">y=&lt;pyiron_base.project.delayed.DelayedObject object at 0x7f9f60f8b740&gt;</text>
</g>
<!-- x_1d847da32ecaabf6731c38f798c3d4ce&#45;&gt;y_8b6d8b56733d62ed930105017913a62e -->
<g id="edge4" class="edge">
<title>x_1d847da32ecaabf6731c38f798c3d4ce-&gt;y_8b6d8b56733d62ed930105017913a62e</title>
<path fill="none" stroke="black" d="M581,-227.68C627.16,-218.09 726.44,-197.47 800.56,-182.07"/>
<polygon fill="black" stroke="black" points="801.21,-185.52 810.28,-180.05 799.78,-178.66 801.21,-185.52"/>
</g>
<!-- y_8b6d8b56733d62ed930105017913a62e&#45;&gt;x_ac1d6fed32a5172c23c7d80f1257d4cf -->
<g id="edge7" class="edge">
<title>y_8b6d8b56733d62ed930105017913a62e-&gt;x_ac1d6fed32a5172c23c7d80f1257d4cf</title>
<path fill="none" stroke="black" d="M819.91,-144.14C776.28,-134 720.55,-121.04 675.06,-110.46"/>
<polygon fill="black" stroke="black" points="676.03,-107.09 665.5,-108.23 674.44,-113.91 676.03,-107.09"/>
</g>
<!-- y_a9ec4f5f33f0d64e74ed5d9900bceac6 -->
<g id="node6" class="node">
<title>y_a9ec4f5f33f0d64e74ed5d9900bceac6</title>
<ellipse fill="none" stroke="black" cx="759.39" cy="-234" rx="27" ry="18"/>
<text xml:space="preserve" text-anchor="middle" x="759.39" y="-228.95" font-family="Times,serif" font-size="14.00">y=2</text>
</g>
<!-- y_a9ec4f5f33f0d64e74ed5d9900bceac6&#45;&gt;x_19fc443a8a97273a376990b43ca208fc -->
<g id="edge5" class="edge">
<title>y_a9ec4f5f33f0d64e74ed5d9900bceac6-&gt;x_19fc443a8a97273a376990b43ca208fc</title>
<path fill="none" stroke="black" d="M733.22,-229.09C672.6,-220.02 519.39,-197.1 410.43,-180.8"/>
<polygon fill="black" stroke="black" points="411.27,-177.39 400.86,-179.37 410.23,-184.31 411.27,-177.39"/>
</g>
<!-- y_a9ec4f5f33f0d64e74ed5d9900bceac6&#45;&gt;y_8b6d8b56733d62ed930105017913a62e -->
<g id="edge6" class="edge">
<title>y_a9ec4f5f33f0d64e74ed5d9900bceac6-&gt;y_8b6d8b56733d62ed930105017913a62e</title>
<path fill="none" stroke="black" d="M780.17,-222.06C798.69,-212.32 826.38,-197.74 849.62,-185.51"/>
<polygon fill="black" stroke="black" points="851.04,-188.72 858.26,-180.96 847.78,-182.52 851.04,-188.72"/>
</g>
</g>
</svg>