<svg xmlns="http://www.w3.org/2000/svg" xmlns:xlink="http://www.w3.org/1999/xlink" width="1598pt" height="260pt" viewBox="0.00 0.00 1597.83 260.00">
<g id="graph0" class="graph" transform="scale(1 1) rotate(0) translate(4 256)">
<polygon fill="white" stroke="none" points="-4,4 -4,-256 1593.83,-256 1593.83,4 -4,4"/>
<!-- create_function_job_25906340bd0c28c44fd73d69e7a3d8bc -->
<g id="node1" class="node">
<title>create_function_job_25906340bd0c28c44fd73d69e7a3d8bc</title>
<ellipse fill="none" stroke="black" cx="794.13" cy="-18" rx="485.77" ry="18"/>
<text text-anchor="middle" x="794.13" y="-13.32" font-family="Times,serif" font-size="14.00">create_function_job=&lt;pyiron_base.project.delayed.DelayedObject object at 0x733f400d1310&gt;</text>
</g>
<!-- x_1a7fff02f6473a13e5e8742988186611 -->
<g id="node2" class="node">
<title>x_1a7fff02f6473a13e5e8742988186611</title>
<ellipse fill="none" stroke="black" cx="794.13" cy="-90" rx="393.71" ry="18"/>
<text text-anchor="middle" x="794.13" y="-85.33" font-family="Times,serif" font-size="14.00">x=&lt;pyiron_base.project.delayed.DelayedObject object at 0x733f40ddb0e0&gt;</text>
</g>
<!-- x_1a7fff02f6473a13e5e8742988186611&#45;&gt;create_function_job_25906340bd0c28c44fd73d69e7a3d8bc -->
<g id="edge1" class="edge">
<title>x_1a7fff02f6473a13e5e8742988186611-&gt;create_function_job_25906340bd0c28c44fd73d69e7a3d8bc</title>
<path fill="none" stroke="black" d="M794.13,-71.7C794.13,-64.41 794.13,-55.73 794.13,-47.54"/>
<polygon fill="black" stroke="black" points="797.63,-47.62 794.13,-37.62 790.63,-47.62 797.63,-47.62"/>
</g>
<!-- x_e4655695917c433de56d1c64232473f9 -->
<g id="node3" class="node">
<title>x_e4655695917c433de56d1c64232473f9</title>
<ellipse fill="none" stroke="black" cx="392.13" cy="-162" rx="392.13" ry="18"/>
<text text-anchor="middle" x="392.13" y="-157.32" font-family="Times,serif" font-size="14.00">x=&lt;pyiron_base.project.delayed.DelayedObject object at 0x733f4db8caa0&gt;</text>
</g>
<!-- x_e4655695917c433de56d1c64232473f9&#45;&gt;x_1a7fff02f6473a13e5e8742988186611 -->
<g id="edge2" class="edge">
<title>x_e4655695917c433de56d1c64232473f9-&gt;x_1a7fff02f6473a13e5e8742988186611</title>
<path fill="none" stroke="black" d="M489.18,-144.1C548.57,-133.76 624.66,-120.51 685.97,-109.83"/>
<polygon fill="black" stroke="black" points="686.5,-113.29 695.75,-108.13 685.3,-106.4 686.5,-113.29"/>
</g>
<!-- x_1d847da32ecaabf6731c38f798c3d4ce -->
<g id="node4" class="node">
<title>x_1d847da32ecaabf6731c38f798c3d4ce</title>
<ellipse fill="none" stroke="black" cx="753.13" cy="-234" rx="31.74" ry="18"/>
<text text-anchor="middle" x="753.13" y="-229.32" font-family="Times,serif" font-size="14.00">x=1</text>
</g>
<!-- x_1d847da32ecaabf6731c38f798c3d4ce&#45;&gt;x_e4655695917c433de56d1c64232473f9 -->
<g id="edge3" class="edge">
<title>x_1d847da32ecaabf6731c38f798c3d4ce-&gt;x_e4655695917c433de56d1c64232473f9</title>
<path fill="none" stroke="black" d="M723.28,-227.21C672.86,-217.44 568.69,-197.24 490.58,-182.09"/>
<polygon fill="black" stroke="black" points="491.7,-178.74 481.22,-180.28 490.37,-185.62 491.7,-178.74"/>
</g>
<!-- y_3b83397feef07a74d9a046a1b7f57749 -->
<g id="node5" class="node">
<title>y_3b83397feef07a74d9a046a1b7f57749</title>
<ellipse fill="none" stroke="black" cx="1196.13" cy="-162" rx="393.71" ry="18"/>
<text text-anchor="middle" x="1196.13" y="-157.32" font-family="Times,serif" font-size="14.00">y=&lt;pyiron_base.project.delayed.DelayedObject object at 0x733f4ed91130&gt;</text>
</g>
<!-- x_1d847da32ecaabf6731c38f798c3d4ce&#45;&gt;y_3b83397feef07a74d9a046a1b7f57749 -->
<g id="edge4" class="edge">
<title>x_1d847da32ecaabf6731c38f798c3d4ce-&gt;y_3b83397feef07a74d9a046a1b7f57749</title>
<path fill="none" stroke="black" d="M783.58,-228.19C843.43,-218.73 979.25,-197.27 1078.76,-181.55"/>
<polygon fill="black" stroke="black" points="1079.27,-185.01 1088.6,-179.99 1078.18,-178.09 1079.27,-185.01"/>
</g>
<!-- y_3b83397feef07a74d9a046a1b7f57749&#45;&gt;x_1a7fff02f6473a13e5e8742988186611 -->
<g id="edge7" class="edge">
<title>y_3b83397feef07a74d9a046a1b7f57749-&gt;x_1a7fff02f6473a13e5e8742988186611</title>
<path fill="none" stroke="black" d="M1099.07,-144.1C1039.68,-133.76 963.6,-120.51 902.28,-109.83"/>
<polygon fill="black" stroke="black" points="902.96,-106.4 892.5,-108.13 901.75,-113.29 902.96,-106.4"/>
</g>
<!-- y_a9ec4f5f33f0d64e74ed5d9900bceac6 -->
<g id="node6" class="node">
<title>y_a9ec4f5f33f0d64e74ed5d9900bceac6</title>
<ellipse fill="none" stroke="black" cx="1015.13" cy="-234" rx="31.74" ry="18"/>
<text text-anchor="middle" x="1015.13" y="-229.32" font-family="Times,serif" font-size="14.00">y=2</text>
</g>
<!-- y_a9ec4f5f33f0d64e74ed5d9900bceac6&#45;&gt;x_e4655695917c433de56d1c64232473f9 -->
<g id="edge5" class="edge">
<title>y_a9ec4f5f33f0d64e74ed5d9900bceac6-&gt;x_e4655695917c433de56d1c64232473f9</title>
<path fill="none" stroke="black" d="M984.23,-229.53C905.86,-220.72 695.09,-197.04 547.46,-180.45"/>
<polygon fill="black" stroke="black" points="547.88,-176.98 537.55,-179.34 547.1,-183.93 547.88,-176.98"/>
</g>
<!-- y_a9ec4f5f33f0d64e74ed5d9900bceac6&#45;&gt;y_3b83397feef07a74d9a046a1b7f57749 -->
<g id="edge6" class="edge">
<title>y_a9ec4f5f33f0d64e74ed5d9900bceac6-&gt;y_3b83397feef07a74d9a046a1b7f57749</title>
<path fill="none" stroke="black" d="M1040.68,-223.12C1066.62,-213.09 1107.6,-197.24 1140.98,-184.33"/>
<polygon fill="black" stroke="black" points="1142.04,-187.67 1150.11,-180.8 1139.52,-181.14 1142.04,-187.67"/>
</g>
</g>
</svg>