<svg xmlns="http://www.w3.org/2000/svg" xmlns:xlink="http://www.w3.org/1999/xlink" width="2923pt" height="476pt" viewBox="0.00 0.00 2923.01 476.00">
<g id="graph0" class="graph" transform="scale(1 1) rotate(0) translate(4 472)">
<polygon fill="white" stroke="none" points="-4,4 -4,-472 2919.01,-472 2919.01,4 -4,4"/>
<!-- create_function_job_cf1eed3cc730c6c669565ef11e5dbc20 -->
<g id="node1" class="node">
<title>create_function_job_cf1eed3cc730c6c669565ef11e5dbc20</title>
<ellipse fill="none" stroke="black" cx="1538.71" cy="-18" rx="484.72" ry="18"/>
<text text-anchor="middle" x="1538.71" y="-13.32" font-family="Times,serif" font-size="14.00">create_function_job=&lt;pyiron_base.project.delayed.DelayedObject object at 0x78e7817f71a0&gt;</text>
</g>
<!-- macros_tex_52914242b002b0abe9779d33eac7cca9 -->
<g id="node2" class="node">
<title>macros_tex_52914242b002b0abe9779d33eac7cca9</title>
<ellipse fill="none" stroke="black" cx="2002.71" cy="-90" rx="442.11" ry="18"/>
<text text-anchor="middle" x="2002.71" y="-85.33" font-family="Times,serif" font-size="14.00">macros_tex=&lt;pyiron_base.project.delayed.DelayedObject object at 0x78e7817f6f30&gt;</text>
</g>
<!-- macros_tex_52914242b002b0abe9779d33eac7cca9&#45;&gt;create_function_job_cf1eed3cc730c6c669565ef11e5dbc20 -->
<g id="edge1" class="edge">
<title>macros_tex_52914242b002b0abe9779d33eac7cca9-&gt;create_function_job_cf1eed3cc730c6c669565ef11e5dbc20</title>
<path fill="none" stroke="black" d="M1890.98,-72.14C1822,-61.74 1733.42,-48.37 1662.34,-37.65"/>
<polygon fill="black" stroke="black" points="1662.99,-34.21 1652.58,-36.18 1661.95,-41.13 1662.99,-34.21"/>
</g>
<!-- pvbatch_output_file_797a42b8017e3a8961caf5d086751483 -->
<g id="node3" class="node">
<title>pvbatch_output_file_797a42b8017e3a8961caf5d086751483</title>
<ellipse fill="none" stroke="black" cx="1639.71" cy="-162" rx="484.72" ry="18"/>
<text text-anchor="middle" x="1639.71" y="-157.32" font-family="Times,serif" font-size="14.00">pvbatch_output_file=&lt;pyiron_base.project.delayed.DelayedObject object at 0x78e7817f6c00&gt;</text>
</g>
<!-- pvbatch_output_file_797a42b8017e3a8961caf5d086751483&#45;&gt;macros_tex_52914242b002b0abe9779d33eac7cca9 -->
<g id="edge2" class="edge">
<title>pvbatch_output_file_797a42b8017e3a8961caf5d086751483-&gt;macros_tex_52914242b002b0abe9779d33eac7cca9</title>
<path fill="none" stroke="black" d="M1728.51,-143.88C1781.34,-133.69 1848.48,-120.74 1903.1,-110.21"/>
<polygon fill="black" stroke="black" points="1903.56,-113.69 1912.72,-108.35 1902.24,-106.81 1903.56,-113.69"/>
</g>
<!-- poisson_output_pvd_file_5f7130e6a383408a65f772c194c7918f -->
<g id="node4" class="node">
<title>poisson_output_pvd_file_5f7130e6a383408a65f772c194c7918f</title>
<ellipse fill="none" stroke="black" cx="1533.71" cy="-234" rx="506.29" ry="18"/>
<text text-anchor="middle" x="1533.71" y="-229.32" font-family="Times,serif" font-size="14.00">poisson_output_pvd_file=&lt;pyiron_base.project.delayed.DelayedObject object at 0x78e7817f68a0&gt;</text>
</g>
<!-- poisson_output_pvd_file_5f7130e6a383408a65f772c194c7918f&#45;&gt;pvbatch_output_file_797a42b8017e3a8961caf5d086751483 -->
<g id="edge3" class="edge">
<title>poisson_output_pvd_file_5f7130e6a383408a65f772c194c7918f-&gt;pvbatch_output_file_797a42b8017e3a8961caf5d086751483</title>
<path fill="none" stroke="black" d="M1559.92,-215.7C1573.17,-206.95 1589.45,-196.19 1603.84,-186.69"/>
<polygon fill="black" stroke="black" points="1605.77,-189.61 1612.18,-181.18 1601.91,-183.77 1605.77,-189.61"/>
</g>
<!-- plot_file_797a42b8017e3a8961caf5d086751483 -->
<g id="node5" class="node">
<title>plot_file_797a42b8017e3a8961caf5d086751483</title>
<ellipse fill="none" stroke="black" cx="710.71" cy="-162" rx="426.32" ry="18"/>
<text text-anchor="middle" x="710.71" y="-157.32" font-family="Times,serif" font-size="14.00">plot_file=&lt;pyiron_base.project.delayed.DelayedObject object at 0x78e7817f6c00&gt;</text>
</g>
<!-- poisson_output_pvd_file_5f7130e6a383408a65f772c194c7918f&#45;&gt;plot_file_797a42b8017e3a8961caf5d086751483 -->
<g id="edge4" class="edge">
<title>poisson_output_pvd_file_5f7130e6a383408a65f772c194c7918f-&gt;plot_file_797a42b8017e3a8961caf5d086751483</title>
<path fill="none" stroke="black" d="M1343.87,-216.85C1212.75,-205.7 1038.85,-190.91 906.47,-179.65"/>
<polygon fill="black" stroke="black" points="906.77,-176.16 896.51,-178.8 906.18,-183.14 906.77,-176.16"/>
</g>
<!-- plot_file_797a42b8017e3a8961caf5d086751483&#45;&gt;create_function_job_cf1eed3cc730c6c669565ef11e5dbc20 -->
<g id="edge18" class="edge">
<title>plot_file_797a42b8017e3a8961caf5d086751483-&gt;create_function_job_cf1eed3cc730c6c669565ef11e5dbc20</title>
<path fill="none" stroke="black" d="M809.77,-144.01C965.34,-117.33 1265.91,-65.78 1428.26,-37.94"/>
<polygon fill="black" stroke="black" points="1428.47,-41.46 1437.73,-36.32 1427.29,-34.56 1428.47,-41.46"/>
</g>
<!-- meshio_output_xdmf_32ce1da5f69bc3e9c4f749c2a0bc35e0 -->
<g id="node6" class="node">
<title>meshio_output_xdmf_32ce1da5f69bc3e9c4f749c2a0bc35e0</title>
<ellipse fill="none" stroke="black" cx="1419.71" cy="-306" rx="491.56" ry="18"/>
<text text-anchor="middle" x="1419.71" y="-301.32" font-family="Times,serif" font-size="14.00">meshio_output_xdmf=&lt;pyiron_base.project.delayed.DelayedObject object at 0x78e7817f6540&gt;</text>
</g>
<!-- meshio_output_xdmf_32ce1da5f69bc3e9c4f749c2a0bc35e0&#45;&gt;poisson_output_pvd_file_5f7130e6a383408a65f772c194c7918f -->
<g id="edge5" class="edge">
<title>meshio_output_xdmf_32ce1da5f69bc3e9c4f749c2a0bc35e0-&gt;poisson_output_pvd_file_5f7130e6a383408a65f772c194c7918f</title>
<path fill="none" stroke="black" d="M1447.89,-287.7C1462.42,-278.78 1480.33,-267.78 1496.03,-258.14"/>
<polygon fill="black" stroke="black" points="1497.48,-261.35 1504.17,-253.14 1493.82,-255.39 1497.48,-261.35"/>
</g>
<!-- poisson_output_vtu_file_33e2fcb7b676bca18eb85bcb7eeac25d -->
<g id="node7" class="node">
<title>poisson_output_vtu_file_33e2fcb7b676bca18eb85bcb7eeac25d</title>
<ellipse fill="none" stroke="black" cx="504.71" cy="-234" rx="504.71" ry="18"/>
<text text-anchor="middle" x="504.71" y="-229.32" font-family="Times,serif" font-size="14.00">poisson_output_vtu_file=&lt;pyiron_base.project.delayed.DelayedObject object at 0x78e7817f6870&gt;</text>
</g>
<!-- meshio_output_xdmf_32ce1da5f69bc3e9c4f749c2a0bc35e0&#45;&gt;poisson_output_vtu_file_33e2fcb7b676bca18eb85bcb7eeac25d -->
<g id="edge6" class="edge">
<title>meshio_output_xdmf_32ce1da5f69bc3e9c4f749c2a0bc35e0-&gt;poisson_output_vtu_file_33e2fcb7b676bca18eb85bcb7eeac25d</title>
<path fill="none" stroke="black" d="M1213.52,-289.23C1067.36,-278.04 871.6,-263.07 722.84,-251.69"/>
<polygon fill="black" stroke="black" points="723.51,-248.23 713.27,-250.96 722.97,-255.21 723.51,-248.23"/>
</g>
<!-- ndofs_442b654c8db60c8d2ccb23212f9fb5fa -->
<g id="node8" class="node">
<title>ndofs_442b654c8db60c8d2ccb23212f9fb5fa</title>
<ellipse fill="none" stroke="black" cx="2472.71" cy="-234" rx="414.22" ry="18"/>
<text text-anchor="middle" x="2472.71" y="-229.32" font-family="Times,serif" font-size="14.00">ndofs=&lt;pyiron_base.project.delayed.DelayedObject object at 0x78e7817f6c90&gt;</text>
</g>
<!-- meshio_output_xdmf_32ce1da5f69bc3e9c4f749c2a0bc35e0&#45;&gt;ndofs_442b654c8db60c8d2ccb23212f9fb5fa -->
<g id="edge7" class="edge">
<title>meshio_output_xdmf_32ce1da5f69bc3e9c4f749c2a0bc35e0-&gt;ndofs_442b654c8db60c8d2ccb23212f9fb5fa</title>
<path fill="none" stroke="black" d="M1650.15,-289.68C1825.31,-278.04 2065.26,-262.09 2240.79,-250.42"/>
<polygon fill="black" stroke="black" points="2241,-253.91 2250.75,-249.76 2240.54,-246.93 2241,-253.91"/>
</g>
<!-- poisson_output_vtu_file_33e2fcb7b676bca18eb85bcb7eeac25d&#45;&gt;pvbatch_output_file_797a42b8017e3a8961caf5d086751483 -->
<g id="edge15" class="edge">
<title>poisson_output_vtu_file_33e2fcb7b676bca18eb85bcb7eeac25d-&gt;pvbatch_output_file_797a42b8017e3a8961caf5d086751483</title>
<path fill="none" stroke="black" d="M750.29,-217.85C937.87,-206.29 1195.56,-190.39 1385.29,-178.69"/>
<polygon fill="black" stroke="black" points="1385.27,-182.2 1395.04,-178.09 1384.84,-175.21 1385.27,-182.2"/>
</g>
<!-- poisson_output_vtu_file_33e2fcb7b676bca18eb85bcb7eeac25d&#45;&gt;plot_file_797a42b8017e3a8961caf5d086751483 -->
<g id="edge16" class="edge">
<title>poisson_output_vtu_file_33e2fcb7b676bca18eb85bcb7eeac25d-&gt;plot_file_797a42b8017e3a8961caf5d086751483</title>
<path fill="none" stroke="black" d="M555.9,-215.61C584.13,-206.01 619.38,-194.04 649.11,-183.93"/>
<polygon fill="black" stroke="black" points="650.02,-187.32 658.36,-180.79 647.76,-180.69 650.02,-187.32"/>
</g>
<!-- ndofs_442b654c8db60c8d2ccb23212f9fb5fa&#45;&gt;macros_tex_52914242b002b0abe9779d33eac7cca9 -->
<g id="edge17" class="edge">
<title>ndofs_442b654c8db60c8d2ccb23212f9fb5fa-&gt;macros_tex_52914242b002b0abe9779d33eac7cca9</title>
<path fill="none" stroke="black" d="M2415.55,-215.73C2328.69,-189.49 2163.76,-139.66 2070.81,-111.57"/>
<polygon fill="black" stroke="black" points="2071.88,-108.24 2061.29,-108.7 2069.85,-114.94 2071.88,-108.24"/>
</g>
<!-- gmsh_output_file_f52741e901b6100324f1bad01e4c8d06 -->
<g id="node9" class="node">
<title>gmsh_output_file_f52741e901b6100324f1bad01e4c8d06</title>
<ellipse fill="none" stroke="black" cx="2407.71" cy="-378" rx="473.15" ry="18"/>
<text text-anchor="middle" x="2407.71" y="-373.32" font-family="Times,serif" font-size="14.00">gmsh_output_file=&lt;pyiron_base.project.delayed.DelayedObject object at 0x78e7817f6330&gt;</text>
</g>
<!-- gmsh_output_file_f52741e901b6100324f1bad01e4c8d06&#45;&gt;meshio_output_xdmf_32ce1da5f69bc3e9c4f749c2a0bc35e0 -->
<g id="edge8" class="edge">
<title>gmsh_output_file_f52741e901b6100324f1bad01e4c8d06-&gt;meshio_output_xdmf_32ce1da5f69bc3e9c4f749c2a0bc35e0</title>
<path fill="none" stroke="black" d="M2189.98,-361.57C2030.01,-350.24 1813.07,-334.87 1650.18,-323.33"/>
<polygon fill="black" stroke="black" points="1650.77,-319.86 1640.55,-322.65 1650.28,-326.84 1650.77,-319.86"/>
</g>
<!-- meshio_output_h5_83085718ced1b414c601b765bc684a64 -->
<g id="node10" class="node">
<title>meshio_output_h5_83085718ced1b414c601b765bc684a64</title>
<ellipse fill="none" stroke="black" cx="2407.71" cy="-306" rx="478.94" ry="18"/>
<text text-anchor="middle" x="2407.71" y="-301.32" font-family="Times,serif" font-size="14.00">meshio_output_h5=&lt;pyiron_base.project.delayed.DelayedObject object at 0x78e7817f6480&gt;</text>
</g>
<!-- gmsh_output_file_f52741e901b6100324f1bad01e4c8d06&#45;&gt;meshio_output_h5_83085718ced1b414c601b765bc684a64 -->
<g id="edge9" class="edge">
<title>gmsh_output_file_f52741e901b6100324f1bad01e4c8d06-&gt;meshio_output_h5_83085718ced1b414c601b765bc684a64</title>
<path fill="none" stroke="black" d="M2407.71,-359.7C2407.71,-352.41 2407.71,-343.73 2407.71,-335.54"/>
<polygon fill="black" stroke="black" points="2411.21,-335.62 2407.71,-325.62 2404.21,-335.62 2411.21,-335.62"/>
</g>
<!-- meshio_output_h5_83085718ced1b414c601b765bc684a64&#45;&gt;poisson_output_pvd_file_5f7130e6a383408a65f772c194c7918f -->
<g id="edge12" class="edge">
<title>meshio_output_h5_83085718ced1b414c601b765bc684a64-&gt;poisson_output_pvd_file_5f7130e6a383408a65f772c194c7918f</title>
<path fill="none" stroke="black" d="M2209.94,-289.16C2071.31,-278.06 1886.26,-263.24 1744.78,-251.9"/>
<polygon fill="black" stroke="black" points="1745.14,-248.42 1734.9,-251.11 1744.59,-255.4 1745.14,-248.42"/>
</g>
<!-- meshio_output_h5_83085718ced1b414c601b765bc684a64&#45;&gt;poisson_output_vtu_file_33e2fcb7b676bca18eb85bcb7eeac25d -->
<g id="edge13" class="edge">
<title>meshio_output_h5_83085718ced1b414c601b765bc684a64-&gt;poisson_output_vtu_file_33e2fcb7b676bca18eb85bcb7eeac25d</title>
<path fill="none" stroke="black" d="M2074.06,-292.73C1733.32,-280.19 1206.34,-260.81 858.49,-248.01"/>
<polygon fill="black" stroke="black" points="858.86,-244.52 848.73,-247.65 858.6,-251.52 858.86,-244.52"/>
</g>
<!-- meshio_output_h5_83085718ced1b414c601b765bc684a64&#45;&gt;ndofs_442b654c8db60c8d2ccb23212f9fb5fa -->
<g id="edge14" class="edge">
<title>meshio_output_h5_83085718ced1b414c601b765bc684a64-&gt;ndofs_442b654c8db60c8d2ccb23212f9fb5fa</title>
<path fill="none" stroke="black" d="M2423.78,-287.7C2431.42,-279.47 2440.69,-269.48 2449.11,-260.42"/>
<polygon fill="black" stroke="black" points="2451.56,-262.92 2455.8,-253.21 2446.43,-258.16 2451.56,-262.92"/>
</g>
<!-- domain_size_f12a7f1986b9dd058dfc666dbe230b20 -->
<g id="node11" class="node">
<title>domain_size_f12a7f1986b9dd058dfc666dbe230b20</title>
<ellipse fill="none" stroke="black" cx="2660.71" cy="-450" rx="96.45" ry="18"/>
<text text-anchor="middle" x="2660.71" y="-445.32" font-family="Times,serif" font-size="14.00">domain_size=2.0</text>
</g>
<!-- domain_size_f12a7f1986b9dd058dfc666dbe230b20&#45;&gt;macros_tex_52914242b002b0abe9779d33eac7cca9 -->
<g id="edge10" class="edge">
<title>domain_size_f12a7f1986b9dd058dfc666dbe230b20-&gt;macros_tex_52914242b002b0abe9779d33eac7cca9</title>
<path fill="none" stroke="black" d="M2739.88,-439.36C2797.2,-430.82 2868.24,-416.5 2889.71,-396 2919.43,-367.63 2914.71,-348.09 2914.71,-307 2914.71,-307 2914.71,-307 2914.71,-233 2914.71,-166.08 2526.34,-126.03 2256.47,-106.28"/>
<polygon fill="black" stroke="black" points="2257.05,-102.81 2246.83,-105.58 2256.55,-109.79 2257.05,-102.81"/>
</g>
<!-- domain_size_f12a7f1986b9dd058dfc666dbe230b20&#45;&gt;gmsh_output_file_f52741e901b6100324f1bad01e4c8d06 -->
<g id="edge11" class="edge">
<title>domain_size_f12a7f1986b9dd058dfc666dbe230b20-&gt;gmsh_output_file_f52741e901b6100324f1bad01e4c8d06</title>
<path fill="none" stroke="black" d="M2608.29,-434.5C2571.57,-424.33 2521.98,-410.62 2481.3,-399.36"/>
<polygon fill="black" stroke="black" points="2482.38,-396.03 2471.81,-396.73 2480.52,-402.77 2482.38,-396.03"/>
</g>
</g>
</svg>