<svg xmlns="http://www.w3.org/2000/svg" xmlns:xlink="http://www.w3.org/1999/xlink" width="2934pt" height="476pt" viewBox="0.00 0.00 2934.06 476.00">
<g id="graph0" class="graph" transform="scale(1 1) rotate(0) translate(4 472)">
<polygon fill="white" stroke="none" points="-4,4 -4,-472 2930.06,-472 2930.06,4 -4,4"/>
<!-- create_function_job_69b38eef29d5c9aba4c6de512da1bb24 -->
<g id="node1" class="node">
<title>create_function_job_69b38eef29d5c9aba4c6de512da1bb24</title>
<ellipse fill="none" stroke="black" cx="1542.29" cy="-18" rx="485.25" ry="18"/>
<text text-anchor="middle" x="1542.29" y="-13.32" font-family="Times,serif" font-size="14.00">create_function_job=&lt;pyiron_base.project.delayed.DelayedObject object at 0x7c1a34d2c0e0&gt;</text>
</g>
<!-- macros_tex_c5f640fc7b11414962941f82a40a8b04 -->
<g id="node2" class="node">
<title>macros_tex_c5f640fc7b11414962941f82a40a8b04</title>
<ellipse fill="none" stroke="black" cx="2009.29" cy="-90" rx="446.32" ry="18"/>
<text text-anchor="middle" x="2009.29" y="-85.33" font-family="Times,serif" font-size="14.00">macros_tex=&lt;pyiron_base.project.delayed.DelayedObject object at 0x7c1a34d07dd0&gt;</text>
</g>
<!-- macros_tex_c5f640fc7b11414962941f82a40a8b04&#45;&gt;create_function_job_69b38eef29d5c9aba4c6de512da1bb24 -->
<g id="edge1" class="edge">
<title>macros_tex_c5f640fc7b11414962941f82a40a8b04-&gt;create_function_job_69b38eef29d5c9aba4c6de512da1bb24</title>
<path fill="none" stroke="black" d="M1896.54,-72.1C1827.11,-61.69 1738.02,-48.34 1666.56,-37.63"/>
<polygon fill="black" stroke="black" points="1667.15,-34.18 1656.75,-36.16 1666.12,-41.1 1667.15,-34.18"/>
</g>
<!-- pvbatch_output_file_5f8f87a5c4f1bd1a4b6cca85a1fc2b78 -->
<g id="node3" class="node">
<title>pvbatch_output_file_5f8f87a5c4f1bd1a4b6cca85a1fc2b78</title>
<ellipse fill="none" stroke="black" cx="1645.29" cy="-162" rx="487.35" ry="18"/>
<text text-anchor="middle" x="1645.29" y="-157.32" font-family="Times,serif" font-size="14.00">pvbatch_output_file=&lt;pyiron_base.project.delayed.DelayedObject object at 0x7c1a34d07d70&gt;</text>
</g>
<!-- pvbatch_output_file_5f8f87a5c4f1bd1a4b6cca85a1fc2b78&#45;&gt;macros_tex_c5f640fc7b11414962941f82a40a8b04 -->
<g id="edge2" class="edge">
<title>pvbatch_output_file_5f8f87a5c4f1bd1a4b6cca85a1fc2b78-&gt;macros_tex_c5f640fc7b11414962941f82a40a8b04</title>
<path fill="none" stroke="black" d="M1734.34,-143.88C1787.31,-133.69 1854.63,-120.74 1909.4,-110.21"/>
<polygon fill="black" stroke="black" points="1909.89,-113.68 1919.05,-108.35 1908.57,-106.81 1909.89,-113.68"/>
</g>
<!-- poisson_output_pvd_file_08c5d21e2c998fd513709b7a059c6649 -->
<g id="node4" class="node">
<title>poisson_output_pvd_file_08c5d21e2c998fd513709b7a059c6649</title>
<ellipse fill="none" stroke="black" cx="1538.29" cy="-234" rx="507.35" ry="18"/>
<text text-anchor="middle" x="1538.29" y="-229.32" font-family="Times,serif" font-size="14.00">poisson_output_pvd_file=&lt;pyiron_base.project.delayed.DelayedObject object at 0x7c1a34d07bc0&gt;</text>
</g>
<!-- poisson_output_pvd_file_08c5d21e2c998fd513709b7a059c6649&#45;&gt;pvbatch_output_file_5f8f87a5c4f1bd1a4b6cca85a1fc2b78 -->
<g id="edge3" class="edge">
<title>poisson_output_pvd_file_08c5d21e2c998fd513709b7a059c6649-&gt;pvbatch_output_file_5f8f87a5c4f1bd1a4b6cca85a1fc2b78</title>
<path fill="none" stroke="black" d="M1564.74,-215.7C1578.25,-206.86 1594.87,-195.99 1609.5,-186.41"/>
<polygon fill="black" stroke="black" points="1611.06,-189.58 1617.51,-181.18 1607.23,-183.72 1611.06,-189.58"/>
</g>
<!-- plot_file_5f8f87a5c4f1bd1a4b6cca85a1fc2b78 -->
<g id="node5" class="node">
<title>plot_file_5f8f87a5c4f1bd1a4b6cca85a1fc2b78</title>
<ellipse fill="none" stroke="black" cx="711.29" cy="-162" rx="428.95" ry="18"/>
<text text-anchor="middle" x="711.29" y="-157.32" font-family="Times,serif" font-size="14.00">plot_file=&lt;pyiron_base.project.delayed.DelayedObject object at 0x7c1a34d07d70&gt;</text>
</g>
<!-- poisson_output_pvd_file_08c5d21e2c998fd513709b7a059c6649&#45;&gt;plot_file_5f8f87a5c4f1bd1a4b6cca85a1fc2b78 -->
<g id="edge4" class="edge">
<title>poisson_output_pvd_file_08c5d21e2c998fd513709b7a059c6649-&gt;plot_file_5f8f87a5c4f1bd1a4b6cca85a1fc2b78</title>
<path fill="none" stroke="black" d="M1347.78,-216.87C1215.91,-205.71 1040.86,-190.9 907.72,-179.63"/>
<polygon fill="black" stroke="black" points="908.36,-176.17 898.1,-178.81 907.77,-183.14 908.36,-176.17"/>
</g>
<!-- plot_file_5f8f87a5c4f1bd1a4b6cca85a1fc2b78&#45;&gt;create_function_job_69b38eef29d5c9aba4c6de512da1bb24 -->
<g id="edge18" class="edge">
<title>plot_file_5f8f87a5c4f1bd1a4b6cca85a1fc2b78-&gt;create_function_job_69b38eef29d5c9aba4c6de512da1bb24</title>
<path fill="none" stroke="black" d="M810.71,-144.01C966.84,-117.33 1268.5,-65.78 1431.43,-37.94"/>
<polygon fill="black" stroke="black" points="1431.68,-41.45 1440.95,-36.32 1430.5,-34.55 1431.68,-41.45"/>
</g>
<!-- meshio_output_xdmf_fc75e768124c1b73ca0efc70a5765dea -->
<g id="node6" class="node">
<title>meshio_output_xdmf_fc75e768124c1b73ca0efc70a5765dea</title>
<ellipse fill="none" stroke="black" cx="1430.29" cy="-306" rx="492.09" ry="18"/>
<text text-anchor="middle" x="1430.29" y="-301.32" font-family="Times,serif" font-size="14.00">meshio_output_xdmf=&lt;pyiron_base.project.delayed.DelayedObject object at 0x7c1a34d078c0&gt;</text>
</g>
<!-- meshio_output_xdmf_fc75e768124c1b73ca0efc70a5765dea&#45;&gt;poisson_output_pvd_file_08c5d21e2c998fd513709b7a059c6649 -->
<g id="edge5" class="edge">
<title>meshio_output_xdmf_fc75e768124c1b73ca0efc70a5765dea-&gt;poisson_output_pvd_file_08c5d21e2c998fd513709b7a059c6649</title>
<path fill="none" stroke="black" d="M1456.99,-287.7C1470.62,-278.86 1487.4,-267.99 1502.17,-258.41"/>
<polygon fill="black" stroke="black" points="1503.77,-261.55 1510.26,-253.17 1499.96,-255.67 1503.77,-261.55"/>
</g>
<!-- poisson_output_vtu_file_62144723b416cb6b52989d18b3dec55b -->
<g id="node7" class="node">
<title>poisson_output_vtu_file_62144723b416cb6b52989d18b3dec55b</title>
<ellipse fill="none" stroke="black" cx="506.29" cy="-234" rx="506.29" ry="18"/>
<text text-anchor="middle" x="506.29" y="-229.32" font-family="Times,serif" font-size="14.00">poisson_output_vtu_file=&lt;pyiron_base.project.delayed.DelayedObject object at 0x7c1a34d07b90&gt;</text>
</g>
<!-- meshio_output_xdmf_fc75e768124c1b73ca0efc70a5765dea&#45;&gt;poisson_output_vtu_file_62144723b416cb6b52989d18b3dec55b -->
<g id="edge6" class="edge">
<title>meshio_output_xdmf_fc75e768124c1b73ca0efc70a5765dea-&gt;poisson_output_vtu_file_62144723b416cb6b52989d18b3dec55b</title>
<path fill="none" stroke="black" d="M1222.35,-289.25C1074.78,-278.07 877,-263.08 726.7,-251.7"/>
<polygon fill="black" stroke="black" points="727.25,-248.23 717.01,-250.96 726.72,-255.21 727.25,-248.23"/>
</g>
<!-- ndofs_c3811e53ce75b5460d97029d314439b5 -->
<g id="node8" class="node">
<title>ndofs_c3811e53ce75b5460d97029d314439b5</title>
<ellipse fill="none" stroke="black" cx="2480.29" cy="-234" rx="416.33" ry="18"/>
<text text-anchor="middle" x="2480.29" y="-229.32" font-family="Times,serif" font-size="14.00">ndofs=&lt;pyiron_base.project.delayed.DelayedObject object at 0x7c1a34d07e00&gt;</text>
</g>
<!-- meshio_output_xdmf_fc75e768124c1b73ca0efc70a5765dea&#45;&gt;ndofs_c3811e53ce75b5460d97029d314439b5 -->
<g id="edge7" class="edge">
<title>meshio_output_xdmf_fc75e768124c1b73ca0efc70a5765dea-&gt;ndofs_c3811e53ce75b5460d97029d314439b5</title>
<path fill="none" stroke="black" d="M1660.4,-289.66C1834.93,-278.02 2073.83,-262.1 2248.72,-250.44"/>
<polygon fill="black" stroke="black" points="2248.9,-253.93 2258.64,-249.78 2248.43,-246.95 2248.9,-253.93"/>
</g>
<!-- poisson_output_vtu_file_62144723b416cb6b52989d18b3dec55b&#45;&gt;pvbatch_output_file_5f8f87a5c4f1bd1a4b6cca85a1fc2b78 -->
<g id="edge15" class="edge">
<title>poisson_output_vtu_file_62144723b416cb6b52989d18b3dec55b-&gt;pvbatch_output_file_5f8f87a5c4f1bd1a4b6cca85a1fc2b78</title>
<path fill="none" stroke="black" d="M752.74,-217.85C940.97,-206.29 1199.57,-190.39 1389.97,-178.69"/>
<polygon fill="black" stroke="black" points="1389.99,-182.2 1399.76,-178.09 1389.56,-175.21 1389.99,-182.2"/>
</g>
<!-- poisson_output_vtu_file_62144723b416cb6b52989d18b3dec55b&#45;&gt;plot_file_5f8f87a5c4f1bd1a4b6cca85a1fc2b78 -->
<g id="edge16" class="edge">
<title>poisson_output_vtu_file_62144723b416cb6b52989d18b3dec55b-&gt;plot_file_5f8f87a5c4f1bd1a4b6cca85a1fc2b78</title>
<path fill="none" stroke="black" d="M557.23,-215.61C585.32,-206.01 620.4,-194.04 649.99,-183.93"/>
<polygon fill="black" stroke="black" points="650.85,-187.34 659.19,-180.79 648.59,-180.71 650.85,-187.34"/>
</g>
<!-- ndofs_c3811e53ce75b5460d97029d314439b5&#45;&gt;macros_tex_c5f640fc7b11414962941f82a40a8b04 -->
<g id="edge17" class="edge">
<title>ndofs_c3811e53ce75b5460d97029d314439b5-&gt;macros_tex_c5f640fc7b11414962941f82a40a8b04</title>
<path fill="none" stroke="black" d="M2423.01,-215.73C2335.96,-189.49 2170.68,-139.66 2077.54,-111.57"/>
<polygon fill="black" stroke="black" points="2078.58,-108.23 2067.99,-108.7 2076.56,-114.94 2078.58,-108.23"/>
</g>
<!-- gmsh_output_file_950b49ac6562a70cf11f14756f9831ea -->
<g id="node9" class="node">
<title>gmsh_output_file_950b49ac6562a70cf11f14756f9831ea</title>
<ellipse fill="none" stroke="black" cx="2418.29" cy="-378" rx="474.73" ry="18"/>
<text text-anchor="middle" x="2418.29" y="-373.32" font-family="Times,serif" font-size="14.00">gmsh_output_file=&lt;pyiron_base.project.delayed.DelayedObject object at 0x7c1a34d076b0&gt;</text>
</g>
<!-- gmsh_output_file_950b49ac6562a70cf11f14756f9831ea&#45;&gt;meshio_output_xdmf_fc75e768124c1b73ca0efc70a5765dea -->
<g id="edge8" class="edge">
<title>gmsh_output_file_950b49ac6562a70cf11f14756f9831ea-&gt;meshio_output_xdmf_fc75e768124c1b73ca0efc70a5765dea</title>
<path fill="none" stroke="black" d="M2200.56,-361.57C2040.59,-350.24 1823.65,-334.87 1660.76,-323.33"/>
<polygon fill="black" stroke="black" points="1661.35,-319.86 1651.13,-322.65 1660.86,-326.84 1661.35,-319.86"/>
</g>
<!-- meshio_output_h5_efe999f964b5fb7603bd642abcd8905d -->
<g id="node10" class="node">
<title>meshio_output_h5_efe999f964b5fb7603bd642abcd8905d</title>
<ellipse fill="none" stroke="black" cx="2418.29" cy="-306" rx="477.88" ry="18"/>
<text text-anchor="middle" x="2418.29" y="-301.32" font-family="Times,serif" font-size="14.00">meshio_output_h5=&lt;pyiron_base.project.delayed.DelayedObject object at 0x7c1a34d078f0&gt;</text>
</g>
<!-- gmsh_output_file_950b49ac6562a70cf11f14756f9831ea&#45;&gt;meshio_output_h5_efe999f964b5fb7603bd642abcd8905d -->
<g id="edge9" class="edge">
<title>gmsh_output_file_950b49ac6562a70cf11f14756f9831ea-&gt;meshio_output_h5_efe999f964b5fb7603bd642abcd8905d</title>
<path fill="none" stroke="black" d="M2418.29,-359.7C2418.29,-352.41 2418.29,-343.73 2418.29,-335.54"/>
<polygon fill="black" stroke="black" points="2421.79,-335.62 2418.29,-325.62 2414.79,-335.62 2421.79,-335.62"/>
</g>
<!-- meshio_output_h5_efe999f964b5fb7603bd642abcd8905d&#45;&gt;poisson_output_pvd_file_08c5d21e2c998fd513709b7a059c6649 -->
<g id="edge12" class="edge">
<title>meshio_output_h5_efe999f964b5fb7603bd642abcd8905d-&gt;poisson_output_pvd_file_08c5d21e2c998fd513709b7a059c6649</title>
<path fill="none" stroke="black" d="M2219.43,-289.18C2079.6,-278.06 1892.76,-263.2 1750.13,-251.85"/>
<polygon fill="black" stroke="black" points="1750.83,-248.4 1740.59,-251.09 1750.28,-255.37 1750.83,-248.4"/>
</g>
<!-- meshio_output_h5_efe999f964b5fb7603bd642abcd8905d&#45;&gt;poisson_output_vtu_file_62144723b416cb6b52989d18b3dec55b -->
<g id="edge13" class="edge">
<title>meshio_output_h5_efe999f964b5fb7603bd642abcd8905d-&gt;poisson_output_vtu_file_62144723b416cb6b52989d18b3dec55b</title>
<path fill="none" stroke="black" d="M2084.15,-292.77C1741.71,-280.23 1211.22,-260.81 861.35,-248"/>
<polygon fill="black" stroke="black" points="861.65,-244.51 851.53,-247.64 861.39,-251.5 861.65,-244.51"/>
</g>
<!-- meshio_output_h5_efe999f964b5fb7603bd642abcd8905d&#45;&gt;ndofs_c3811e53ce75b5460d97029d314439b5 -->
<g id="edge14" class="edge">
<title>meshio_output_h5_efe999f964b5fb7603bd642abcd8905d-&gt;ndofs_c3811e53ce75b5460d97029d314439b5</title>
<path fill="none" stroke="black" d="M2433.62,-287.7C2440.83,-279.56 2449.57,-269.69 2457.53,-260.7"/>
<polygon fill="black" stroke="black" points="2460.13,-263.04 2464.14,-253.24 2454.89,-258.4 2460.13,-263.04"/>
</g>
<!-- domain_size_f12a7f1986b9dd058dfc666dbe230b20 -->
<g id="node11" class="node">
<title>domain_size_f12a7f1986b9dd058dfc666dbe230b20</title>
<ellipse fill="none" stroke="black" cx="2671.29" cy="-450" rx="96.45" ry="18"/>
<text text-anchor="middle" x="2671.29" y="-445.32" font-family="Times,serif" font-size="14.00">domain_size=2.0</text>
</g>
<!-- domain_size_f12a7f1986b9dd058dfc666dbe230b20&#45;&gt;macros_tex_c5f640fc7b11414962941f82a40a8b04 -->
<g id="edge10" class="edge">
<title>domain_size_f12a7f1986b9dd058dfc666dbe230b20-&gt;macros_tex_c5f640fc7b11414962941f82a40a8b04</title>
<path fill="none" stroke="black" d="M2751.32,-439.63C2809.25,-431.24 2880.95,-416.99 2902.29,-396 2931.35,-367.43 2924.29,-347.75 2924.29,-307 2924.29,-307 2924.29,-307 2924.29,-233 2924.29,-165.96 2535.79,-125.99 2265.08,-106.29"/>
<polygon fill="black" stroke="black" points="2265.63,-102.82 2255.4,-105.59 2265.13,-109.8 2265.63,-102.82"/>
</g>
<!-- domain_size_f12a7f1986b9dd058dfc666dbe230b20&#45;&gt;gmsh_output_file_950b49ac6562a70cf11f14756f9831ea -->
<g id="edge11" class="edge">
<title>domain_size_f12a7f1986b9dd058dfc666dbe230b20-&gt;gmsh_output_file_950b49ac6562a70cf11f14756f9831ea</title>
<path fill="none" stroke="black" d="M2618.87,-434.5C2582.15,-424.33 2532.56,-410.62 2491.88,-399.36"/>
<polygon fill="black" stroke="black" points="2492.96,-396.03 2482.39,-396.73 2491.09,-402.77 2492.96,-396.03"/>
</g>
</g>
</svg>