<svg xmlns="http://www.w3.org/2000/svg" xmlns:xlink="http://www.w3.org/1999/xlink" width="1606pt" height="260pt" viewBox="0.00 0.00 1605.52 260.00">
<g id="graph0" class="graph" transform="scale(1 1) rotate(0) translate(4 256)">
<polygon fill="white" stroke="none" points="-4,4 -4,-256 1601.52,-256 1601.52,4 -4,4"/>
<!-- create_function_job_9e748c1c8cdef9464869503612dbb8dd -->
<g id="node1" class="node">
<title>create_function_job_9e748c1c8cdef9464869503612dbb8dd</title>
<ellipse fill="none" stroke="black" cx="797.18" cy="-18" rx="486.83" ry="18"/>
<text text-anchor="middle" x="797.18" y="-13.32" font-family="Times,serif" font-size="14.00">create_function_job=&lt;pyiron_base.project.delayed.DelayedObject object at 0x7960e32575c0&gt;</text>
</g>
<!-- x_a067a96e1de754e11581b419c5c1d4dd -->
<g id="node2" class="node">
<title>x_a067a96e1de754e11581b419c5c1d4dd</title>
<ellipse fill="none" stroke="black" cx="797.18" cy="-90" rx="396.34" ry="18"/>
<text text-anchor="middle" x="797.18" y="-85.33" font-family="Times,serif" font-size="14.00">x=&lt;pyiron_base.project.delayed.DelayedObject object at 0x7960e3257350&gt;</text>
</g>
<!-- x_a067a96e1de754e11581b419c5c1d4dd&#45;&gt;create_function_job_9e748c1c8cdef9464869503612dbb8dd -->
<g id="edge1" class="edge">
<title>x_a067a96e1de754e11581b419c5c1d4dd-&gt;create_function_job_9e748c1c8cdef9464869503612dbb8dd</title>
<path fill="none" stroke="black" d="M797.18,-71.7C797.18,-64.41 797.18,-55.73 797.18,-47.54"/>
<polygon fill="black" stroke="black" points="800.68,-47.62 797.18,-37.62 793.68,-47.62 800.68,-47.62"/>
</g>
<!-- x_e71e72d9c42ba1008579078b6c079655 -->
<g id="node3" class="node">
<title>x_e71e72d9c42ba1008579078b6c079655</title>
<ellipse fill="none" stroke="black" cx="393.18" cy="-162" rx="393.18" ry="18"/>
<text text-anchor="middle" x="393.18" y="-157.32" font-family="Times,serif" font-size="14.00">x=&lt;pyiron_base.project.delayed.DelayedObject object at 0x7960ec8cc9b0&gt;</text>
</g>
<!-- x_e71e72d9c42ba1008579078b6c079655&#45;&gt;x_a067a96e1de754e11581b419c5c1d4dd -->
<g id="edge2" class="edge">
<title>x_e71e72d9c42ba1008579078b6c079655-&gt;x_a067a96e1de754e11581b419c5c1d4dd</title>
<path fill="none" stroke="black" d="M490.72,-144.1C550.4,-133.76 626.87,-120.51 688.49,-109.83"/>
<polygon fill="black" stroke="black" points="689.07,-113.28 698.32,-108.13 687.87,-106.39 689.07,-113.28"/>
</g>
<!-- x_974924ff998969b91bfc8b2db5f854a1 -->
<g id="node4" class="node">
<title>x_974924ff998969b91bfc8b2db5f854a1</title>
<ellipse fill="none" stroke="black" cx="747.18" cy="-234" rx="41.21" ry="18"/>
<text text-anchor="middle" x="747.18" y="-229.32" font-family="Times,serif" font-size="14.00">x=1.0</text>
</g>
<!-- x_974924ff998969b91bfc8b2db5f854a1&#45;&gt;x_e71e72d9c42ba1008579078b6c079655 -->
<g id="edge3" class="edge">
<title>x_974924ff998969b91bfc8b2db5f854a1-&gt;x_e71e72d9c42ba1008579078b6c079655</title>
<path fill="none" stroke="black" d="M710.3,-225.71C658.67,-215.5 563.02,-196.58 490.22,-182.19"/>
<polygon fill="black" stroke="black" points="491.17,-178.81 480.68,-180.3 489.81,-185.68 491.17,-178.81"/>
</g>
<!-- y_49c159de63f318f02b04278442feee05 -->
<g id="node5" class="node">
<title>y_49c159de63f318f02b04278442feee05</title>
<ellipse fill="none" stroke="black" cx="1201.18" cy="-162" rx="396.34" ry="18"/>
<text text-anchor="middle" x="1201.18" y="-157.32" font-family="Times,serif" font-size="14.00">y=&lt;pyiron_base.project.delayed.DelayedObject object at 0x7960e3257020&gt;</text>
</g>
<!-- x_974924ff998969b91bfc8b2db5f854a1&#45;&gt;y_49c159de63f318f02b04278442feee05 -->
<g id="edge4" class="edge">
<title>x_974924ff998969b91bfc8b2db5f854a1-&gt;y_49c159de63f318f02b04278442feee05</title>
<path fill="none" stroke="black" d="M785.5,-227.09C850.03,-217.14 982.96,-196.65 1081.21,-181.5"/>
<polygon fill="black" stroke="black" points="1081.56,-184.99 1090.91,-180 1080.49,-178.07 1081.56,-184.99"/>
</g>
<!-- y_49c159de63f318f02b04278442feee05&#45;&gt;x_a067a96e1de754e11581b419c5c1d4dd -->
<g id="edge7" class="edge">
<title>y_49c159de63f318f02b04278442feee05-&gt;x_a067a96e1de754e11581b419c5c1d4dd</title>
<path fill="none" stroke="black" d="M1103.64,-144.1C1043.96,-133.76 967.49,-120.51 905.87,-109.83"/>
<polygon fill="black" stroke="black" points="906.49,-106.39 896.04,-108.13 905.29,-113.28 906.49,-106.39"/>
</g>
<!-- y_f12a7f1986b9dd058dfc666dbe230b20 -->
<g id="node6" class="node">
<title>y_f12a7f1986b9dd058dfc666dbe230b20</title>
<ellipse fill="none" stroke="black" cx="1024.18" cy="-234" rx="41.21" ry="18"/>
<text text-anchor="middle" x="1024.18" y="-229.32" font-family="Times,serif" font-size="14.00">y=2.0</text>
</g>
<!-- y_f12a7f1986b9dd058dfc666dbe230b20&#45;&gt;x_e71e72d9c42ba1008579078b6c079655 -->
<g id="edge5" class="edge">
<title>y_f12a7f1986b9dd058dfc666dbe230b20-&gt;x_e71e72d9c42ba1008579078b6c079655</title>
<path fill="none" stroke="black" d="M984.71,-228.62C899.58,-219.18 694.72,-196.45 550.03,-180.4"/>
<polygon fill="black" stroke="black" points="550.68,-176.95 540.35,-179.33 549.91,-183.91 550.68,-176.95"/>
</g>
<!-- y_f12a7f1986b9dd058dfc666dbe230b20&#45;&gt;y_49c159de63f318f02b04278442feee05 -->
<g id="edge6" class="edge">
<title>y_f12a7f1986b9dd058dfc666dbe230b20-&gt;y_49c159de63f318f02b04278442feee05</title>
<path fill="none" stroke="black" d="M1053.81,-221.28C1079.16,-211.26 1116.31,-196.56 1146.97,-184.44"/>
<polygon fill="black" stroke="black" points="1148.09,-187.76 1156.1,-180.83 1145.52,-181.25 1148.09,-187.76"/>
</g>
</g>
</svg>