<svg xmlns="http://www.w3.org/2000/svg" xmlns:xlink="http://www.w3.org/1999/xlink" width="893pt" height="636pt" viewBox="0.00 0.00 893.02 636.25">
<g id="graph0" class="graph" transform="scale(1 1) rotate(0) translate(4 632.25)">
<polygon fill="white" stroke="none" points="-4,4 -4,-632.25 889.02,-632.25 889.02,4 -4,4"/>
<!-- 0 -->
<g id="node1" class="node">
<title>0</title>
<ellipse fill="none" stroke="black" cx="482.02" cy="-521" rx="134.86" ry="18"/>
<text text-anchor="middle" x="482.02" y="-516.33" font-family="Times,serif" font-size="14.00">workflow.generate_mesh</text>
</g>
<!-- 1 -->
<g id="node2" class="node">
<title>1</title>
<ellipse fill="none" stroke="black" cx="482.02" cy="-431.75" rx="141.17" ry="18"/>
<text text-anchor="middle" x="482.02" y="-427.07" font-family="Times,serif" font-size="14.00">workflow.convert_to_xdmf</text>
</g>
<!-- 0&#45;&gt;1 -->
<g id="edge1" class="edge">
<title>0-&gt;1</title>
<path fill="none" stroke="black" d="M482.02,-502.76C482.02,-490.93 482.02,-474.95 482.02,-461.25"/>
<polygon fill="black" stroke="black" points="485.52,-461.47 482.02,-451.47 478.52,-461.47 485.52,-461.47"/>
<text text-anchor="middle" x="542.77" y="-471.7" font-family="Times,serif" font-size="14.00">gmsh_output_file</text>
</g>
<!-- 2 -->
<g id="node3" class="node">
<title>2</title>
<ellipse fill="none" stroke="black" cx="404.02" cy="-342.5" rx="96.45" ry="18"/>
<text text-anchor="middle" x="404.02" y="-337.82" font-family="Times,serif" font-size="14.00">workflow.poisson</text>
</g>
<!-- 1&#45;&gt;2 -->
<g id="edge2" class="edge">
<title>1-&gt;2</title>
<path fill="none" stroke="black" d="M466.61,-413.51C455.29,-400.85 439.71,-383.42 426.93,-369.13"/>
<polygon fill="black" stroke="black" points="429.68,-366.95 420.41,-361.83 424.46,-371.62 429.68,-366.95"/>
</g>
<!-- 3 -->
<g id="node4" class="node">
<title>3</title>
<ellipse fill="none" stroke="black" cx="128.02" cy="-269.5" rx="128.02" ry="18"/>
<text text-anchor="middle" x="128.02" y="-264.82" font-family="Times,serif" font-size="14.00">workflow.plot_over_line</text>
</g>
<!-- 2&#45;&gt;3 -->
<g id="edge3" class="edge">
<title>2-&gt;3</title>
<path fill="none" stroke="black" d="M348.83,-327.3C305.58,-316.18 245.1,-300.62 198.37,-288.6"/>
<polygon fill="black" stroke="black" points="199.44,-285.26 188.88,-286.16 197.69,-292.04 199.44,-285.26"/>
</g>
<!-- 4 -->
<g id="node5" class="node">
<title>4</title>
<ellipse fill="none" stroke="black" cx="325.02" cy="-180.25" rx="150.64" ry="18"/>
<text text-anchor="middle" x="325.02" y="-175.57" font-family="Times,serif" font-size="14.00">workflow.substitute_macros</text>
</g>
<!-- 2&#45;&gt;4 -->
<g id="edge4" class="edge">
<title>2-&gt;4</title>
<path fill="none" stroke="black" d="M395.57,-324.35C381.85,-296.52 354.62,-241.3 338.3,-208.19"/>
<polygon fill="black" stroke="black" points="341.64,-207.06 334.08,-199.63 335.37,-210.15 341.64,-207.06"/>
<text text-anchor="middle" x="459.34" y="-264.82" font-family="Times,serif" font-size="14.00">ndofs=result[numdofs]</text>
</g>
<!-- 3&#45;&gt;4 -->
<g id="edge5" class="edge">
<title>3-&gt;4</title>
<path fill="none" stroke="black" d="M123.85,-251.43C122.17,-240.12 122.25,-225.67 130.52,-216.25 139.89,-205.58 163.52,-198.15 191.23,-192.98"/>
<polygon fill="black" stroke="black" points="191.7,-196.45 200.96,-191.3 190.51,-189.55 191.7,-196.45"/>
<text text-anchor="middle" x="200.27" y="-220.2" font-family="Times,serif" font-size="14.00">pvbatch_output_file</text>
</g>
<!-- 5 -->
<g id="node6" class="node">
<title>5</title>
<ellipse fill="none" stroke="black" cx="325.02" cy="-91" rx="131.18" ry="18"/>
<text text-anchor="middle" x="325.02" y="-86.33" font-family="Times,serif" font-size="14.00">workflow.compile_paper</text>
</g>
<!-- 3&#45;&gt;5 -->
<g id="edge6" class="edge">
<title>3-&gt;5</title>
<path fill="none" stroke="black" d="M117.67,-251.29C105.56,-228.7 89.49,-188.79 108.77,-162.25 131.26,-131.29 167.72,-113.71 204.35,-103.81"/>
<polygon fill="black" stroke="black" points="204.87,-107.29 213.72,-101.46 203.17,-100.5 204.87,-107.29"/>
<text text-anchor="middle" x="136.9" y="-175.57" font-family="Times,serif" font-size="14.00">plot_file</text>
</g>
<!-- 4&#45;&gt;5 -->
<g id="edge7" class="edge">
<title>4-&gt;5</title>
<path fill="none" stroke="black" d="M325.02,-162.01C325.02,-150.18 325.02,-134.2 325.02,-120.5"/>
<polygon fill="black" stroke="black" points="328.52,-120.72 325.02,-110.72 321.52,-120.72 328.52,-120.72"/>
<text text-anchor="middle" x="365.52" y="-130.95" font-family="Times,serif" font-size="14.00">macros_tex</text>
</g>
<!-- 8 -->
<g id="node7" class="node">
<title>8</title>
<ellipse fill="none" stroke="black" cx="325.02" cy="-18" rx="40.69" ry="18"/>
<text text-anchor="middle" x="325.02" y="-13.32" font-family="Times,serif" font-size="14.00">result</text>
</g>
<!-- 5&#45;&gt;8 -->
<g id="edge8" class="edge">
<title>5-&gt;8</title>
<path fill="none" stroke="black" d="M325.02,-72.81C325.02,-65.23 325.02,-56.1 325.02,-47.54"/>
<polygon fill="black" stroke="black" points="328.52,-47.54 325.02,-37.54 321.52,-47.54 328.52,-47.54"/>
</g>
<!-- 6 -->
<g id="node8" class="node">
<title>6</title>
<ellipse fill="none" stroke="black" cx="696.02" cy="-610.25" rx="27.01" ry="18"/>
<text text-anchor="middle" x="696.02" y="-605.58" font-family="Times,serif" font-size="14.00">2.0</text>
</g>
<!-- 6&#45;&gt;0 -->
<g id="edge9" class="edge">
<title>6-&gt;0</title>
<path fill="none" stroke="black" d="M673.52,-600.08C640.51,-586.62 578.03,-561.15 533.42,-542.95"/>
<polygon fill="black" stroke="black" points="534.75,-539.72 524.17,-539.19 532.11,-546.2 534.75,-539.72"/>
<text text-anchor="middle" x="651.69" y="-560.95" font-family="Times,serif" font-size="14.00">domain_size</text>
</g>
<!-- 6&#45;&gt;4 -->
<g id="edge10" class="edge">
<title>6-&gt;4</title>
<path fill="none" stroke="black" d="M719.68,-601.03C749.81,-588.87 798.02,-563.01 798.02,-522 798.02,-522 798.02,-522 798.02,-268.5 798.02,-233.51 595.32,-206.94 455.3,-192.76"/>
<polygon fill="black" stroke="black" points="455.88,-189.3 445.58,-191.79 455.18,-196.27 455.88,-189.3"/>
<text text-anchor="middle" x="841.52" y="-382.45" font-family="Times,serif" font-size="14.00">domain_size</text>
</g>
<!-- 7 -->
<g id="node9" class="node">
<title>7</title>
<ellipse fill="none" stroke="black" cx="313.02" cy="-610.25" rx="236.92" ry="18"/>
<text text-anchor="middle" x="313.02" y="-605.58" font-family="Times,serif" font-size="14.00">/home/jovyan/example_workflows/nfdi/source</text>
</g>
<!-- 7&#45;&gt;0 -->
<g id="edge11" class="edge">
<title>7-&gt;0</title>
<path fill="none" stroke="black" d="M336.67,-591.9C352.14,-581.02 373.06,-567.18 392.77,-557 402.86,-551.79 413.92,-546.86 424.7,-542.45"/>
<polygon fill="black" stroke="black" points="425.95,-545.72 433.95,-538.77 423.36,-539.22 425.95,-545.72"/>
<text text-anchor="middle" x="452.4" y="-560.95" font-family="Times,serif" font-size="14.00">source_directory</text>
</g>
<!-- 7&#45;&gt;2 -->
<g id="edge12" class="edge">
<title>7-&gt;2</title>
<path fill="none" stroke="black" d="M308.91,-591.96C301.13,-554.65 288.69,-465.75 332.02,-413.75 350.66,-391.38 375.57,-417.42 395.02,-395.75 400.85,-389.25 403.6,-380.39 404.75,-371.82"/>
<polygon fill="black" stroke="black" points="408.22,-372.26 405.36,-362.06 401.24,-371.82 408.22,-372.26"/>
<text text-anchor="middle" x="365.73" y="-471.7" font-family="Times,serif" font-size="14.00">source_directory</text>
</g>
<!-- 7&#45;&gt;3 -->
<g id="edge13" class="edge">
<title>7-&gt;3</title>
<path fill="none" stroke="black" d="M199.28,-594.02C161.1,-581.97 128.02,-560.44 128.02,-522 128.02,-522 128.02,-522 128.02,-341.5 128.02,-327.58 128.02,-312.13 128.02,-299.2"/>
<polygon fill="black" stroke="black" points="131.52,-299.23 128.02,-289.23 124.52,-299.23 131.52,-299.23"/>
<text text-anchor="middle" x="187.65" y="-427.07" font-family="Times,serif" font-size="14.00">source_directory</text>
</g>
<!-- 7&#45;&gt;4 -->
<g id="edge14" class="edge">
<title>7-&gt;4</title>
<path fill="none" stroke="black" d="M305.24,-592.07C302.95,-586.48 300.64,-580.19 299.02,-574.25 275.93,-489.5 260.22,-465.58 271.77,-378.5 279.95,-316.84 301.91,-247.1 314.93,-209.28"/>
<polygon fill="black" stroke="black" points="318.17,-210.64 318.16,-200.04 311.56,-208.33 318.17,-210.64"/>
<text text-anchor="middle" x="331.4" y="-382.45" font-family="Times,serif" font-size="14.00">source_directory</text>
</g>
<!-- 7&#45;&gt;5 -->
<g id="edge15" class="edge">
<title>7-&gt;5</title>
<path fill="none" stroke="black" d="M493.82,-598.27C561.47,-592.54 624.99,-584.56 637.02,-574.25 655.28,-558.61 651.02,-546.04 651.02,-522 651.02,-522 651.02,-522 651.02,-179.25 651.02,-135.55 540.31,-113.15 447.92,-102.07"/>
<polygon fill="black" stroke="black" points="448.59,-98.62 438.26,-100.95 447.79,-105.58 448.59,-98.62"/>
<text text-anchor="middle" x="710.65" y="-337.82" font-family="Times,serif" font-size="14.00">source_directory</text>
</g>
</g>
</svg>